<svg width="1280" height="720" xmlns="http://www.w3.org/2000/svg" xmlns:xlink="http://www.w3.org/1999/xlink" overflow="hidden"><defs><filter id="fx0" x="-10%" y="-10%" width="120%" height="120%" filterUnits="userSpaceOnUse" primitiveUnits="userSpaceOnUse"><feComponentTransfer color-interpolation-filters="sRGB"><feFuncR type="discrete" tableValues="0.85098 0.85098"/><feFuncG type="discrete" tableValues="0.85098 0.85098"/><feFuncB type="discrete" tableValues="0.85098 0.85098"/><feFuncA type="linear" slope="1" intercept="0"/></feComponentTransfer><feGaussianBlur stdDeviation="1.77778 1.77778"/></filter><filter id="fx1" x="-10%" y="-10%" width="120%" height="120%" filterUnits="userSpaceOnUse" primitiveUnits="userSpaceOnUse"><feComponentTransfer color-interpolation-filters="sRGB"><feFuncR type="discrete" tableValues="0.85098 0.85098"/><feFuncG type="discrete" tableValues="0.85098 0.85098"/><feFuncB type="discrete" tableValues="0.85098 0.85098"/><feFuncA type="linear" slope="0.4" intercept="0"/></feComponentTransfer><feGaussianBlur stdDeviation="1.77778 1.77778"/></filter><filter id="fx2" x="-10%" y="-10%" width="120%" height="120%" filterUnits="userSpaceOnUse" primitiveUnits="userSpaceOnUse"><feComponentTransfer color-interpolation-filters="sRGB"><feFuncR type="discrete" tableValues="0.85098 0.85098"/><feFuncG type="discrete" tableValues="0.85098 0.85098"/><feFuncB type="discrete" tableValues="0.85098 0.85098"/><feFuncA type="linear" slope="0.4" intercept="0"/></feComponentTransfer><feGaussianBlur stdDeviation="1.77778 1.77778"/></filter><filter id="fx3" x="-10%" y="-10%" width="120%" height="120%" filterUnits="userSpaceOnUse" primitiveUnits="userSpaceOnUse"><feComponentTransfer color-interpolation-filters="sRGB"><feFuncR type="discrete" tableValues="0.85098 0.85098"/><feFuncG type="discrete" tableValues="0.85098 0.85098"/><feFuncB type="discrete" tableValues="0.85098 0.85098"/><feFuncA type="linear" slope="0.4" intercept="0"/></feComponentTransfer><feGaussianBlur stdDeviation="1.77778 1.77778"/></filter><linearGradient x1="640" y1="0" x2="640" y2="720" gradientUnits="userSpaceOnUse" spreadMethod="reflect" id="fill4"><stop offset="0" stop-color="#EED6E0"/><stop offset="0.45" stop-color="#CEBFDB"/><stop offset="1" stop-color="#8A87BA" stop-opacity="0.886275"/></linearGradient><linearGradient x1="643" y1="16" x2="643" y2="708" gradientUnits="userSpaceOnUse" spreadMethod="reflect" id="fill5"><stop offset="0" stop-color="#DADBEE"/><stop offset="0.45" stop-color="#DCDAEC"/><stop offset="1" stop-color="#B9BED0"/></linearGradient></defs><g><rect x="0" y="0" width="1280" height="720" fill="#FFFFFF"/><rect x="0" y="0" width="1280" height="720" fill="url(#fill4)"/><path d="M19 26.8231C19 20.8457 23.8457 16 29.8231 16L1256.18 16C1262.15 16 1267 20.8457 1267 26.8231L1267 697.177C1267 703.154 1262.15 708 1256.18 708L29.8231 708C23.8457 708 19 703.154 19 697.177Z" fill="url(#fill5)" fill-rule="evenodd"/><text fill="#404040" font-family="Segoe UI,Segoe UI_MSFontService,sans-serif" font-weight="400" font-size="21" transform="translate(39.6607 53)">HEALTHLAB</text><text fill="#404040" font-family="Segoe UI,Segoe UI_MSFontService,sans-serif" font-weight="400" font-size="21" transform="translate(157.201 53)">–</text><text fill="#404040" font-family="Segoe UI,Segoe UI_MSFontService,sans-serif" font-weight="400" font-size="21" transform="translate(173.701 53)">Desempenho de Atendimento</text><path d="M30 95.6344C30 90.3135 34.3135 86 39.6344 86L772.366 86C777.687 86 782 90.3135 782 95.6344L782 692.366C782 697.687 777.687 702 772.366 702L39.6344 702C34.3135 702 30 697.687 30 692.366Z" fill="#FFFFFF" fill-rule="evenodd"/><g filter="url(#fx0)" transform="translate(787 84)"><g><path d="M7 14.5591C7 10.5684 10.2351 7.33334 14.2257 7.33334L461.774 7.33334C465.765 7.33334 469 10.5684 469 14.5591L469 616.108C469 620.098 465.765 623.333 461.774 623.333L14.2257 623.333C10.2351 623.333 7 620.098 7 616.108Z" fill="#FFFFFF" fill-rule="evenodd"/></g></g><path d="M794 93.2257C794 89.2351 797.235 86 801.226 86L1248.77 86C1252.76 86 1256 89.2351 1256 93.2257L1256 694.774C1256 698.765 1252.76 702 1248.77 702L801.226 702C797.235 702 794 698.765 794 694.774Z" fill="#FFFFFF" fill-rule="evenodd"/><path d="M49.5001 371.5 767.61 371.5" stroke="#F2F2F2" stroke-width="0.666667" stroke-miterlimit="8" fill="none" fill-rule="evenodd"/><g filter="url(#fx1)" transform="translate(398 94)"><g><path d="M6.82843 8.12649C6.82843 7.40959 7.40959 6.82843 8.12648 6.82843L371.53 6.82843C372.247 6.82843 372.828 7.40959 372.828 8.12649L372.828 88.5304C372.828 89.2473 372.247 89.8284 371.53 89.8284L8.12648 89.8284C7.40959 89.8284 6.82843 89.2473 6.82843 88.5304Z" fill="#FFFFFF" fill-rule="evenodd"/></g></g><path d="M402 99.2981C402 98.5812 402.581 98 403.298 98L766.702 98C767.419 98 768 98.5812 768 99.2981L768 179.702C768 180.419 767.419 181 766.702 181L403.298 181C402.581 181 402 180.419 402 179.702Z" fill="#FFFFFF" fill-rule="evenodd"/><g filter="url(#fx2)" transform="translate(398 190)"><g><path d="M6.82843 8.12649C6.82843 7.40959 7.40959 6.82843 8.12648 6.82843L371.53 6.82843C372.247 6.82843 372.828 7.40959 372.828 8.12649L372.828 88.5304C372.828 89.2473 372.247 89.8284 371.53 89.8284L8.12648 89.8284C7.40959 89.8284 6.82843 89.2473 6.82843 88.5304Z" fill="#FFFFFF" fill-rule="evenodd"/></g></g><path d="M402 195.298C402 194.581 402.581 194 403.298 194L766.702 194C767.419 194 768 194.581 768 195.298L768 275.702C768 276.419 767.419 277 766.702 277L403.298 277C402.581 277 402 276.419 402 275.702Z" fill="#FFFFFF" fill-rule="evenodd"/><g filter="url(#fx3)" transform="translate(398 286)"><g><path d="M6.82843 7.89193C6.82843 7.30458 7.30457 6.82843 7.89193 6.82843L371.765 6.82843C372.352 6.82843 372.828 7.30458 372.828 7.89193L372.828 73.7649C372.828 74.3523 372.352 74.8284 371.765 74.8284L7.89193 74.8284C7.30457 74.8284 6.82843 74.3523 6.82843 73.7649Z" fill="#FFFFFF" fill-rule="evenodd"/></g></g><path d="M402 291.064C402 290.476 402.476 290 403.064 290L766.937 290C767.524 290 768 290.476 768 291.064L768 356.936C768 357.524 767.524 358 766.937 358L403.064 358C402.476 358 402 357.524 402 356.936Z" fill="#FFFFFF" fill-rule="evenodd"/></g></svg>