<svg width="1280" height="720" viewBox="0 0 1280 720" fill="none" xmlns="http://www.w3.org/2000/svg">
<g clip-path="url(#clip0_586_28)">
<g filter="url(#filter0_dd_586_28)">
<g clip-path="url(#clip1_586_28)">
<rect x="17" y="10" width="1248" height="674" rx="29.1111" fill="#1C1C1E"/>
<rect width="58.2222" height="674" transform="translate(17 10)" fill="#2C2C2E"/>
<rect width="1188" height="58" transform="translate(77 10)" fill="#2C2C2E"/>
<path d="M147.374 48.222C146.835 48.222 146.338 48.0873 145.885 47.8179C145.445 47.5485 145.091 47.194 144.821 46.7544C144.552 46.3007 144.417 45.8044 144.417 45.2656V35.8646C144.417 35.3258 144.552 34.8366 144.821 34.397C145.091 33.9433 145.445 33.5817 145.885 33.3123C146.338 33.0429 146.835 32.9082 147.374 32.9082H159.688V35.737H147.969C147.742 35.737 147.558 35.8008 147.416 35.9284C147.288 36.056 147.225 36.2403 147.225 36.4814V44.6488C147.225 44.8756 147.288 45.06 147.416 45.2018C147.558 45.3294 147.742 45.3932 147.969 45.3932H159.688V48.222H147.374Z" fill="white"/>
<path d="M164.033 48.222C163.494 48.222 162.998 48.0873 162.544 47.8179C162.105 47.5485 161.75 47.194 161.481 46.7544C161.225 46.3148 161.098 45.8257 161.098 45.2868V35.8858H163.884V45.1805C163.884 45.2514 163.905 45.3152 163.948 45.3719C164.005 45.4144 164.068 45.4357 164.139 45.4357H170.584C170.655 45.4357 170.711 45.4144 170.754 45.3719C170.811 45.3152 170.839 45.2514 170.839 45.1805V35.8858H173.625V45.2868C173.625 45.8257 173.491 46.3148 173.221 46.7544C172.966 47.194 172.619 47.5485 172.179 47.8179C171.74 48.0873 171.243 48.222 170.69 48.222H164.033Z" fill="white"/>
<path d="M174.686 48.222V31.8447H177.472V35.8858H184.278C184.817 35.8858 185.306 36.0205 185.746 36.29C186.199 36.5594 186.554 36.9139 186.809 37.3534C187.079 37.793 187.213 38.2822 187.213 38.821V45.2868C187.213 45.8257 187.079 46.3148 186.809 46.7544C186.554 47.194 186.199 47.5485 185.746 47.8179C185.306 48.0873 184.817 48.222 184.278 48.222H174.686ZM177.727 45.4357H184.172C184.243 45.4357 184.299 45.4144 184.342 45.3719C184.399 45.3152 184.427 45.2514 184.427 45.1805V38.9273C184.427 38.8564 184.399 38.7997 184.342 38.7572C184.299 38.7005 184.243 38.6721 184.172 38.6721H177.727C177.656 38.6721 177.592 38.7005 177.536 38.7572C177.493 38.7997 177.472 38.8564 177.472 38.9273V45.1805C177.472 45.2514 177.493 45.3152 177.536 45.3719C177.592 45.4144 177.656 45.4357 177.727 45.4357Z" fill="white"/>
<path d="M190.999 48.222C190.46 48.222 189.971 48.0873 189.531 47.8179C189.092 47.5485 188.737 47.194 188.468 46.7544C188.199 46.3148 188.064 45.8257 188.064 45.2868V38.821C188.064 38.2822 188.199 37.793 188.468 37.3534C188.737 36.9139 189.092 36.5594 189.531 36.29C189.971 36.0205 190.46 35.8858 190.999 35.8858H197.656C198.195 35.8858 198.684 36.0205 199.124 36.29C199.578 36.5594 199.932 36.9139 200.187 37.3534C200.457 37.793 200.591 38.2822 200.591 38.821V45.2868C200.591 45.8257 200.457 46.3148 200.187 46.7544C199.932 47.194 199.585 47.5485 199.145 47.8179C198.706 48.0873 198.209 48.222 197.656 48.222H190.999ZM191.105 45.4357H197.55C197.621 45.4357 197.678 45.4144 197.72 45.3719C197.777 45.3152 197.805 45.2514 197.805 45.1805V38.9273C197.805 38.8564 197.777 38.7997 197.72 38.7572C197.678 38.7005 197.621 38.6721 197.55 38.6721H191.105C191.034 38.6721 190.971 38.7005 190.914 38.7572C190.871 38.7997 190.85 38.8564 190.85 38.9273V45.1805C190.85 45.2514 190.871 45.3152 190.914 45.3719C190.971 45.4144 191.034 45.4357 191.105 45.4357Z" fill="white"/>
<path d="M213.125 48.2223V34.6313H206.318V32.9085H221.632V34.6313H214.847V48.2223H213.125Z" fill="#31ECFF"/>
<path d="M222.393 48.2223V38.4598C222.393 37.9918 222.507 37.5665 222.734 37.1836C222.975 36.7866 223.287 36.4746 223.67 36.2478C224.067 36.0067 224.499 35.8862 224.967 35.8862H231.901V37.6303H224.967C224.74 37.6303 224.542 37.7153 224.371 37.8855C224.216 38.0415 224.138 38.2329 224.138 38.4598V48.2223H222.393Z" fill="#31ECFF"/>
<path d="M235.085 48.2223C234.617 48.2223 234.185 48.1089 233.788 47.882C233.405 47.641 233.093 47.329 232.852 46.9462C232.625 46.5492 232.512 46.1167 232.512 45.6488V38.4598C232.512 37.9918 232.625 37.5665 232.852 37.1836C233.093 36.7866 233.405 36.4746 233.788 36.2478C234.185 36.0067 234.617 35.8862 235.085 35.8862H242.487C242.969 35.8862 243.401 36.0067 243.784 36.2478C244.181 36.4746 244.493 36.7866 244.72 37.1836C244.961 37.5665 245.082 37.9918 245.082 38.4598V42.9263H234.256V45.6488C234.256 45.8756 234.334 46.0741 234.49 46.2443C234.66 46.4003 234.858 46.4783 235.085 46.4783H245.082V48.2223H235.085ZM234.256 41.1822H243.316V38.4598C243.316 38.2329 243.231 38.0415 243.061 37.8855C242.905 37.7153 242.714 37.6303 242.487 37.6303H235.085C234.858 37.6303 234.66 37.7153 234.49 37.8855C234.334 38.0415 234.256 38.2329 234.256 38.4598V41.1822ZM236.255 34.6313L237.948 32.9085H239.628L241.381 34.6313H240.062L238.799 33.5891L237.552 34.6313H236.255Z" fill="#31ECFF"/>
<path d="M249.003 48.2223C248.535 48.2223 248.103 48.1089 247.706 47.882C247.323 47.641 247.011 47.329 246.77 46.9462C246.543 46.5492 246.43 46.1167 246.43 45.6488V45.4786H248.174V45.6488C248.174 45.8756 248.252 46.0741 248.408 46.2443C248.578 46.4003 248.777 46.4783 249.003 46.4783H256.405C256.632 46.4783 256.823 46.4003 256.979 46.2443C257.149 46.0741 257.235 45.8756 257.235 45.6488V43.7558C257.235 43.5289 257.149 43.3375 256.979 43.1815C256.823 43.0114 256.632 42.9263 256.405 42.9263H249.003C248.535 42.9263 248.103 42.8129 247.706 42.586C247.323 42.3449 247.011 42.033 246.77 41.6501C246.543 41.2531 246.43 40.8206 246.43 40.3527V38.4598C246.43 37.9918 246.543 37.5665 246.77 37.1836C247.011 36.7866 247.323 36.4746 247.706 36.2478C248.103 36.0067 248.535 35.8862 249.003 35.8862H256.405C256.887 35.8862 257.32 36.0067 257.702 36.2478C258.1 36.4746 258.411 36.7866 258.638 37.1836C258.879 37.5665 259 37.9918 259 38.4598V38.6299H257.235V38.4598C257.235 38.2329 257.149 38.0415 256.979 37.8855C256.823 37.7153 256.632 37.6303 256.405 37.6303H249.003C248.777 37.6303 248.578 37.7153 248.408 37.8855C248.252 38.0415 248.174 38.2329 248.174 38.4598V40.3527C248.174 40.5796 248.252 40.7781 248.408 40.9483C248.578 41.1042 248.777 41.1822 249.003 41.1822H256.405C256.887 41.1822 257.32 41.3028 257.702 41.5438C258.1 41.7707 258.411 42.0826 258.638 42.4796C258.879 42.8625 259 43.2879 259 43.7558V45.6488C259 46.1167 258.879 46.5492 258.638 46.9462C258.411 47.329 258.1 47.641 257.702 47.882C257.32 48.1089 256.887 48.2223 256.405 48.2223H249.003Z" fill="#31ECFF"/>
<path d="M114.053 48.8496H105.873L101.111 41.0673H109.585L114.053 48.8496Z" fill="white"/>
<path d="M129.702 57.3735H119.619C118.243 54.9769 115.946 50.9519 114.742 48.8496H114.73L110.262 41.0673H120.383C123.265 46.2389 126.725 52.198 129.702 57.3735Z" fill="#31ECFF"/>
<path d="M125.383 31.58C123.663 34.5615 121.935 37.5544 120.334 40.3256H101.008C101.168 39.9816 104.043 33.7396 105.044 31.58H125.383Z" fill="#31ECFF"/>
<path d="M129.756 24.0118C128.472 26.2326 127.103 28.6025 125.723 30.9915H116.5C117.513 29.2332 120.456 24.138 120.525 24.0118H129.756Z" fill="white"/>
<path d="M134.839 49.2624L130.36 57.0218C129.228 55.0533 127.707 52.4159 126.151 49.7173L130.681 41.9961L134.839 49.2624Z" fill="white"/>
<path d="M135.371 32.7269C134.821 33.6825 127.856 45.6541 125.815 49.1363C124.041 46.0593 122.253 42.9594 120.964 40.7195C123.548 36.2358 127.799 28.8931 130.497 24.2069C130.937 24.9752 134.152 30.6055 135.371 32.7269Z" fill="#31ECFF"/>
<rect width="937" height="614" transform="translate(77 70)" fill="#2C2C2E"/>
<g clip-path="url(#clip2_586_28)">
<path d="M102.999 105V96.2642H106.094C109.197 96.2642 110.748 97.6836 110.748 100.522C110.748 101.883 110.324 102.969 109.475 103.782C108.63 104.594 107.503 105 106.094 105H102.999ZM104.967 97.8664V103.404H105.941C106.794 103.404 107.462 103.148 107.946 102.636C108.433 102.125 108.677 101.428 108.677 100.547C108.677 99.7143 108.435 99.0604 107.952 98.5852C107.473 98.106 106.798 97.8664 105.929 97.8664H104.967ZM119.685 105H117.54L116.919 103.057H113.812L113.197 105H111.065L114.245 96.2642H116.578L119.685 105ZM116.468 101.546L115.53 98.6096C115.461 98.3903 115.412 98.1283 115.384 97.8238H115.335C115.315 98.0796 115.264 98.3334 115.183 98.5852L114.233 101.546H116.468ZM120.373 104.665V102.716C120.726 103.012 121.11 103.235 121.525 103.386C121.939 103.532 122.357 103.605 122.779 103.605C123.027 103.605 123.242 103.583 123.425 103.538C123.612 103.493 123.766 103.432 123.888 103.355C124.014 103.274 124.107 103.181 124.168 103.075C124.229 102.965 124.26 102.848 124.26 102.722C124.26 102.551 124.211 102.399 124.114 102.265C124.016 102.131 123.882 102.007 123.711 101.893C123.545 101.779 123.346 101.67 123.114 101.564C122.883 101.459 122.633 101.351 122.365 101.241C121.683 100.957 121.173 100.61 120.836 100.2C120.503 99.7894 120.337 99.2939 120.337 98.7132C120.337 98.2583 120.428 97.8684 120.611 97.5435C120.793 97.2146 121.041 96.9445 121.354 96.7333C121.671 96.5221 122.036 96.3678 122.45 96.2703C122.865 96.1688 123.303 96.118 123.766 96.118C124.221 96.118 124.623 96.1465 124.973 96.2033C125.326 96.2561 125.651 96.3394 125.947 96.4531V98.2746C125.801 98.173 125.641 98.0837 125.466 98.0065C125.295 97.9293 125.119 97.8664 124.936 97.8177C124.753 97.7649 124.57 97.7263 124.388 97.7019C124.209 97.6775 124.038 97.6654 123.876 97.6654C123.653 97.6654 123.45 97.6877 123.267 97.7324C123.084 97.773 122.93 97.8319 122.804 97.909C122.678 97.9862 122.58 98.0796 122.511 98.1893C122.442 98.2949 122.408 98.4147 122.408 98.5487C122.408 98.6949 122.446 98.8269 122.524 98.9447C122.601 99.0584 122.71 99.168 122.853 99.2736C122.995 99.3752 123.167 99.4767 123.37 99.5782C123.573 99.6757 123.803 99.7772 124.059 99.8828C124.408 100.029 124.721 100.185 124.997 100.352C125.277 100.514 125.517 100.699 125.716 100.906C125.915 101.113 126.067 101.351 126.173 101.619C126.278 101.883 126.331 102.192 126.331 102.545C126.331 103.032 126.238 103.443 126.051 103.776C125.868 104.104 125.618 104.373 125.301 104.58C124.985 104.783 124.615 104.929 124.193 105.018C123.774 105.108 123.332 105.152 122.865 105.152C122.385 105.152 121.929 105.112 121.494 105.03C121.064 104.949 120.69 104.827 120.373 104.665ZM135.329 105H133.355V101.442H129.736V105H127.769V96.2642H129.736V99.7488H133.355V96.2642H135.329V105ZM137.333 105V96.2642H140.513C141.488 96.2642 142.237 96.4429 142.761 96.8003C143.285 97.1577 143.547 97.6613 143.547 98.3111C143.547 98.7822 143.386 99.1944 143.065 99.5478C142.749 99.9011 142.343 100.147 141.847 100.285V100.309C142.468 100.386 142.964 100.616 143.333 100.998C143.707 101.379 143.894 101.844 143.894 102.393C143.894 103.193 143.608 103.828 143.035 104.299C142.462 104.766 141.681 105 140.69 105H137.333ZM139.301 97.7141V99.7853H140.166C140.572 99.7853 140.891 99.6879 141.122 99.4929C141.358 99.2939 141.475 99.0218 141.475 98.6766C141.475 98.0349 140.996 97.7141 140.038 97.7141H139.301ZM139.301 101.247V103.55H140.367C140.822 103.55 141.177 103.445 141.433 103.233C141.693 103.022 141.823 102.734 141.823 102.368C141.823 102.019 141.695 101.745 141.439 101.546C141.187 101.347 140.834 101.247 140.379 101.247H139.301ZM149.029 105.152C147.779 105.152 146.759 104.746 145.971 103.934C145.183 103.118 144.789 102.056 144.789 100.748C144.789 99.367 145.189 98.2502 145.99 97.3973C146.79 96.5445 147.85 96.118 149.17 96.118C150.416 96.118 151.424 96.5262 152.191 97.3425C152.963 98.1588 153.349 99.235 153.349 100.571C153.349 101.944 152.949 103.051 152.148 103.891C151.352 104.732 150.313 105.152 149.029 105.152ZM149.115 97.8116C148.424 97.8116 147.876 98.0715 147.47 98.5913C147.064 99.1071 146.861 99.7914 146.861 100.644C146.861 101.509 147.064 102.194 147.47 102.697C147.876 103.201 148.408 103.453 149.066 103.453C149.744 103.453 150.282 103.209 150.68 102.722C151.078 102.23 151.277 101.55 151.277 100.681C151.277 99.7752 151.084 99.0706 150.699 98.567C150.313 98.0634 149.785 97.8116 149.115 97.8116ZM162.291 105H160.147L159.526 103.057H156.419L155.804 105H153.671L156.851 96.2642H159.185L162.291 105ZM159.075 101.546L158.137 98.6096C158.068 98.3903 158.019 98.1283 157.991 97.8238H157.942C157.922 98.0796 157.871 98.3334 157.79 98.5852L156.839 101.546H159.075ZM170.71 105H168.45L167.092 102.752C166.99 102.582 166.893 102.429 166.799 102.295C166.706 102.161 166.611 102.047 166.513 101.954C166.42 101.857 166.32 101.783 166.215 101.735C166.113 101.682 166.001 101.656 165.88 101.656H165.35V105H163.382V96.2642H166.501C168.621 96.2642 169.681 97.0562 169.681 98.6401C169.681 98.9447 169.634 99.2269 169.541 99.4868C169.447 99.7427 169.315 99.9742 169.145 100.181C168.974 100.388 168.767 100.567 168.523 100.717C168.284 100.868 168.016 100.985 167.719 101.071V101.095C167.849 101.136 167.975 101.203 168.097 101.296C168.219 101.385 168.337 101.491 168.45 101.613C168.564 101.735 168.672 101.867 168.773 102.009C168.879 102.147 168.974 102.283 169.06 102.417L170.71 105ZM165.35 97.7385V100.169H166.202C166.625 100.169 166.964 100.047 167.22 99.8036C167.48 99.5559 167.61 99.2493 167.61 98.8837C167.61 98.1202 167.153 97.7385 166.239 97.7385H165.35ZM171.533 105V96.2642H174.628C177.73 96.2642 179.282 97.6836 179.282 100.522C179.282 101.883 178.857 102.969 178.009 103.782C177.164 104.594 176.037 105 174.628 105H171.533ZM173.501 97.8664V103.404H174.475C175.328 103.404 175.996 103.148 176.479 102.636C176.967 102.125 177.21 101.428 177.21 100.547C177.21 99.7143 176.969 99.0604 176.486 98.5852C176.006 98.106 175.332 97.8664 174.463 97.8664H173.501Z" fill="#31ECFF"/>
<path d="M186.03 102.917L189.669 99.2777L186.03 95.6389" stroke="#EBEBF5" stroke-opacity="0.6" stroke-width="1.21296" stroke-linecap="round" stroke-linejoin="round"/>
<path d="M203.538 105H201.394L200.772 103.057H197.666L197.05 105H194.918L198.098 96.2642H200.431L203.538 105ZM200.322 101.546L199.383 98.6096C199.314 98.3903 199.266 98.1283 199.237 97.8238H199.189C199.168 98.0796 199.117 98.3334 199.036 98.5852L198.086 101.546H200.322ZM212.487 105H210.501L206.901 99.5112C206.69 99.1904 206.543 98.9487 206.462 98.7863H206.438C206.47 99.0949 206.487 99.566 206.487 100.2V105H204.629V96.2642H206.749L210.215 101.582C210.373 101.822 210.519 102.06 210.653 102.295H210.678C210.645 102.092 210.629 101.692 210.629 101.095V96.2642H212.487V105ZM222.167 105H220.023L219.401 103.057H216.295L215.679 105H213.547L216.727 96.2642H219.06L222.167 105ZM218.951 101.546L218.012 98.6096C217.943 98.3903 217.895 98.1283 217.866 97.8238H217.818C217.797 98.0796 217.746 98.3334 217.665 98.5852L216.715 101.546H218.951ZM219.797 93.4863L217.891 95.454H216.502L218.086 93.4863H219.797ZM228.46 105H223.258V96.2642H225.225V103.404H228.46V105ZM231.61 105H229.642V96.2642H231.61V105ZM233.2 104.665V102.716C233.553 103.012 233.937 103.235 234.351 103.386C234.765 103.532 235.183 103.605 235.606 103.605C235.854 103.605 236.069 103.583 236.252 103.538C236.438 103.493 236.593 103.432 236.715 103.355C236.84 103.274 236.934 103.181 236.995 103.075C237.056 102.965 237.086 102.848 237.086 102.722C237.086 102.551 237.037 102.399 236.94 102.265C236.842 102.131 236.708 102.007 236.538 101.893C236.371 101.779 236.172 101.67 235.941 101.564C235.709 101.459 235.46 101.351 235.192 101.241C234.509 100.957 234 100.61 233.663 100.2C233.329 99.7894 233.163 99.2939 233.163 98.7132C233.163 98.2583 233.254 97.8684 233.437 97.5435C233.62 97.2146 233.868 96.9445 234.18 96.7333C234.497 96.5221 234.863 96.3678 235.277 96.2703C235.691 96.1688 236.13 96.118 236.593 96.118C237.048 96.118 237.45 96.1465 237.799 96.2033C238.152 96.2561 238.477 96.3394 238.774 96.4531V98.2746C238.627 98.173 238.467 98.0837 238.292 98.0065C238.122 97.9293 237.945 97.8664 237.762 97.8177C237.58 97.7649 237.397 97.7263 237.214 97.7019C237.035 97.6775 236.865 97.6654 236.702 97.6654C236.479 97.6654 236.276 97.6877 236.093 97.7324C235.91 97.773 235.756 97.8319 235.63 97.909C235.504 97.9862 235.407 98.0796 235.338 98.1893C235.269 98.2949 235.234 98.4147 235.234 98.5487C235.234 98.6949 235.273 98.8269 235.35 98.9447C235.427 99.0584 235.537 99.168 235.679 99.2736C235.821 99.3752 235.994 99.4767 236.197 99.5782C236.4 99.6757 236.629 99.7772 236.885 99.8828C237.234 100.029 237.547 100.185 237.823 100.352C238.104 100.514 238.343 100.699 238.542 100.906C238.741 101.113 238.893 101.351 238.999 101.619C239.105 101.883 239.157 102.192 239.157 102.545C239.157 103.032 239.064 103.443 238.877 103.776C238.694 104.104 238.445 104.373 238.128 104.58C237.811 104.783 237.442 104.929 237.019 105.018C236.601 105.108 236.158 105.152 235.691 105.152C235.212 105.152 234.755 105.112 234.32 105.03C233.89 104.949 233.516 104.827 233.2 104.665ZM245.834 105H240.595V96.2642H245.633V97.8664H242.563V99.8097H245.42V101.406H242.563V103.404H245.834V105ZM250.683 105V96.2642H253.778C256.881 96.2642 258.432 97.6836 258.432 100.522C258.432 101.883 258.008 102.969 257.159 103.782C256.314 104.594 255.187 105 253.778 105H250.683ZM252.651 97.8664V103.404H253.626C254.479 103.404 255.147 103.148 255.63 102.636C256.117 102.125 256.361 101.428 256.361 100.547C256.361 99.7143 256.119 99.0604 255.636 98.5852C255.157 98.106 254.483 97.8664 253.613 97.8664H252.651ZM265.121 105H259.882V96.2642H264.92V97.8664H261.85V99.8097H264.707V101.406H261.85V103.404H265.121V105ZM271.938 101.991V105H269.97V96.2642H273.053C275.254 96.2642 276.354 97.1922 276.354 99.0482C276.354 99.9255 276.038 100.636 275.404 101.18C274.775 101.721 273.932 101.991 272.876 101.991H271.938ZM271.938 97.775V100.498H272.712C273.759 100.498 274.283 100.039 274.283 99.1213C274.283 98.2238 273.759 97.775 272.712 97.775H271.938ZM284.962 105H282.702L281.344 102.752C281.242 102.582 281.145 102.429 281.051 102.295C280.958 102.161 280.862 102.047 280.765 101.954C280.672 101.857 280.572 101.783 280.467 101.735C280.365 101.682 280.253 101.656 280.131 101.656H279.601V105H277.634V96.2642H280.753C282.873 96.2642 283.933 97.0562 283.933 98.6401C283.933 98.9447 283.886 99.2269 283.793 99.4868C283.699 99.7427 283.567 99.9742 283.397 100.181C283.226 100.388 283.019 100.567 282.775 100.717C282.536 100.868 282.268 100.985 281.971 101.071V101.095C282.101 101.136 282.227 101.203 282.349 101.296C282.471 101.385 282.589 101.491 282.702 101.613C282.816 101.735 282.924 101.867 283.025 102.009C283.131 102.147 283.226 102.283 283.311 102.417L284.962 105ZM279.601 97.7385V100.169H280.454C280.877 100.169 281.216 100.047 281.472 99.8036C281.732 99.5559 281.862 99.2493 281.862 98.8837C281.862 98.1202 281.405 97.7385 280.491 97.7385H279.601ZM289.355 105.152C288.104 105.152 287.084 104.746 286.296 103.934C285.509 103.118 285.115 102.056 285.115 100.748C285.115 99.367 285.515 98.2502 286.315 97.3973C287.115 96.5445 288.175 96.118 289.495 96.118C290.742 96.118 291.749 96.5262 292.516 97.3425C293.288 98.1588 293.674 99.235 293.674 100.571C293.674 101.944 293.274 103.051 292.474 103.891C291.678 104.732 290.638 105.152 289.355 105.152ZM289.44 97.8116C288.749 97.8116 288.201 98.0715 287.795 98.5913C287.389 99.1071 287.186 99.7914 287.186 100.644C287.186 101.509 287.389 102.194 287.795 102.697C288.201 103.201 288.733 103.453 289.391 103.453C290.069 103.453 290.607 103.209 291.005 102.722C291.403 102.23 291.602 101.55 291.602 100.681C291.602 99.7752 291.41 99.0706 291.024 98.567C290.638 98.0634 290.11 97.8116 289.44 97.8116ZM295.13 105V96.2642H298.224C301.327 96.2642 302.879 97.6836 302.879 100.522C302.879 101.883 302.454 102.969 301.605 103.782C300.761 104.594 299.634 105 298.224 105H295.13ZM297.097 97.8664V103.404H298.072C298.925 103.404 299.593 103.148 300.076 102.636C300.564 102.125 300.807 101.428 300.807 100.547C300.807 99.7143 300.566 99.0604 300.082 98.5852C299.603 98.106 298.929 97.8664 298.06 97.8664H297.097ZM311.45 101.217C311.45 103.841 310.227 105.152 307.783 105.152C305.411 105.152 304.225 103.871 304.225 101.308V96.2642H306.199V101.333C306.199 102.746 306.751 103.453 307.856 103.453C308.94 103.453 309.482 102.77 309.482 101.406V96.2642H311.45V101.217ZM319.491 97.8664H317V105H315.026V97.8664H312.546V96.2642H319.491V97.8664ZM323.896 105.152C322.645 105.152 321.625 104.746 320.837 103.934C320.05 103.118 319.656 102.056 319.656 100.748C319.656 99.367 320.056 98.2502 320.856 97.3973C321.656 96.5445 322.716 96.118 324.036 96.118C325.283 96.118 326.29 96.5262 327.057 97.3425C327.829 98.1588 328.215 99.235 328.215 100.571C328.215 101.944 327.815 103.051 327.015 103.891C326.219 104.732 325.179 105.152 323.896 105.152ZM323.981 97.8116C323.29 97.8116 322.742 98.0715 322.336 98.5913C321.93 99.1071 321.727 99.7914 321.727 100.644C321.727 101.509 321.93 102.194 322.336 102.697C322.742 103.201 323.274 103.453 323.932 103.453C324.61 103.453 325.148 103.209 325.546 102.722C325.945 102.23 326.144 101.55 326.144 100.681C326.144 99.7752 325.951 99.0706 325.565 98.567C325.179 98.0634 324.651 97.8116 323.981 97.8116ZM329.269 104.665V102.716C329.622 103.012 330.006 103.235 330.42 103.386C330.834 103.532 331.253 103.605 331.675 103.605C331.923 103.605 332.138 103.583 332.321 103.538C332.508 103.493 332.662 103.432 332.784 103.355C332.91 103.274 333.003 103.181 333.064 103.075C333.125 102.965 333.155 102.848 333.155 102.722C333.155 102.551 333.107 102.399 333.009 102.265C332.912 102.131 332.778 102.007 332.607 101.893C332.44 101.779 332.241 101.67 332.01 101.564C331.779 101.459 331.529 101.351 331.261 101.241C330.578 100.957 330.069 100.61 329.732 100.2C329.399 99.7894 329.232 99.2939 329.232 98.7132C329.232 98.2583 329.323 97.8684 329.506 97.5435C329.689 97.2146 329.937 96.9445 330.249 96.7333C330.566 96.5221 330.932 96.3678 331.346 96.2703C331.76 96.1688 332.199 96.118 332.662 96.118C333.117 96.118 333.519 96.1465 333.868 96.2033C334.221 96.2561 334.546 96.3394 334.843 96.4531V98.2746C334.697 98.173 334.536 98.0837 334.361 98.0065C334.191 97.9293 334.014 97.8664 333.831 97.8177C333.649 97.7649 333.466 97.7263 333.283 97.7019C333.105 97.6775 332.934 97.6654 332.771 97.6654C332.548 97.6654 332.345 97.6877 332.162 97.7324C331.98 97.773 331.825 97.8319 331.699 97.909C331.573 97.9862 331.476 98.0796 331.407 98.1893C331.338 98.2949 331.303 98.4147 331.303 98.5487C331.303 98.6949 331.342 98.8269 331.419 98.9447C331.496 99.0584 331.606 99.168 331.748 99.2736C331.89 99.3752 332.063 99.4767 332.266 99.5782C332.469 99.6757 332.698 99.7772 332.954 99.8828C333.304 100.029 333.616 100.185 333.892 100.352C334.173 100.514 334.412 100.699 334.611 100.906C334.81 101.113 334.963 101.351 335.068 101.619C335.174 101.883 335.227 102.192 335.227 102.545C335.227 103.032 335.133 103.443 334.946 103.776C334.764 104.104 334.514 104.373 334.197 104.58C333.88 104.783 333.511 104.929 333.088 105.018C332.67 105.108 332.227 105.152 331.76 105.152C331.281 105.152 330.824 105.112 330.39 105.03C329.959 104.949 329.585 104.827 329.269 104.665Z" fill="#EBEBF5" fill-opacity="0.6"/>
</g>
<path d="M322.408 39.48C322.408 38.6804 322.586 37.9662 322.943 37.3374C323.308 36.7008 323.801 36.2079 324.422 35.8586C325.051 35.5015 325.753 35.3229 326.53 35.3229C327.438 35.3229 328.234 35.5558 328.917 36.0216C329.6 36.4874 330.077 37.1317 330.349 37.9546H328.474C328.288 37.5664 328.024 37.2753 327.682 37.0812C327.349 36.8872 326.961 36.7901 326.518 36.7901C326.045 36.7901 325.621 36.9027 325.249 37.1278C324.884 37.3452 324.597 37.6557 324.387 38.0594C324.185 38.463 324.084 38.9366 324.084 39.48C324.084 40.0156 324.185 40.4892 324.387 40.9006C324.597 41.3043 324.884 41.6187 325.249 41.8438C325.621 42.0612 326.045 42.1699 326.518 42.1699C326.961 42.1699 327.349 42.0728 327.682 41.8787C328.024 41.6769 328.288 41.3819 328.474 40.9938H330.349C330.077 41.8244 329.6 42.4726 328.917 42.9384C328.241 43.3964 327.446 43.6254 326.53 43.6254C325.753 43.6254 325.051 43.4507 324.422 43.1014C323.801 42.7443 323.308 42.2514 322.943 41.6226C322.586 40.9938 322.408 40.2796 322.408 39.48ZM334.606 43.6603C333.985 43.6603 333.426 43.5245 332.929 43.2528C332.432 42.9733 332.04 42.5813 331.753 42.0767C331.474 41.5721 331.334 40.9899 331.334 40.33C331.334 39.6702 331.478 39.088 331.765 38.5834C332.06 38.0788 332.46 37.6906 332.964 37.4189C333.469 37.1395 334.032 36.9997 334.653 36.9997C335.274 36.9997 335.836 37.1395 336.341 37.4189C336.846 37.6906 337.242 38.0788 337.529 38.5834C337.824 39.088 337.971 39.6702 337.971 40.33C337.971 40.9899 337.82 41.5721 337.517 42.0767C337.222 42.5813 336.818 42.9733 336.306 43.2528C335.802 43.5245 335.235 43.6603 334.606 43.6603ZM334.606 42.2397C334.901 42.2397 335.177 42.1699 335.433 42.0301C335.697 41.8826 335.906 41.6653 336.062 41.378C336.217 41.0908 336.294 40.7415 336.294 40.33C336.294 39.7168 336.131 39.2471 335.805 38.9211C335.487 38.5872 335.095 38.4203 334.629 38.4203C334.164 38.4203 333.772 38.5872 333.453 38.9211C333.143 39.2471 332.987 39.7168 332.987 40.33C332.987 40.9433 333.139 41.4168 333.442 41.7507C333.752 42.0767 334.14 42.2397 334.606 42.2397ZM347.178 37.0114C347.97 37.0114 348.607 37.2559 349.088 37.745C349.577 38.2263 349.822 38.9016 349.822 39.7711V43.5555H348.192V39.9923C348.192 39.4877 348.063 39.1035 347.807 38.8395C347.551 38.5678 347.202 38.432 346.759 38.432C346.317 38.432 345.964 38.5678 345.7 38.8395C345.443 39.1035 345.315 39.4877 345.315 39.9923V43.5555H343.685V39.9923C343.685 39.4877 343.557 39.1035 343.301 38.8395C343.045 38.5678 342.695 38.432 342.253 38.432C341.803 38.432 341.446 38.5678 341.182 38.8395C340.925 39.1035 340.797 39.4877 340.797 39.9923V43.5555H339.167V37.1045H340.797V37.8847C341.007 37.613 341.275 37.3995 341.601 37.2443C341.935 37.089 342.299 37.0114 342.695 37.0114C343.2 37.0114 343.65 37.12 344.046 37.3374C344.442 37.547 344.749 37.8498 344.966 38.2457C345.176 37.8731 345.478 37.5742 345.874 37.3491C346.278 37.1239 346.713 37.0114 347.178 37.0114ZM357.366 40.1903C357.366 40.4232 357.35 40.6328 357.319 40.8191H352.603C352.642 41.2849 352.805 41.6497 353.092 41.9137C353.379 42.1776 353.733 42.3096 354.152 42.3096C354.757 42.3096 355.188 42.0495 355.444 41.5294H357.203C357.016 42.1504 356.659 42.6628 356.131 43.0665C355.603 43.4624 354.955 43.6603 354.187 43.6603C353.566 43.6603 353.007 43.5245 352.51 43.2528C352.021 42.9733 351.637 42.5813 351.357 42.0767C351.085 41.5721 350.95 40.9899 350.95 40.33C350.95 39.6624 351.085 39.0763 351.357 38.5717C351.629 38.0671 352.009 37.679 352.498 37.4073C352.987 37.1356 353.55 36.9997 354.187 36.9997C354.8 36.9997 355.347 37.1317 355.829 37.3956C356.318 37.6596 356.694 38.0361 356.958 38.5251C357.23 39.0064 357.366 39.5615 357.366 40.1903ZM355.677 39.7245C355.669 39.3053 355.518 38.9715 355.223 38.7231C354.928 38.4669 354.567 38.3388 354.14 38.3388C353.736 38.3388 353.395 38.463 353.115 38.7115C352.844 38.9521 352.677 39.2898 352.615 39.7245H355.677ZM360.186 38.1059C360.395 37.7644 360.667 37.4965 361.001 37.3025C361.342 37.1084 361.731 37.0114 362.165 37.0114V38.7231H361.734C361.222 38.7231 360.834 38.8434 360.57 39.0841C360.314 39.3247 360.186 39.7439 360.186 40.3417V43.5555H358.556V37.1045H360.186V38.1059ZM362.844 40.33C362.844 39.6624 362.98 39.0802 363.252 38.5834C363.523 38.0788 363.9 37.6906 364.381 37.4189C364.863 37.1395 365.414 36.9997 366.035 36.9997C366.834 36.9997 367.494 37.2016 368.014 37.6052C368.542 38.0011 368.895 38.5601 369.074 39.282H367.316C367.222 39.0026 367.063 38.7852 366.838 38.6299C366.621 38.4669 366.349 38.3854 366.023 38.3854C365.557 38.3854 365.189 38.5562 364.917 38.8978C364.645 39.2316 364.509 39.709 364.509 40.33C364.509 40.9433 364.645 41.4207 364.917 41.7623C365.189 42.0961 365.557 42.263 366.023 42.263C366.683 42.263 367.114 41.968 367.316 41.378H369.074C368.895 42.0767 368.542 42.6317 368.014 43.0432C367.486 43.4546 366.827 43.6603 366.035 43.6603C365.414 43.6603 364.863 43.5245 364.381 43.2528C363.9 42.9733 363.523 42.5852 363.252 42.0883C362.98 41.5837 362.844 40.9976 362.844 40.33ZM371.095 36.336C370.808 36.336 370.567 36.2467 370.373 36.0682C370.187 35.8819 370.094 35.6528 370.094 35.3811C370.094 35.1094 370.187 34.8843 370.373 34.7058C370.567 34.5195 370.808 34.4263 371.095 34.4263C371.382 34.4263 371.619 34.5195 371.805 34.7058C371.999 34.8843 372.096 35.1094 372.096 35.3811C372.096 35.6528 371.999 35.8819 371.805 36.0682C371.619 36.2467 371.382 36.336 371.095 36.336ZM371.898 37.1045V43.5555H370.268V37.1045H371.898ZM373.09 40.3067C373.09 39.6547 373.218 39.0763 373.474 38.5717C373.738 38.0671 374.091 37.679 374.534 37.4073C374.984 37.1356 375.485 36.9997 376.036 36.9997C376.517 36.9997 376.936 37.0968 377.294 37.2908C377.658 37.4849 377.95 37.7294 378.167 38.0244V37.1045H379.809V43.5555H378.167V42.6123C377.957 42.9151 377.666 43.1674 377.294 43.3692C376.929 43.5633 376.506 43.6603 376.024 43.6603C375.481 43.6603 374.984 43.5206 374.534 43.2411C374.091 42.9617 373.738 42.5696 373.474 42.0651C373.218 41.5527 373.09 40.9666 373.09 40.3067ZM378.167 40.33C378.167 39.9341 378.089 39.5964 377.934 39.317C377.779 39.0297 377.569 38.8124 377.305 38.6649C377.041 38.5096 376.758 38.432 376.455 38.432C376.152 38.432 375.873 38.5057 375.617 38.6532C375.361 38.8007 375.151 39.0181 374.988 39.3053C374.833 39.5848 374.755 39.9186 374.755 40.3067C374.755 40.6949 374.833 41.0365 374.988 41.3315C375.151 41.6187 375.361 41.8399 375.617 41.9952C375.881 42.1504 376.16 42.2281 376.455 42.2281C376.758 42.2281 377.041 42.1543 377.305 42.0068C377.569 41.8516 377.779 41.6342 377.934 41.3547C378.089 41.0675 378.167 40.7259 378.167 40.33ZM383.031 34.9387V43.5555H381.401V34.9387H383.031Z" fill="#EBEBF5" fill-opacity="0.6"/>
<path d="M443.787 42.0068H440.55L440.014 43.5555H438.303L441.225 35.4161H443.123L446.046 43.5555H444.323L443.787 42.0068ZM443.345 40.7027L442.168 37.3025L440.992 40.7027H443.345ZM450.713 37.0114C451.482 37.0114 452.103 37.2559 452.577 37.745C453.05 38.2263 453.287 38.9016 453.287 39.7711V43.5555H451.657V39.9923C451.657 39.48 451.529 39.088 451.272 38.8163C451.016 38.5368 450.667 38.3971 450.224 38.3971C449.774 38.3971 449.417 38.5368 449.153 38.8163C448.897 39.088 448.769 39.48 448.769 39.9923V43.5555H447.139V37.1045H448.769V37.908C448.986 37.6285 449.262 37.4112 449.596 37.2559C449.937 37.0929 450.31 37.0114 450.713 37.0114ZM454.418 40.3067C454.418 39.6547 454.546 39.0763 454.802 38.5717C455.066 38.0671 455.419 37.679 455.862 37.4073C456.312 37.1356 456.813 36.9997 457.364 36.9997C457.845 36.9997 458.264 37.0968 458.622 37.2908C458.986 37.4849 459.277 37.7294 459.495 38.0244V37.1045H461.137V43.5555H459.495V42.6123C459.285 42.9151 458.994 43.1674 458.622 43.3692C458.257 43.5633 457.834 43.6603 457.352 43.6603C456.809 43.6603 456.312 43.5206 455.862 43.2411C455.419 42.9617 455.066 42.5696 454.802 42.0651C454.546 41.5527 454.418 40.9666 454.418 40.3067ZM459.495 40.33C459.495 39.9341 459.417 39.5964 459.262 39.317C459.107 39.0297 458.897 38.8124 458.633 38.6649C458.369 38.5096 458.086 38.432 457.783 38.432C457.48 38.432 457.201 38.5057 456.945 38.6532C456.689 38.8007 456.479 39.0181 456.316 39.3053C456.161 39.5848 456.083 39.9186 456.083 40.3067C456.083 40.6949 456.161 41.0365 456.316 41.3315C456.479 41.6187 456.689 41.8399 456.945 41.9952C457.209 42.1504 457.488 42.2281 457.783 42.2281C458.086 42.2281 458.369 42.1543 458.633 42.0068C458.897 41.8516 459.107 41.6342 459.262 41.3547C459.417 41.0675 459.495 40.7259 459.495 40.33ZM459.274 35.4277L456.595 36.6504V35.4859L459.274 34.1003V35.4277ZM464.359 34.9387V43.5555H462.729V34.9387H464.359ZM466.797 36.336C466.509 36.336 466.269 36.2467 466.075 36.0682C465.888 35.8819 465.795 35.6528 465.795 35.3811C465.795 35.1094 465.888 34.8843 466.075 34.7058C466.269 34.5195 466.509 34.4263 466.797 34.4263C467.084 34.4263 467.321 34.5195 467.507 34.7058C467.701 34.8843 467.798 35.1094 467.798 35.3811C467.798 35.6528 467.701 35.8819 467.507 36.0682C467.321 36.2467 467.084 36.336 466.797 36.336ZM467.6 37.1045V43.5555H465.97V37.1045H467.6ZM471.679 43.6603C471.151 43.6603 470.678 43.5672 470.259 43.3809C469.839 43.1868 469.506 42.9267 469.257 42.6007C469.017 42.2747 468.885 41.9137 468.861 41.5178H470.503C470.534 41.7662 470.655 41.9719 470.864 42.1349C471.082 42.2979 471.349 42.3795 471.668 42.3795C471.978 42.3795 472.219 42.3173 472.39 42.1931C472.568 42.0689 472.657 41.9098 472.657 41.7157C472.657 41.5061 472.549 41.3509 472.331 41.2499C472.122 41.1413 471.784 41.0248 471.318 40.9006C470.837 40.7842 470.441 40.6638 470.131 40.5396C469.828 40.4154 469.564 40.2252 469.339 39.9691C469.121 39.7129 469.013 39.3674 469.013 38.9327C469.013 38.5756 469.114 38.2496 469.315 37.9546C469.525 37.6596 469.82 37.4267 470.2 37.2559C470.589 37.0851 471.043 36.9997 471.563 36.9997C472.331 36.9997 472.945 37.1938 473.403 37.5819C473.861 37.9623 474.113 38.4786 474.16 39.1307H472.599C472.576 38.8745 472.467 38.6726 472.273 38.5251C472.087 38.3699 471.835 38.2923 471.516 38.2923C471.221 38.2923 470.992 38.3466 470.829 38.4553C470.674 38.564 470.596 38.7153 470.596 38.9094C470.596 39.1268 470.705 39.2937 470.922 39.4101C471.14 39.5188 471.477 39.6314 471.935 39.7478C472.401 39.8643 472.786 39.9846 473.088 40.1088C473.391 40.233 473.651 40.4271 473.868 40.691C474.094 40.9472 474.21 41.2888 474.218 41.7157C474.218 42.0883 474.113 42.4221 473.903 42.7171C473.702 43.0121 473.407 43.245 473.018 43.4158C472.638 43.5788 472.192 43.6603 471.679 43.6603ZM481.553 40.1903C481.553 40.4232 481.537 40.6328 481.506 40.8191H476.79C476.829 41.2849 476.992 41.6497 477.279 41.9137C477.567 42.1776 477.92 42.3096 478.339 42.3096C478.945 42.3096 479.375 42.0495 479.632 41.5294H481.39C481.204 42.1504 480.846 42.6628 480.319 43.0665C479.791 43.4624 479.142 43.6603 478.374 43.6603C477.753 43.6603 477.194 43.5245 476.697 43.2528C476.208 42.9733 475.824 42.5813 475.544 42.0767C475.273 41.5721 475.137 40.9899 475.137 40.33C475.137 39.6624 475.273 39.0763 475.544 38.5717C475.816 38.0671 476.196 37.679 476.686 37.4073C477.175 37.1356 477.737 36.9997 478.374 36.9997C478.987 36.9997 479.535 37.1317 480.016 37.3956C480.505 37.6596 480.881 38.0361 481.145 38.5251C481.417 39.0064 481.553 39.5615 481.553 40.1903ZM479.864 39.7245C479.857 39.3053 479.705 38.9715 479.41 38.7231C479.115 38.4669 478.754 38.3388 478.327 38.3388C477.924 38.3388 477.582 38.463 477.303 38.7115C477.031 38.9521 476.864 39.2898 476.802 39.7245H479.864ZM485.098 40.3067C485.098 39.6547 485.226 39.0763 485.483 38.5717C485.746 38.0671 486.104 37.679 486.554 37.4073C487.004 37.1356 487.505 36.9997 488.056 36.9997C488.475 36.9997 488.875 37.0929 489.255 37.2792C489.636 37.4577 489.938 37.6984 490.164 38.0011V34.9387H491.817V43.5555H490.164V42.6007C489.962 42.919 489.678 43.1752 489.314 43.3692C488.949 43.5633 488.526 43.6603 488.044 43.6603C487.501 43.6603 487.004 43.5206 486.554 43.2411C486.104 42.9617 485.746 42.5696 485.483 42.0651C485.226 41.5527 485.098 40.9666 485.098 40.3067ZM490.175 40.33C490.175 39.9341 490.098 39.5964 489.942 39.317C489.787 39.0297 489.577 38.8124 489.314 38.6649C489.05 38.5096 488.766 38.432 488.464 38.432C488.161 38.432 487.881 38.5057 487.625 38.6532C487.369 38.8007 487.159 39.0181 486.996 39.3053C486.841 39.5848 486.763 39.9186 486.763 40.3067C486.763 40.6949 486.841 41.0365 486.996 41.3315C487.159 41.6187 487.369 41.8399 487.625 41.9952C487.889 42.1504 488.169 42.2281 488.464 42.2281C488.766 42.2281 489.05 42.1543 489.314 42.0068C489.577 41.8516 489.787 41.6342 489.942 41.3547C490.098 41.0675 490.175 40.7259 490.175 40.33ZM499.406 40.1903C499.406 40.4232 499.391 40.6328 499.36 40.8191H494.644C494.682 41.2849 494.845 41.6497 495.133 41.9137C495.42 42.1776 495.773 42.3096 496.192 42.3096C496.798 42.3096 497.229 42.0495 497.485 41.5294H499.243C499.057 42.1504 498.7 42.6628 498.172 43.0665C497.644 43.4624 496.996 43.6603 496.227 43.6603C495.606 43.6603 495.047 43.5245 494.55 43.2528C494.061 42.9733 493.677 42.5813 493.398 42.0767C493.126 41.5721 492.99 40.9899 492.99 40.33C492.99 39.6624 493.126 39.0763 493.398 38.5717C493.669 38.0671 494.05 37.679 494.539 37.4073C495.028 37.1356 495.591 36.9997 496.227 36.9997C496.841 36.9997 497.388 37.1317 497.869 37.3956C498.358 37.6596 498.735 38.0361 498.999 38.5251C499.27 39.0064 499.406 39.5615 499.406 40.1903ZM497.718 39.7245C497.71 39.3053 497.559 38.9715 497.264 38.7231C496.969 38.4669 496.608 38.3388 496.181 38.3388C495.777 38.3388 495.435 38.463 495.156 38.7115C494.884 38.9521 494.717 39.2898 494.655 39.7245H497.718ZM509.298 37.9429C509.298 38.3776 509.193 38.7852 508.983 39.1656C508.782 39.546 508.459 39.8526 508.017 40.0855C507.582 40.3184 507.031 40.4348 506.363 40.4348H505.001V43.5555H503.371V35.4277H506.363C506.992 35.4277 507.528 35.5364 507.97 35.7538C508.413 35.9711 508.743 36.27 508.96 36.6504C509.185 37.0308 509.298 37.4616 509.298 37.9429ZM506.294 39.119C506.744 39.119 507.078 39.0181 507.295 38.8163C507.512 38.6067 507.621 38.3155 507.621 37.9429C507.621 37.1511 507.178 36.7552 506.294 36.7552H505.001V39.119H506.294ZM512.085 38.1059C512.295 37.7644 512.567 37.4965 512.901 37.3025C513.242 37.1084 513.63 37.0114 514.065 37.0114V38.7231H513.634C513.122 38.7231 512.734 38.8434 512.47 39.0841C512.214 39.3247 512.085 39.7439 512.085 40.3417V43.5555H510.455V37.1045H512.085V38.1059ZM518.028 43.6603C517.407 43.6603 516.848 43.5245 516.351 43.2528C515.854 42.9733 515.462 42.5813 515.175 42.0767C514.895 41.5721 514.755 40.9899 514.755 40.33C514.755 39.6702 514.899 39.088 515.186 38.5834C515.481 38.0788 515.881 37.6906 516.386 37.4189C516.89 37.1395 517.453 36.9997 518.074 36.9997C518.695 36.9997 519.258 37.1395 519.763 37.4189C520.267 37.6906 520.663 38.0788 520.95 38.5834C521.245 39.088 521.393 39.6702 521.393 40.33C521.393 40.9899 521.241 41.5721 520.939 42.0767C520.644 42.5813 520.24 42.9733 519.728 43.2528C519.223 43.5245 518.656 43.6603 518.028 43.6603ZM518.028 42.2397C518.323 42.2397 518.598 42.1699 518.854 42.0301C519.118 41.8826 519.328 41.6653 519.483 41.378C519.638 41.0908 519.716 40.7415 519.716 40.33C519.716 39.7168 519.553 39.2471 519.227 38.9211C518.909 38.5872 518.517 38.4203 518.051 38.4203C517.585 38.4203 517.193 38.5872 516.875 38.9211C516.564 39.2471 516.409 39.7168 516.409 40.33C516.409 40.9433 516.56 41.4168 516.863 41.7507C517.174 42.0767 517.562 42.2397 518.028 42.2397ZM522.169 40.3067C522.169 39.6547 522.298 39.0763 522.554 38.5717C522.818 38.0671 523.175 37.679 523.625 37.4073C524.075 37.1356 524.576 36.9997 525.127 36.9997C525.546 36.9997 525.946 37.0929 526.327 37.2792C526.707 37.4577 527.01 37.6984 527.235 38.0011V34.9387H528.888V43.5555H527.235V42.6007C527.033 42.919 526.75 43.1752 526.385 43.3692C526.02 43.5633 525.597 43.6603 525.115 43.6603C524.572 43.6603 524.075 43.5206 523.625 43.2411C523.175 42.9617 522.818 42.5696 522.554 42.0651C522.298 41.5527 522.169 40.9666 522.169 40.3067ZM527.246 40.33C527.246 39.9341 527.169 39.5964 527.014 39.317C526.858 39.0297 526.649 38.8124 526.385 38.6649C526.121 38.5096 525.837 38.432 525.535 38.432C525.232 38.432 524.952 38.5057 524.696 38.6532C524.44 38.8007 524.231 39.0181 524.067 39.3053C523.912 39.5848 523.835 39.9186 523.835 40.3067C523.835 40.6949 523.912 41.0365 524.067 41.3315C524.231 41.6187 524.44 41.8399 524.696 41.9952C524.96 42.1504 525.24 42.2281 525.535 42.2281C525.837 42.2281 526.121 42.1543 526.385 42.0068C526.649 41.8516 526.858 41.6342 527.014 41.3547C527.169 41.0675 527.246 40.7259 527.246 40.33ZM536.571 37.1045V43.5555H534.929V42.7404C534.719 43.0199 534.443 43.2411 534.102 43.4042C533.768 43.5594 533.403 43.6371 533.007 43.6371C532.503 43.6371 532.056 43.5323 531.668 43.3227C531.28 43.1053 530.973 42.7909 530.748 42.3795C530.531 41.9603 530.422 41.4634 530.422 40.889V37.1045H532.052V40.6561C532.052 41.1684 532.181 41.5643 532.437 41.8438C532.693 42.1155 533.042 42.2514 533.485 42.2514C533.935 42.2514 534.288 42.1155 534.544 41.8438C534.801 41.5643 534.929 41.1684 534.929 40.6561V37.1045H536.571ZM540.077 38.4436V41.5643C540.077 41.7817 540.128 41.9408 540.228 42.0418C540.337 42.1349 540.516 42.1815 540.764 42.1815H541.521V43.5555H540.496C539.122 43.5555 538.435 42.8879 538.435 41.5527V38.4436H537.667V37.1045H538.435V35.5092H540.077V37.1045H541.521V38.4436H540.077ZM545.558 43.6603C544.937 43.6603 544.378 43.5245 543.881 43.2528C543.384 42.9733 542.992 42.5813 542.705 42.0767C542.426 41.5721 542.286 40.9899 542.286 40.33C542.286 39.6702 542.43 39.088 542.717 38.5834C543.012 38.0788 543.412 37.6906 543.916 37.4189C544.421 37.1395 544.984 36.9997 545.605 36.9997C546.226 36.9997 546.788 37.1395 547.293 37.4189C547.798 37.6906 548.194 38.0788 548.481 38.5834C548.776 39.088 548.923 39.6702 548.923 40.33C548.923 40.9899 548.772 41.5721 548.469 42.0767C548.174 42.5813 547.77 42.9733 547.258 43.2528C546.754 43.5245 546.187 43.6603 545.558 43.6603ZM545.558 42.2397C545.853 42.2397 546.129 42.1699 546.385 42.0301C546.649 41.8826 546.858 41.6653 547.014 41.378C547.169 41.0908 547.246 40.7415 547.246 40.33C547.246 39.7168 547.083 39.2471 546.757 38.9211C546.439 38.5872 546.047 38.4203 545.581 38.4203C545.116 38.4203 544.724 38.5872 544.405 38.9211C544.095 39.2471 543.939 39.7168 543.939 40.33C543.939 40.9433 544.091 41.4168 544.394 41.7507C544.704 42.0767 545.092 42.2397 545.558 42.2397ZM552.588 43.6603C552.06 43.6603 551.586 43.5672 551.167 43.3809C550.748 43.1868 550.414 42.9267 550.166 42.6007C549.925 42.2747 549.793 41.9137 549.77 41.5178H551.412C551.443 41.7662 551.563 41.9719 551.773 42.1349C551.99 42.2979 552.258 42.3795 552.576 42.3795C552.887 42.3795 553.127 42.3173 553.298 42.1931C553.477 42.0689 553.566 41.9098 553.566 41.7157C553.566 41.5061 553.457 41.3509 553.24 41.2499C553.03 41.1413 552.693 41.0248 552.227 40.9006C551.745 40.7842 551.35 40.6638 551.039 40.5396C550.736 40.4154 550.472 40.2252 550.247 39.9691C550.03 39.7129 549.921 39.3674 549.921 38.9327C549.921 38.5756 550.022 38.2496 550.224 37.9546C550.434 37.6596 550.729 37.4267 551.109 37.2559C551.497 37.0851 551.951 36.9997 552.471 36.9997C553.24 36.9997 553.853 37.1938 554.311 37.5819C554.769 37.9623 555.021 38.4786 555.068 39.1307H553.508C553.484 38.8745 553.376 38.6726 553.182 38.5251C552.995 38.3699 552.743 38.2923 552.425 38.2923C552.13 38.2923 551.901 38.3466 551.738 38.4553C551.582 38.564 551.505 38.7153 551.505 38.9094C551.505 39.1268 551.613 39.2937 551.831 39.4101C552.048 39.5188 552.386 39.6314 552.844 39.7478C553.31 39.8643 553.694 39.9846 553.997 40.1088C554.299 40.233 554.56 40.4271 554.777 40.691C555.002 40.9472 555.118 41.2888 555.126 41.7157C555.126 42.0883 555.021 42.4221 554.812 42.7171C554.61 43.0121 554.315 43.245 553.927 43.4158C553.546 43.5788 553.1 43.6603 552.588 43.6603Z" fill="#EBEBF5"/>
<path d="M615.822 35.8722V37.188H612.434V39.2724H615.03V40.5649H612.434V44H610.803V35.8722H615.822ZM618.608 35.3831V44H616.978V35.3831H618.608ZM626.309 37.549V44H624.667V43.1849C624.458 43.4644 624.182 43.6856 623.841 43.8486C623.507 44.0039 623.142 44.0815 622.746 44.0815C622.241 44.0815 621.795 43.9767 621.407 43.7671C621.019 43.5497 620.712 43.2353 620.487 42.8239C620.27 42.4047 620.161 41.9079 620.161 41.3334V37.549H621.791V41.1005C621.791 41.6129 621.919 42.0088 622.175 42.2883C622.432 42.56 622.781 42.6958 623.223 42.6958C623.674 42.6958 624.027 42.56 624.283 42.2883C624.539 42.0088 624.667 41.6129 624.667 41.1005V37.549H626.309ZM631.481 44L630.153 41.9972L628.977 44H627.231L629.338 40.7628L627.207 37.549H629.047L630.363 39.5402L631.551 37.549H633.297L631.178 40.7628L633.321 44H631.481ZM637.071 44.1048C636.45 44.1048 635.891 43.9689 635.394 43.6972C634.897 43.4178 634.505 43.0257 634.218 42.5212C633.938 42.0166 633.799 41.4343 633.799 40.7745C633.799 40.1146 633.942 39.5324 634.229 39.0278C634.524 38.5232 634.924 38.1351 635.429 37.8634C635.933 37.5839 636.496 37.4442 637.117 37.4442C637.738 37.4442 638.301 37.5839 638.806 37.8634C639.31 38.1351 639.706 38.5232 639.993 39.0278C640.288 39.5324 640.436 40.1146 640.436 40.7745C640.436 41.4343 640.284 42.0166 639.982 42.5212C639.687 43.0257 639.283 43.4178 638.771 43.6972C638.266 43.9689 637.699 44.1048 637.071 44.1048ZM637.071 42.6842C637.366 42.6842 637.641 42.6143 637.897 42.4746C638.161 42.3271 638.371 42.1097 638.526 41.8225C638.681 41.5353 638.759 41.1859 638.759 40.7745C638.759 40.1612 638.596 39.6916 638.27 39.3655C637.952 39.0317 637.56 38.8648 637.094 38.8648C636.628 38.8648 636.236 39.0317 635.918 39.3655C635.607 39.6916 635.452 40.1612 635.452 40.7745C635.452 41.3878 635.603 41.8613 635.906 42.1951C636.217 42.5212 636.605 42.6842 637.071 42.6842ZM643.987 40.7512C643.987 40.0991 644.115 39.5208 644.371 39.0162C644.635 38.5116 644.992 38.1234 645.443 37.8517C645.893 37.58 646.394 37.4442 646.945 37.4442C647.364 37.4442 647.764 37.5373 648.144 37.7236C648.525 37.9022 648.827 38.1428 649.052 38.4456V35.3831H650.706V44H649.052V43.0452C648.851 43.3634 648.567 43.6196 648.202 43.8137C647.838 44.0078 647.414 44.1048 646.933 44.1048C646.39 44.1048 645.893 43.9651 645.443 43.6856C644.992 43.4061 644.635 43.0141 644.371 42.5095C644.115 41.9972 643.987 41.4111 643.987 40.7512ZM649.064 40.7745C649.064 40.3786 648.986 40.0409 648.831 39.7614C648.676 39.4742 648.466 39.2568 648.202 39.1093C647.938 38.9541 647.655 38.8764 647.352 38.8764C647.05 38.8764 646.77 38.9502 646.514 39.0977C646.258 39.2452 646.048 39.4625 645.885 39.7498C645.73 40.0292 645.652 40.3631 645.652 40.7512C645.652 41.1393 645.73 41.4809 645.885 41.7759C646.048 42.0631 646.258 42.2844 646.514 42.4396C646.778 42.5949 647.057 42.6725 647.352 42.6725C647.655 42.6725 647.938 42.5988 648.202 42.4513C648.466 42.296 648.676 42.0787 648.831 41.7992C648.986 41.512 649.064 41.1704 649.064 40.7745ZM658.295 40.6348C658.295 40.8676 658.28 41.0772 658.248 41.2636H653.532C653.571 41.7293 653.734 42.0942 654.022 42.3581C654.309 42.6221 654.662 42.754 655.081 42.754C655.687 42.754 656.118 42.494 656.374 41.9739H658.132C657.946 42.5949 657.589 43.1073 657.061 43.5109C656.533 43.9068 655.885 44.1048 655.116 44.1048C654.495 44.1048 653.936 43.9689 653.439 43.6972C652.95 43.4178 652.566 43.0257 652.287 42.5212C652.015 42.0166 651.879 41.4343 651.879 40.7745C651.879 40.1069 652.015 39.5208 652.287 39.0162C652.558 38.5116 652.939 38.1234 653.428 37.8517C653.917 37.58 654.48 37.4442 655.116 37.4442C655.729 37.4442 656.277 37.5761 656.758 37.8401C657.247 38.104 657.624 38.4805 657.888 38.9696C658.159 39.4509 658.295 40.006 658.295 40.6348ZM656.607 40.169C656.599 39.7498 656.447 39.416 656.152 39.1676C655.857 38.9114 655.497 38.7833 655.07 38.7833C654.666 38.7833 654.324 38.9075 654.045 39.1559C653.773 39.3966 653.606 39.7343 653.544 40.169H656.607ZM661.864 39.9244C661.864 39.1249 662.042 38.4107 662.399 37.7819C662.764 37.1453 663.257 36.6524 663.878 36.303C664.507 35.9459 665.21 35.7674 665.986 35.7674C666.894 35.7674 667.69 36.0003 668.373 36.466C669.056 36.9318 669.534 37.5761 669.805 38.399H667.93C667.744 38.0109 667.48 37.7198 667.139 37.5257C666.805 37.3316 666.417 37.2346 665.974 37.2346C665.501 37.2346 665.078 37.3471 664.705 37.5723C664.34 37.7896 664.053 38.1001 663.843 38.5038C663.641 38.9075 663.541 39.381 663.541 39.9244C663.541 40.4601 663.641 40.9336 663.843 41.3451C664.053 41.7487 664.34 42.0631 664.705 42.2883C665.078 42.5056 665.501 42.6143 665.974 42.6143C666.417 42.6143 666.805 42.5173 667.139 42.3232C667.48 42.1214 667.744 41.8264 667.93 41.4382H669.805C669.534 42.2689 669.056 42.9171 668.373 43.3828C667.698 43.8409 666.902 44.0699 665.986 44.0699C665.21 44.0699 664.507 43.8952 663.878 43.5459C663.257 43.1888 662.764 42.6958 662.399 42.067C662.042 41.4382 661.864 40.724 661.864 39.9244ZM670.778 40.7512C670.778 40.0991 670.907 39.5208 671.163 39.0162C671.427 38.5116 671.78 38.1234 672.222 37.8517C672.673 37.58 673.173 37.4442 673.724 37.4442C674.206 37.4442 674.625 37.5412 674.982 37.7353C675.347 37.9294 675.638 38.1739 675.855 38.4689V37.549H677.497V44H675.855V43.0568C675.646 43.3596 675.355 43.6119 674.982 43.8137C674.617 44.0078 674.194 44.1048 673.713 44.1048C673.169 44.1048 672.673 43.9651 672.222 43.6856C671.78 43.4061 671.427 43.0141 671.163 42.5095C670.907 41.9972 670.778 41.4111 670.778 40.7512ZM675.855 40.7745C675.855 40.3786 675.778 40.0409 675.623 39.7614C675.467 39.4742 675.258 39.2568 674.994 39.1093C674.73 38.9541 674.446 38.8764 674.144 38.8764C673.841 38.8764 673.561 38.9502 673.305 39.0977C673.049 39.2452 672.84 39.4625 672.676 39.7498C672.521 40.0292 672.444 40.3631 672.444 40.7512C672.444 41.1393 672.521 41.4809 672.676 41.7759C672.84 42.0631 673.049 42.2844 673.305 42.4396C673.569 42.5949 673.849 42.6725 674.144 42.6725C674.446 42.6725 674.73 42.5988 674.994 42.4513C675.258 42.296 675.467 42.0787 675.623 41.7992C675.778 41.512 675.855 41.1704 675.855 40.7745ZM679.916 36.7804C679.629 36.7804 679.388 36.6912 679.194 36.5126C679.008 36.3263 678.915 36.0973 678.915 35.8256C678.915 35.5539 679.008 35.3288 679.194 35.1502C679.388 34.9639 679.629 34.8708 679.916 34.8708C680.203 34.8708 680.44 34.9639 680.627 35.1502C680.821 35.3288 680.918 35.5539 680.918 35.8256C680.918 36.0973 680.821 36.3263 680.627 36.5126C680.44 36.6912 680.203 36.7804 679.916 36.7804ZM680.72 37.549V44H679.089V37.549H680.72ZM685.894 44L684.566 41.9972L683.39 44H681.643L683.751 40.7628L681.62 37.549H683.46L684.776 39.5402L685.963 37.549H687.71L685.591 40.7628L687.733 44H685.894ZM688.2 40.7512C688.2 40.0991 688.328 39.5208 688.584 39.0162C688.848 38.5116 689.201 38.1234 689.644 37.8517C690.094 37.58 690.595 37.4442 691.146 37.4442C691.627 37.4442 692.046 37.5412 692.403 37.7353C692.768 37.9294 693.059 38.1739 693.277 38.4689V37.549H694.918V44H693.277V43.0568C693.067 43.3596 692.776 43.6119 692.403 43.8137C692.038 44.0078 691.615 44.1048 691.134 44.1048C690.591 44.1048 690.094 43.9651 689.644 43.6856C689.201 43.4061 688.848 43.0141 688.584 42.5095C688.328 41.9972 688.2 41.4111 688.2 40.7512ZM693.277 40.7745C693.277 40.3786 693.199 40.0409 693.044 39.7614C692.888 39.4742 692.679 39.2568 692.415 39.1093C692.151 38.9541 691.868 38.8764 691.565 38.8764C691.262 38.8764 690.983 38.9502 690.726 39.0977C690.47 39.2452 690.261 39.4625 690.098 39.7498C689.942 40.0292 689.865 40.3631 689.865 40.7512C689.865 41.1393 689.942 41.4809 690.098 41.7759C690.261 42.0631 690.47 42.2844 690.726 42.4396C690.99 42.5949 691.27 42.6725 691.565 42.6725C691.868 42.6725 692.151 42.5988 692.415 42.4513C692.679 42.296 692.888 42.0787 693.044 41.7992C693.199 41.512 693.277 41.1704 693.277 40.7745Z" fill="#EBEBF5" fill-opacity="0.6"/>
<rect x="484" y="68.2222" width="25.4722" height="1.45556" rx="0.727778" fill="#31ECFF"/>
<g clip-path="url(#clip3_586_28)">
<path d="M56.4746 268H36.8001C34.7627 268 33.1111 269.652 33.1111 271.689V291.364C33.1111 293.401 34.7627 295.053 36.8001 295.053H56.4746C58.512 295.053 60.1636 293.401 60.1636 291.364V271.689C60.1636 269.652 58.512 268 56.4746 268Z" fill="#0077B5"/>
<path d="M42.856 275.378C42.856 275.834 42.7208 276.28 42.4674 276.659C42.2141 277.038 41.854 277.334 41.4327 277.508C41.0114 277.683 40.5478 277.728 40.1006 277.639C39.6533 277.55 39.2425 277.331 38.9201 277.008C38.5976 276.686 38.378 276.275 38.2891 275.828C38.2001 275.381 38.2457 274.917 38.4203 274.496C38.5948 274.074 38.8903 273.714 39.2694 273.461C39.6486 273.208 40.0944 273.072 40.5504 273.072C41.1619 273.072 41.7483 273.315 42.1807 273.748C42.6131 274.18 42.856 274.767 42.856 275.378Z" fill="white"/>
<path d="M42.3333 279.221V289.407C42.3337 289.482 42.3192 289.557 42.2908 289.626C42.2623 289.696 42.2203 289.759 42.1673 289.812C42.1144 289.866 42.0513 289.908 41.982 289.937C41.9126 289.966 41.8382 289.98 41.763 289.98H39.3329C39.2578 289.981 39.1833 289.966 39.1138 289.937C39.0444 289.909 38.9813 289.867 38.9281 289.813C38.875 289.76 38.8329 289.697 38.8042 289.628C38.7756 289.558 38.7609 289.484 38.7611 289.409V279.221C38.7611 279.069 38.8214 278.924 38.9286 278.817C39.0358 278.709 39.1813 278.649 39.3329 278.649H41.763C41.9144 278.65 42.0594 278.71 42.1663 278.817C42.2732 278.924 42.3333 279.07 42.3333 279.221Z" fill="white"/>
<path d="M55.036 284.524V289.455C55.0362 289.524 55.0227 289.592 54.9964 289.656C54.97 289.72 54.9313 289.778 54.8824 289.827C54.8336 289.876 54.7756 289.915 54.7117 289.941C54.6478 289.967 54.5794 289.981 54.5103 289.98H51.8972C51.8282 289.981 51.7597 289.967 51.6958 289.941C51.632 289.915 51.5739 289.876 51.5251 289.827C51.4762 289.778 51.4375 289.72 51.4112 289.656C51.3848 289.592 51.3714 289.524 51.3716 289.455V284.676C51.3716 283.963 51.5806 281.553 49.5071 281.553C47.9008 281.553 47.5734 283.202 47.5089 283.943V289.455C47.5089 289.593 47.4546 289.725 47.3577 289.824C47.2607 289.922 47.129 289.978 46.9909 289.98H44.467C44.3981 289.98 44.3298 289.967 44.2661 289.94C44.2024 289.914 44.1445 289.875 44.0958 289.826C44.0472 289.778 44.0086 289.72 43.9823 289.656C43.9561 289.592 43.9427 289.524 43.9429 289.455V279.176C43.9427 279.107 43.9561 279.039 43.9823 278.975C44.0086 278.912 44.0472 278.854 44.0958 278.805C44.1445 278.756 44.2024 278.717 44.2661 278.691C44.3298 278.664 44.3981 278.651 44.467 278.651H46.9909C47.1303 278.651 47.264 278.706 47.3626 278.805C47.4612 278.903 47.5166 279.037 47.5166 279.176V280.065C48.113 279.17 48.9968 278.48 50.8828 278.48C55.0605 278.48 55.036 282.381 55.036 284.524Z" fill="white"/>
</g>
<g clip-path="url(#clip4_586_28)">
<rect x="38.576" y="375.807" width="14.8333" height="10.9298" fill="#D9D9D9"/>
<path d="M54.5452 371.955H38.7296C35.6266 371.955 33.1111 374.47 33.1111 377.573V385.479C33.1111 388.582 35.6266 391.098 38.7296 391.098H54.5452C57.6482 391.098 60.1636 388.582 60.1636 385.479V377.573C60.1636 374.47 57.6482 371.955 54.5452 371.955ZM50.7454 381.911L43.348 385.439C43.1508 385.533 42.9232 385.389 42.9232 385.171V377.894C42.9232 377.673 43.1568 377.529 43.3544 377.629L50.7518 381.378C50.9718 381.489 50.968 381.805 50.7454 381.911Z" fill="#F61C0D"/>
</g>
<g clip-path="url(#clip5_586_28)">
<path d="M34.8019 319.846C32.6761 322.06 33.1112 324.412 33.1112 331.557C33.1112 337.49 32.0787 343.438 37.4824 344.839C39.1698 345.274 54.1208 345.274 55.806 344.836C58.0559 344.254 59.8864 342.424 60.1366 339.234C60.1716 338.789 60.1716 324.332 60.1355 323.878C59.8695 320.48 57.7831 318.521 55.0339 318.124C54.4038 318.033 54.2775 318.006 51.0447 318C39.5778 318.006 37.0642 317.494 34.8019 319.846Z" fill="url(#paint0_linear_586_28)"/>
<path d="M46.6351 321.548C42.5423 321.548 38.6557 321.183 37.1712 325.003C36.558 326.58 36.6471 328.629 36.6471 331.563C36.6471 334.138 36.5648 336.558 37.1712 338.123C38.6524 341.945 42.5705 341.579 46.6329 341.579C50.5521 341.579 54.5931 341.988 56.0956 338.123C56.7099 336.529 56.6198 334.511 56.6198 331.563C56.6198 327.651 56.8351 325.125 54.9425 323.228C53.0263 321.307 50.4349 321.548 46.6306 321.548H46.6351ZM45.7401 323.353C54.2775 323.339 55.3641 322.387 54.7644 335.607C54.5514 340.283 51.0007 339.77 46.6362 339.77C38.6783 339.77 38.4495 339.541 38.4495 331.559C38.4495 323.484 39.0807 323.357 45.7401 323.35V323.353ZM51.9667 325.015C51.3051 325.015 50.7685 325.553 50.7685 326.217C50.7685 326.88 51.3051 327.418 51.9667 327.418C52.6284 327.418 53.1649 326.88 53.1649 326.217C53.1649 325.553 52.6284 325.015 51.9667 325.015ZM46.6351 326.42C43.8025 326.42 41.5064 328.723 41.5064 331.563C41.5064 334.404 43.8025 336.706 46.6351 336.706C49.4677 336.706 51.7627 334.404 51.7627 331.563C51.7627 328.723 49.4677 326.42 46.6351 326.42ZM46.6351 328.225C51.0368 328.225 51.0424 334.902 46.6351 334.902C42.2346 334.902 42.2278 328.225 46.6351 328.225Z" fill="white"/>
</g>
<rect x="62.1111" y="243" width="1.45556" height="29.1111" rx="0.727778" transform="rotate(90 62.1111 243)" fill="url(#paint1_linear_586_28)"/>
<rect x="62.1111" y="418" width="1.45556" height="29.1111" rx="0.727778" transform="rotate(90 62.1111 418)" fill="url(#paint2_linear_586_28)"/>
<g filter="url(#filter1_dd_586_28)">
<rect width="249" height="614" transform="translate(1016 70)" fill="#2C2C2E"/>
</g>
</g>
</g>
<rect x="519" y="399" width="477" height="255" rx="13" fill="#363639"/>
<path d="M553.93 431.892C553.93 432.846 553.602 433.641 552.944 434.277C552.297 434.902 551.305 435.214 549.967 435.214H547.763V440H546.266V428.537H549.967C551.261 428.537 552.242 428.849 552.911 429.474C553.591 430.099 553.93 430.905 553.93 431.892ZM549.967 433.981C550.8 433.981 551.414 433.8 551.809 433.438C552.204 433.076 552.401 432.561 552.401 431.892C552.401 430.477 551.59 429.77 549.967 429.77H547.763V433.981H549.967ZM564.014 435.148C564.014 435.433 563.997 435.735 563.965 436.053H556.761C556.816 436.941 557.117 437.637 557.665 438.142C558.225 438.635 558.899 438.882 559.688 438.882C560.335 438.882 560.873 438.734 561.3 438.438C561.739 438.131 562.046 437.725 562.221 437.221H563.833C563.592 438.087 563.109 438.794 562.386 439.342C561.662 439.879 560.763 440.148 559.688 440.148C558.833 440.148 558.066 439.956 557.386 439.572C556.717 439.189 556.191 438.646 555.807 437.944C555.423 437.232 555.231 436.409 555.231 435.477C555.231 434.545 555.418 433.728 555.791 433.027C556.163 432.325 556.684 431.788 557.353 431.415C558.033 431.031 558.811 430.839 559.688 430.839C560.544 430.839 561.3 431.026 561.958 431.398C562.616 431.771 563.12 432.287 563.471 432.944C563.833 433.591 564.014 434.326 564.014 435.148ZM562.468 434.836C562.468 434.266 562.342 433.778 562.09 433.372C561.837 432.955 561.492 432.643 561.053 432.435C560.626 432.215 560.149 432.106 559.623 432.106C558.866 432.106 558.219 432.347 557.682 432.829C557.156 433.312 556.854 433.981 556.777 434.836H562.468ZM565.43 435.461C565.43 434.54 565.617 433.734 565.989 433.043C566.362 432.341 566.872 431.799 567.519 431.415C568.177 431.031 568.911 430.839 569.723 430.839C570.424 430.839 571.077 431.004 571.68 431.333C572.283 431.651 572.743 432.073 573.061 432.599V427.83H574.574V440H573.061V438.306C572.765 438.843 572.327 439.287 571.746 439.638C571.165 439.978 570.485 440.148 569.706 440.148C568.906 440.148 568.177 439.951 567.519 439.556C566.872 439.161 566.362 438.608 565.989 437.895C565.617 437.182 565.43 436.371 565.43 435.461ZM573.061 435.477C573.061 434.797 572.924 434.205 572.65 433.701C572.376 433.197 572.003 432.813 571.532 432.55C571.071 432.276 570.561 432.139 570.002 432.139C569.443 432.139 568.933 432.27 568.473 432.533C568.012 432.796 567.645 433.18 567.371 433.685C567.097 434.189 566.96 434.781 566.96 435.461C566.96 436.152 567.097 436.755 567.371 437.27C567.645 437.774 568.012 438.163 568.473 438.438C568.933 438.701 569.443 438.832 570.002 438.832C570.561 438.832 571.071 438.701 571.532 438.438C572.003 438.163 572.376 437.774 572.65 437.27C572.924 436.755 573.061 436.157 573.061 435.477ZM577.877 429.524C577.592 429.524 577.35 429.425 577.153 429.228C576.956 429.03 576.857 428.789 576.857 428.504C576.857 428.219 576.956 427.978 577.153 427.78C577.35 427.583 577.592 427.484 577.877 427.484C578.151 427.484 578.381 427.583 578.567 427.78C578.765 427.978 578.863 428.219 578.863 428.504C578.863 428.789 578.765 429.03 578.567 429.228C578.381 429.425 578.151 429.524 577.877 429.524ZM578.6 430.987V440H577.104V430.987H578.6ZM580.592 435.461C580.592 434.54 580.778 433.734 581.151 433.043C581.524 432.341 582.034 431.799 582.681 431.415C583.338 431.031 584.073 430.839 584.884 430.839C585.586 430.839 586.238 431.004 586.842 431.333C587.445 431.651 587.905 432.073 588.223 432.599V427.83H589.736V440H588.223V438.306C587.927 438.843 587.488 439.287 586.907 439.638C586.326 439.978 585.646 440.148 584.868 440.148C584.068 440.148 583.338 439.951 582.681 439.556C582.034 439.161 581.524 438.608 581.151 437.895C580.778 437.182 580.592 436.371 580.592 435.461ZM588.223 435.477C588.223 434.797 588.086 434.205 587.812 433.701C587.538 433.197 587.165 432.813 586.693 432.55C586.233 432.276 585.723 432.139 585.164 432.139C584.605 432.139 584.095 432.27 583.634 432.533C583.174 432.796 582.807 433.18 582.533 433.685C582.258 434.189 582.121 434.781 582.121 435.461C582.121 436.152 582.258 436.755 582.533 437.27C582.807 437.774 583.174 438.163 583.634 438.438C584.095 438.701 584.605 438.832 585.164 438.832C585.723 438.832 586.233 438.701 586.693 438.438C587.165 438.163 587.538 437.774 587.812 437.27C588.086 436.755 588.223 436.157 588.223 435.477ZM596.196 440.148C595.352 440.148 594.584 439.956 593.893 439.572C593.214 439.189 592.676 438.646 592.282 437.944C591.898 437.232 591.706 436.409 591.706 435.477C591.706 434.556 591.903 433.745 592.298 433.043C592.704 432.33 593.252 431.788 593.943 431.415C594.634 431.031 595.407 430.839 596.262 430.839C597.117 430.839 597.89 431.031 598.581 431.415C599.271 431.788 599.814 432.325 600.209 433.027C600.615 433.728 600.817 434.545 600.817 435.477C600.817 436.409 600.609 437.232 600.192 437.944C599.787 438.646 599.233 439.189 598.531 439.572C597.83 439.956 597.051 440.148 596.196 440.148ZM596.196 438.832C596.733 438.832 597.238 438.706 597.709 438.454C598.181 438.202 598.559 437.824 598.844 437.319C599.14 436.815 599.288 436.201 599.288 435.477C599.288 434.754 599.145 434.14 598.86 433.635C598.575 433.131 598.202 432.758 597.742 432.517C597.281 432.265 596.783 432.139 596.245 432.139C595.697 432.139 595.193 432.265 594.732 432.517C594.283 432.758 593.921 433.131 593.647 433.635C593.373 434.14 593.236 434.754 593.236 435.477C593.236 436.212 593.367 436.831 593.63 437.336C593.904 437.84 594.266 438.218 594.716 438.47C595.165 438.712 595.659 438.832 596.196 438.832ZM605.976 440.148C605.285 440.148 604.666 440.033 604.117 439.803C603.569 439.561 603.136 439.232 602.818 438.816C602.5 438.388 602.325 437.9 602.292 437.352H603.838C603.882 437.802 604.09 438.169 604.463 438.454C604.847 438.739 605.345 438.882 605.959 438.882C606.53 438.882 606.979 438.756 607.308 438.503C607.637 438.251 607.801 437.933 607.801 437.549C607.801 437.155 607.626 436.864 607.275 436.678C606.924 436.48 606.382 436.289 605.647 436.102C604.978 435.927 604.43 435.751 604.002 435.576C603.586 435.389 603.224 435.121 602.917 434.77C602.621 434.408 602.473 433.937 602.473 433.356C602.473 432.895 602.61 432.473 602.884 432.089C603.158 431.705 603.547 431.404 604.052 431.185C604.556 430.954 605.132 430.839 605.779 430.839C606.776 430.839 607.582 431.091 608.196 431.596C608.81 432.1 609.139 432.791 609.183 433.668H607.686C607.653 433.197 607.462 432.818 607.111 432.533C606.771 432.248 606.31 432.106 605.729 432.106C605.192 432.106 604.764 432.221 604.446 432.451C604.128 432.681 603.969 432.983 603.969 433.356C603.969 433.652 604.063 433.898 604.249 434.096C604.446 434.282 604.688 434.436 604.973 434.556C605.269 434.666 605.674 434.792 606.19 434.934C606.837 435.11 607.363 435.285 607.769 435.461C608.174 435.625 608.52 435.877 608.805 436.217C609.101 436.557 609.254 437.001 609.265 437.549C609.265 438.043 609.128 438.487 608.854 438.882C608.58 439.276 608.191 439.589 607.686 439.819C607.193 440.038 606.623 440.148 605.976 440.148ZM617.259 429.754V433.586H621.437V434.819H617.259V438.767H621.93V440H615.763V428.52H621.93V429.754H617.259ZM628.898 440L626.76 436.645L624.704 440H623.142L626.053 435.527L623.142 430.987H624.836L626.974 434.326L629.013 430.987H630.576L627.681 435.444L630.592 440H628.898ZM633.89 432.221V437.533C633.89 437.972 633.983 438.284 634.17 438.47C634.356 438.646 634.68 438.734 635.14 438.734H636.242V440H634.893C634.06 440 633.435 439.808 633.018 439.424C632.602 439.041 632.394 438.41 632.394 437.533V432.221H631.226V430.987H632.394V428.718H633.89V430.987H636.242V432.221H633.89ZM639.552 432.451C639.815 431.936 640.188 431.536 640.67 431.25C641.164 430.965 641.761 430.823 642.463 430.823V432.369H642.068C640.391 432.369 639.552 433.279 639.552 435.099V440H638.055V430.987H639.552V432.451ZM643.631 435.461C643.631 434.54 643.818 433.734 644.191 433.043C644.563 432.341 645.073 431.799 645.72 431.415C646.378 431.031 647.107 430.839 647.908 430.839C648.697 430.839 649.382 431.009 649.963 431.349C650.545 431.689 650.978 432.117 651.263 432.632V430.987H652.776V440H651.263V438.322C650.967 438.849 650.523 439.287 649.931 439.638C649.349 439.978 648.67 440.148 647.891 440.148C647.091 440.148 646.367 439.951 645.72 439.556C645.073 439.161 644.563 438.608 644.191 437.895C643.818 437.182 643.631 436.371 643.631 435.461ZM651.263 435.477C651.263 434.797 651.126 434.205 650.852 433.701C650.577 433.197 650.205 432.813 649.733 432.55C649.273 432.276 648.763 432.139 648.204 432.139C647.644 432.139 647.135 432.27 646.674 432.533C646.214 432.796 645.846 433.18 645.572 433.685C645.298 434.189 645.161 434.781 645.161 435.461C645.161 436.152 645.298 436.755 645.572 437.27C645.846 437.774 646.214 438.163 646.674 438.438C647.135 438.701 647.644 438.832 648.204 438.832C648.763 438.832 649.273 438.701 649.733 438.438C650.205 438.163 650.577 437.774 650.852 437.27C651.126 436.755 651.263 436.157 651.263 435.477ZM658.496 440.148C657.805 440.148 657.185 440.033 656.637 439.803C656.089 439.561 655.656 439.232 655.338 438.816C655.02 438.388 654.844 437.9 654.812 437.352H656.357C656.401 437.802 656.61 438.169 656.982 438.454C657.366 438.739 657.865 438.882 658.479 438.882C659.049 438.882 659.499 438.756 659.828 438.503C660.157 438.251 660.321 437.933 660.321 437.549C660.321 437.155 660.146 436.864 659.795 436.678C659.444 436.48 658.901 436.289 658.167 436.102C657.498 435.927 656.95 435.751 656.522 435.576C656.105 435.389 655.743 435.121 655.436 434.77C655.14 434.408 654.992 433.937 654.992 433.356C654.992 432.895 655.129 432.473 655.404 432.089C655.678 431.705 656.067 431.404 656.571 431.185C657.076 430.954 657.651 430.839 658.298 430.839C659.296 430.839 660.102 431.091 660.716 431.596C661.33 432.1 661.659 432.791 661.703 433.668H660.206C660.173 433.197 659.981 432.818 659.63 432.533C659.29 432.248 658.83 432.106 658.249 432.106C657.712 432.106 657.284 432.221 656.966 432.451C656.648 432.681 656.489 432.983 656.489 433.356C656.489 433.652 656.582 433.898 656.769 434.096C656.966 434.282 657.207 434.436 657.492 434.556C657.788 434.666 658.194 434.792 658.709 434.934C659.356 435.11 659.883 435.285 660.288 435.461C660.694 435.625 661.039 435.877 661.324 436.217C661.62 436.557 661.774 437.001 661.785 437.549C661.785 438.043 661.648 438.487 661.374 438.882C661.1 439.276 660.71 439.589 660.206 439.819C659.713 440.038 659.142 440.148 658.496 440.148Z" fill="#EBEBF5" fill-opacity="0.3"/>
<path d="M552.746 537.537V538.754H547.763V542.619H551.809V543.836H547.763V549H546.266V537.537H552.746ZM553.995 544.461C553.995 543.54 554.181 542.734 554.554 542.043C554.927 541.341 555.437 540.799 556.083 540.415C556.741 540.031 557.47 539.839 558.271 539.839C559.06 539.839 559.746 540.009 560.327 540.349C560.908 540.689 561.341 541.117 561.626 541.632V539.987H563.139V549H561.626V547.322C561.33 547.849 560.886 548.287 560.294 548.638C559.713 548.978 559.033 549.148 558.254 549.148C557.454 549.148 556.73 548.951 556.083 548.556C555.437 548.161 554.927 547.608 554.554 546.895C554.181 546.182 553.995 545.371 553.995 544.461ZM561.626 544.477C561.626 543.797 561.489 543.205 561.215 542.701C560.941 542.197 560.568 541.813 560.096 541.55C559.636 541.276 559.126 541.139 558.567 541.139C558.008 541.139 557.498 541.27 557.037 541.533C556.577 541.796 556.21 542.18 555.935 542.685C555.661 543.189 555.524 543.781 555.524 544.461C555.524 545.152 555.661 545.755 555.935 546.27C556.21 546.774 556.577 547.163 557.037 547.438C557.498 547.701 558.008 547.832 558.567 547.832C559.126 547.832 559.636 547.701 560.096 547.438C560.568 547.163 560.941 546.774 561.215 546.27C561.489 545.755 561.626 545.157 561.626 544.477ZM567.494 541.221V546.533C567.494 546.972 567.587 547.284 567.773 547.47C567.96 547.646 568.283 547.734 568.744 547.734H569.846V549H568.497C567.664 549 567.039 548.808 566.622 548.424C566.205 548.041 565.997 547.41 565.997 546.533V541.221H564.829V539.987H565.997V537.718H567.494V539.987H569.846V541.221H567.494ZM579.652 539.987V549H578.155V547.668C577.87 548.128 577.47 548.49 576.955 548.753C576.45 549.005 575.891 549.132 575.277 549.132C574.575 549.132 573.945 548.989 573.386 548.704C572.827 548.408 572.383 547.969 572.054 547.388C571.736 546.807 571.577 546.1 571.577 545.267V539.987H573.057V545.069C573.057 545.957 573.282 546.643 573.731 547.125C574.181 547.597 574.795 547.832 575.573 547.832C576.374 547.832 577.004 547.586 577.465 547.092C577.925 546.599 578.155 545.881 578.155 544.938V539.987H579.652ZM583.676 541.451C583.939 540.936 584.311 540.536 584.794 540.25C585.287 539.965 585.885 539.823 586.587 539.823V541.369H586.192C584.514 541.369 583.676 542.279 583.676 544.099V549H582.179V539.987H583.676V541.451ZM587.755 544.461C587.755 543.54 587.941 542.734 588.314 542.043C588.687 541.341 589.197 540.799 589.844 540.415C590.502 540.031 591.231 539.839 592.031 539.839C592.821 539.839 593.506 540.009 594.087 540.349C594.668 540.689 595.101 541.117 595.386 541.632V539.987H596.899V549H595.386V547.322C595.09 547.849 594.646 548.287 594.054 548.638C593.473 548.978 592.793 549.148 592.015 549.148C591.214 549.148 590.491 548.951 589.844 548.556C589.197 548.161 588.687 547.608 588.314 546.895C587.941 546.182 587.755 545.371 587.755 544.461ZM595.386 544.477C595.386 543.797 595.249 543.205 594.975 542.701C594.701 542.197 594.328 541.813 593.857 541.55C593.396 541.276 592.886 541.139 592.327 541.139C591.768 541.139 591.258 541.27 590.798 541.533C590.337 541.796 589.97 542.18 589.696 542.685C589.422 543.189 589.285 543.781 589.285 544.461C589.285 545.152 589.422 545.755 589.696 546.27C589.97 546.774 590.337 547.163 590.798 547.438C591.258 547.701 591.768 547.832 592.327 547.832C592.886 547.832 593.396 547.701 593.857 547.438C594.328 547.163 594.701 546.774 594.975 546.27C595.249 545.755 595.386 545.157 595.386 544.477ZM610.267 539.823C610.968 539.823 611.593 539.971 612.142 540.267C612.69 540.552 613.123 540.985 613.441 541.566C613.759 542.147 613.918 542.854 613.918 543.688V549H612.438V543.902C612.438 543.003 612.213 542.317 611.763 541.846C611.325 541.363 610.727 541.122 609.971 541.122C609.192 541.122 608.573 541.374 608.112 541.879C607.652 542.372 607.422 543.09 607.422 544.033V549H605.941V543.902C605.941 543.003 605.717 542.317 605.267 541.846C604.828 541.363 604.231 541.122 603.474 541.122C602.696 541.122 602.076 541.374 601.616 541.879C601.155 542.372 600.925 543.09 600.925 544.033V549H599.428V539.987H600.925V541.287C601.221 540.815 601.616 540.453 602.109 540.201C602.614 539.949 603.167 539.823 603.77 539.823C604.527 539.823 605.196 539.993 605.777 540.333C606.358 540.673 606.791 541.171 607.076 541.829C607.328 541.193 607.745 540.7 608.326 540.349C608.907 539.998 609.554 539.823 610.267 539.823ZM624.596 544.148C624.596 544.433 624.58 544.735 624.547 545.053H617.343C617.398 545.941 617.7 546.637 618.248 547.142C618.807 547.635 619.481 547.882 620.271 547.882C620.918 547.882 621.455 547.734 621.882 547.438C622.321 547.131 622.628 546.725 622.804 546.221H624.415C624.174 547.087 623.692 547.794 622.968 548.342C622.244 548.879 621.345 549.148 620.271 549.148C619.416 549.148 618.648 548.956 617.968 548.572C617.299 548.189 616.773 547.646 616.389 546.944C616.006 546.232 615.814 545.409 615.814 544.477C615.814 543.545 616 542.728 616.373 542.027C616.746 541.325 617.267 540.788 617.935 540.415C618.615 540.031 619.394 539.839 620.271 539.839C621.126 539.839 621.882 540.026 622.54 540.398C623.198 540.771 623.703 541.287 624.053 541.944C624.415 542.591 624.596 543.326 624.596 544.148ZM623.05 543.836C623.05 543.266 622.924 542.778 622.672 542.372C622.42 541.955 622.074 541.643 621.636 541.435C621.208 541.215 620.731 541.106 620.205 541.106C619.448 541.106 618.802 541.347 618.264 541.829C617.738 542.312 617.436 542.981 617.36 543.836H623.05ZM630.963 539.823C632.059 539.823 632.947 540.157 633.627 540.826C634.307 541.484 634.647 542.438 634.647 543.688V549H633.167V543.902C633.167 543.003 632.942 542.317 632.492 541.846C632.043 541.363 631.429 541.122 630.65 541.122C629.861 541.122 629.231 541.369 628.759 541.862C628.299 542.356 628.068 543.074 628.068 544.017V549H626.572V539.987H628.068V541.27C628.364 540.81 628.765 540.453 629.269 540.201C629.784 539.949 630.349 539.823 630.963 539.823ZM638.917 541.221V546.533C638.917 546.972 639.01 547.284 639.197 547.47C639.383 547.646 639.707 547.734 640.167 547.734H641.269V549H639.92C639.087 549 638.462 548.808 638.046 548.424C637.629 548.041 637.421 547.41 637.421 546.533V541.221H636.253V539.987H637.421V537.718H638.917V539.987H641.269V541.221H638.917ZM647.013 549.148C646.169 549.148 645.401 548.956 644.711 548.572C644.031 548.189 643.494 547.646 643.099 546.944C642.715 546.232 642.523 545.409 642.523 544.477C642.523 543.556 642.721 542.745 643.115 542.043C643.521 541.33 644.069 540.788 644.76 540.415C645.451 540.031 646.224 539.839 647.079 539.839C647.934 539.839 648.707 540.031 649.398 540.415C650.089 540.788 650.631 541.325 651.026 542.027C651.432 542.728 651.635 543.545 651.635 544.477C651.635 545.409 651.426 546.232 651.01 546.944C650.604 547.646 650.05 548.189 649.349 548.572C648.647 548.956 647.868 549.148 647.013 549.148ZM647.013 547.832C647.55 547.832 648.055 547.706 648.526 547.454C648.998 547.202 649.376 546.824 649.661 546.319C649.957 545.815 650.105 545.201 650.105 544.477C650.105 543.754 649.963 543.14 649.678 542.635C649.392 542.131 649.02 541.758 648.559 541.517C648.099 541.265 647.6 541.139 647.063 541.139C646.514 541.139 646.01 541.265 645.549 541.517C645.1 541.758 644.738 542.131 644.464 542.635C644.19 543.14 644.053 543.754 644.053 544.477C644.053 545.212 644.184 545.831 644.448 546.336C644.722 546.84 645.083 547.218 645.533 547.47C645.983 547.712 646.476 547.832 647.013 547.832ZM659.484 538.754V542.586H663.661V543.819H659.484V547.767H664.155V549H657.987V537.52H664.155V538.754H659.484ZM671.123 549L668.985 545.645L666.929 549H665.367L668.278 544.527L665.367 539.987H667.061L669.199 543.326L671.238 539.987H672.8L669.906 544.444L672.817 549H671.123ZM676.115 541.221V546.533C676.115 546.972 676.208 547.284 676.394 547.47C676.581 547.646 676.904 547.734 677.365 547.734H678.467V549H677.118C676.285 549 675.66 548.808 675.243 548.424C674.826 548.041 674.618 547.41 674.618 546.533V541.221H673.45V539.987H674.618V537.718H676.115V539.987H678.467V541.221H676.115ZM681.777 541.451C682.04 540.936 682.412 540.536 682.895 540.25C683.388 539.965 683.986 539.823 684.688 539.823V541.369H684.293C682.615 541.369 681.777 542.279 681.777 544.099V549H680.28V539.987H681.777V541.451ZM685.856 544.461C685.856 543.54 686.042 542.734 686.415 542.043C686.788 541.341 687.298 540.799 687.945 540.415C688.603 540.031 689.332 539.839 690.132 539.839C690.922 539.839 691.607 540.009 692.188 540.349C692.769 540.689 693.202 541.117 693.487 541.632V539.987H695V549H693.487V547.322C693.191 547.849 692.747 548.287 692.155 548.638C691.574 548.978 690.894 549.148 690.116 549.148C689.315 549.148 688.592 548.951 687.945 548.556C687.298 548.161 686.788 547.608 686.415 546.895C686.042 546.182 685.856 545.371 685.856 544.461ZM693.487 544.477C693.487 543.797 693.35 543.205 693.076 542.701C692.802 542.197 692.429 541.813 691.958 541.55C691.497 541.276 690.987 541.139 690.428 541.139C689.869 541.139 689.359 541.27 688.899 541.533C688.438 541.796 688.071 542.18 687.797 542.685C687.523 543.189 687.386 543.781 687.386 544.461C687.386 545.152 687.523 545.755 687.797 546.27C688.071 546.774 688.438 547.163 688.899 547.438C689.359 547.701 689.869 547.832 690.428 547.832C690.987 547.832 691.497 547.701 691.958 547.438C692.429 547.163 692.802 546.774 693.076 546.27C693.35 545.755 693.487 545.157 693.487 544.477Z" fill="#EBEBF5" fill-opacity="0.3"/>
<path d="M794 416L794 637" stroke="#48474E" stroke-width="1.17475"/>
</g>
<defs>
<filter id="filter0_dd_586_28" x="-55.7778" y="-33.6667" width="1393.56" height="819.556" filterUnits="userSpaceOnUse" color-interpolation-filters="sRGB">
<feFlood flood-opacity="0" result="BackgroundImageFix"/>
<feColorMatrix in="SourceAlpha" type="matrix" values="0 0 0 0 0 0 0 0 0 0 0 0 0 0 0 0 0 0 127 0" result="hardAlpha"/>
<feOffset dy="29.1111"/>
<feGaussianBlur stdDeviation="36.3889"/>
<feColorMatrix type="matrix" values="0 0 0 0 0.192157 0 0 0 0 0.92549 0 0 0 0 1 0 0 0 0.01 0"/>
<feBlend mode="multiply" in2="BackgroundImageFix" result="effect1_dropShadow_586_28"/>
<feColorMatrix in="SourceAlpha" type="matrix" values="0 0 0 0 0 0 0 0 0 0 0 0 0 0 0 0 0 0 127 0" result="hardAlpha"/>
<feOffset dy="17.4667"/>
<feGaussianBlur stdDeviation="8.73333"/>
<feColorMatrix type="matrix" values="0 0 0 0 0.192157 0 0 0 0 0.92549 0 0 0 0 1 0 0 0 0.21 0"/>
<feBlend mode="multiply" in2="effect1_dropShadow_586_28" result="effect2_dropShadow_586_28"/>
<feBlend mode="normal" in="SourceGraphic" in2="effect2_dropShadow_586_28" result="shape"/>
</filter>
<filter id="filter1_dd_586_28" x="997.204" y="60.602" width="286.592" height="651.592" filterUnits="userSpaceOnUse" color-interpolation-filters="sRGB">
<feFlood flood-opacity="0" result="BackgroundImageFix"/>
<feColorMatrix in="SourceAlpha" type="matrix" values="0 0 0 0 0 0 0 0 0 0 0 0 0 0 0 0 0 0 127 0" result="hardAlpha"/>
<feOffset dy="9.39801"/>
<feGaussianBlur stdDeviation="9.39801"/>
<feColorMatrix type="matrix" values="0 0 0 0 0.196487 0 0 0 0 0.196487 0 0 0 0 0.279476 0 0 0 0.06 0"/>
<feBlend mode="multiply" in2="BackgroundImageFix" result="effect1_dropShadow_586_28"/>
<feColorMatrix in="SourceAlpha" type="matrix" values="0 0 0 0 0 0 0 0 0 0 0 0 0 0 0 0 0 0 127 0" result="hardAlpha"/>
<feOffset dy="9.39801"/>
<feGaussianBlur stdDeviation="4.69901"/>
<feColorMatrix type="matrix" values="0 0 0 0 0.196487 0 0 0 0 0.196487 0 0 0 0 0.279476 0 0 0 0.08 0"/>
<feBlend mode="multiply" in2="effect1_dropShadow_586_28" result="effect2_dropShadow_586_28"/>
<feBlend mode="normal" in="SourceGraphic" in2="effect2_dropShadow_586_28" result="shape"/>
</filter>
<linearGradient id="paint0_linear_586_28" x1="34.8538" y1="343.392" x2="60.0535" y2="321.64" gradientUnits="userSpaceOnUse">
<stop stop-color="#FFDD55"/>
<stop offset="0.5" stop-color="#FF543E"/>
<stop offset="1" stop-color="#C837AB"/>
</linearGradient>
<linearGradient id="paint1_linear_586_28" x1="62.8389" y1="243" x2="62.8389" y2="272.111" gradientUnits="userSpaceOnUse">
<stop stop-color="#2C2C2E" stop-opacity="0"/>
<stop offset="0.514425" stop-color="#545458" stop-opacity="0.65"/>
<stop offset="1" stop-color="#2C2C2E" stop-opacity="0"/>
</linearGradient>
<linearGradient id="paint2_linear_586_28" x1="62.8389" y1="418" x2="62.8389" y2="447.111" gradientUnits="userSpaceOnUse">
<stop stop-color="#2C2C2E" stop-opacity="0"/>
<stop offset="0.514425" stop-color="#545458" stop-opacity="0.65"/>
<stop offset="1" stop-color="#2C2C2E" stop-opacity="0"/>
</linearGradient>
<clipPath id="clip0_586_28">
<rect width="1280" height="720" fill="white"/>
</clipPath>
<clipPath id="clip1_586_28">
<rect x="17" y="10" width="1248" height="674" rx="29.1111" fill="white"/>
</clipPath>
<clipPath id="clip2_586_28">
<rect width="250" height="20" fill="white" transform="translate(102 89)"/>
</clipPath>
<clipPath id="clip3_586_28">
<rect width="27.0525" height="27.0525" fill="white" transform="translate(33.1111 268)"/>
</clipPath>
<clipPath id="clip4_586_28">
<rect width="27.0525" height="27.0525" fill="white" transform="translate(33.1111 368)"/>
</clipPath>
<clipPath id="clip5_586_28">
<rect width="27.0525" height="27.1245" fill="white" transform="translate(33.1111 318)"/>
</clipPath>
</defs>
</svg>
