<svg width="1280" height="720" viewBox="0 0 1280 720" fill="none" xmlns="http://www.w3.org/2000/svg">
<g clip-path="url(#clip0_594_1188)">
<g filter="url(#filter0_dd_594_1188)">
<g clip-path="url(#clip1_594_1188)">
<rect x="17" y="10" width="1248" height="674" rx="29.1111" fill="#1C1C1E"/>
<rect width="58.2222" height="674" transform="translate(17 10)" fill="#2C2C2E"/>
<rect width="1188" height="58" transform="translate(77 10)" fill="#2C2C2E"/>
<path d="M147.374 48.222C146.835 48.222 146.338 48.0873 145.885 47.8179C145.445 47.5484 145.091 47.194 144.821 46.7544C144.552 46.3006 144.417 45.8044 144.417 45.2655V35.8646C144.417 35.3257 144.552 34.8365 144.821 34.397C145.091 33.9432 145.445 33.5817 145.885 33.3123C146.338 33.0428 146.835 32.9081 147.374 32.9081H159.688V35.7369H147.969C147.742 35.7369 147.558 35.8008 147.416 35.9284C147.288 36.056 147.225 36.2403 147.225 36.4814V44.6487C147.225 44.8756 147.288 45.0599 147.416 45.2017C147.558 45.3294 147.742 45.3932 147.969 45.3932H159.688V48.222H147.374Z" fill="white"/>
<path d="M164.033 48.222C163.494 48.222 162.998 48.0873 162.544 47.8179C162.105 47.5484 161.75 47.194 161.481 46.7544C161.225 46.3148 161.098 45.8256 161.098 45.2868V35.8858H163.884V45.1805C163.884 45.2514 163.905 45.3152 163.948 45.3719C164.005 45.4144 164.068 45.4357 164.139 45.4357H170.584C170.655 45.4357 170.712 45.4144 170.754 45.3719C170.811 45.3152 170.839 45.2514 170.839 45.1805V35.8858H173.625V45.2868C173.625 45.8256 173.491 46.3148 173.221 46.7544C172.966 47.194 172.619 47.5484 172.179 47.8179C171.74 48.0873 171.243 48.222 170.69 48.222H164.033Z" fill="white"/>
<path d="M174.686 48.222V31.8447H177.472V35.8858H184.278C184.817 35.8858 185.306 36.0205 185.746 36.2899C186.199 36.5594 186.554 36.9138 186.809 37.3534C187.079 37.793 187.213 38.2822 187.213 38.821V45.2868C187.213 45.8256 187.079 46.3148 186.809 46.7544C186.554 47.194 186.199 47.5484 185.746 47.8179C185.306 48.0873 184.817 48.222 184.278 48.222H174.686ZM177.727 45.4357H184.172C184.243 45.4357 184.299 45.4144 184.342 45.3719C184.399 45.3152 184.427 45.2514 184.427 45.1805V38.9273C184.427 38.8564 184.399 38.7997 184.342 38.7572C184.299 38.7005 184.243 38.6721 184.172 38.6721H177.727C177.656 38.6721 177.592 38.7005 177.536 38.7572C177.493 38.7997 177.472 38.8564 177.472 38.9273V45.1805C177.472 45.2514 177.493 45.3152 177.536 45.3719C177.592 45.4144 177.656 45.4357 177.727 45.4357Z" fill="white"/>
<path d="M190.999 48.222C190.46 48.222 189.971 48.0873 189.531 47.8179C189.092 47.5484 188.737 47.194 188.468 46.7544C188.199 46.3148 188.064 45.8256 188.064 45.2868V38.821C188.064 38.2822 188.199 37.793 188.468 37.3534C188.737 36.9138 189.092 36.5594 189.531 36.2899C189.971 36.0205 190.46 35.8858 190.999 35.8858H197.656C198.195 35.8858 198.684 36.0205 199.124 36.2899C199.578 36.5594 199.932 36.9138 200.187 37.3534C200.457 37.793 200.591 38.2822 200.591 38.821V45.2868C200.591 45.8256 200.457 46.3148 200.187 46.7544C199.932 47.194 199.585 47.5484 199.145 47.8179C198.706 48.0873 198.209 48.222 197.656 48.222H190.999ZM191.105 45.4357H197.55C197.621 45.4357 197.678 45.4144 197.72 45.3719C197.777 45.3152 197.805 45.2514 197.805 45.1805V38.9273C197.805 38.8564 197.777 38.7997 197.72 38.7572C197.678 38.7005 197.621 38.6721 197.55 38.6721H191.105C191.034 38.6721 190.971 38.7005 190.914 38.7572C190.871 38.7997 190.85 38.8564 190.85 38.9273V45.1805C190.85 45.2514 190.871 45.3152 190.914 45.3719C190.971 45.4144 191.034 45.4357 191.105 45.4357Z" fill="white"/>
<path d="M213.125 48.2223V34.6313H206.318V32.9085H221.632V34.6313H214.847V48.2223H213.125Z" fill="#31ECFF"/>
<path d="M222.393 48.2223V38.4598C222.393 37.9918 222.507 37.5664 222.734 37.1836C222.975 36.7866 223.287 36.4746 223.67 36.2478C224.067 36.0067 224.499 35.8862 224.967 35.8862H231.901V37.6303H224.967C224.74 37.6303 224.542 37.7153 224.372 37.8855C224.216 38.0415 224.138 38.2329 224.138 38.4598V48.2223H222.393Z" fill="#31ECFF"/>
<path d="M235.085 48.2223C234.617 48.2223 234.185 48.1089 233.788 47.882C233.405 47.641 233.093 47.329 232.852 46.9462C232.625 46.5491 232.512 46.1167 232.512 45.6487V38.4598C232.512 37.9918 232.625 37.5664 232.852 37.1836C233.093 36.7866 233.405 36.4746 233.788 36.2478C234.185 36.0067 234.617 35.8862 235.085 35.8862H242.487C242.969 35.8862 243.401 36.0067 243.784 36.2478C244.181 36.4746 244.493 36.7866 244.72 37.1836C244.961 37.5664 245.082 37.9918 245.082 38.4598V42.9263H234.256V45.6487C234.256 45.8756 234.334 46.0741 234.49 46.2443C234.66 46.4003 234.858 46.4782 235.085 46.4782H245.082V48.2223H235.085ZM234.256 41.1822H243.316V38.4598C243.316 38.2329 243.231 38.0415 243.061 37.8855C242.905 37.7153 242.714 37.6303 242.487 37.6303H235.085C234.858 37.6303 234.66 37.7153 234.49 37.8855C234.334 38.0415 234.256 38.2329 234.256 38.4598V41.1822ZM236.255 34.6313L237.948 32.9085H239.628L241.381 34.6313H240.062L238.799 33.5891L237.552 34.6313H236.255Z" fill="#31ECFF"/>
<path d="M249.003 48.2223C248.535 48.2223 248.103 48.1089 247.706 47.882C247.323 47.641 247.011 47.329 246.77 46.9462C246.543 46.5491 246.43 46.1167 246.43 45.6487V45.4786H248.174V45.6487C248.174 45.8756 248.252 46.0741 248.408 46.2443C248.578 46.4003 248.777 46.4782 249.003 46.4782H256.405C256.632 46.4782 256.823 46.4003 256.979 46.2443C257.15 46.0741 257.235 45.8756 257.235 45.6487V43.7558C257.235 43.5289 257.15 43.3375 256.979 43.1815C256.823 43.0114 256.632 42.9263 256.405 42.9263H249.003C248.535 42.9263 248.103 42.8128 247.706 42.586C247.323 42.3449 247.011 42.033 246.77 41.6501C246.543 41.2531 246.43 40.8206 246.43 40.3527V38.4598C246.43 37.9918 246.543 37.5664 246.77 37.1836C247.011 36.7866 247.323 36.4746 247.706 36.2478C248.103 36.0067 248.535 35.8862 249.003 35.8862H256.405C256.887 35.8862 257.32 36.0067 257.702 36.2478C258.1 36.4746 258.411 36.7866 258.638 37.1836C258.879 37.5664 259 37.9918 259 38.4598V38.6299H257.235V38.4598C257.235 38.2329 257.15 38.0415 256.979 37.8855C256.823 37.7153 256.632 37.6303 256.405 37.6303H249.003C248.777 37.6303 248.578 37.7153 248.408 37.8855C248.252 38.0415 248.174 38.2329 248.174 38.4598V40.3527C248.174 40.5796 248.252 40.7781 248.408 40.9482C248.578 41.1042 248.777 41.1822 249.003 41.1822H256.405C256.887 41.1822 257.32 41.3027 257.702 41.5438C258.1 41.7707 258.411 42.0826 258.638 42.4796C258.879 42.8625 259 43.2879 259 43.7558V45.6487C259 46.1167 258.879 46.5491 258.638 46.9462C258.411 47.329 258.1 47.641 257.702 47.882C257.32 48.1089 256.887 48.2223 256.405 48.2223H249.003Z" fill="#31ECFF"/>
<path d="M114.053 48.8496H105.873L101.111 41.0673H109.585L114.053 48.8496Z" fill="white"/>
<path d="M129.702 57.3735H119.619C118.243 54.9769 115.946 50.9519 114.742 48.8496H114.73L110.262 41.0673H120.383C123.265 46.239 126.725 52.198 129.702 57.3735Z" fill="#31ECFF"/>
<path d="M125.383 31.58C123.663 34.5614 121.935 37.5543 120.334 40.3256H101.008C101.168 39.9815 104.043 33.7396 105.044 31.58H125.383Z" fill="#31ECFF"/>
<path d="M129.756 24.0118C128.471 26.2326 127.103 28.6025 125.723 30.9915H116.5C117.513 29.2332 120.456 24.138 120.525 24.0118H129.756Z" fill="white"/>
<path d="M134.839 49.2624L130.36 57.0218C129.228 55.0533 127.707 52.4159 126.151 49.7173L130.681 41.9961L134.839 49.2624Z" fill="white"/>
<path d="M135.371 32.7269C134.82 33.6825 127.856 45.6541 125.815 49.1363C124.041 46.0593 122.253 42.9594 120.964 40.7195C123.548 36.2358 127.799 28.8931 130.497 24.2069C130.937 24.9752 134.152 30.6055 135.371 32.7269Z" fill="#31ECFF"/>
<rect width="937" height="198" transform="translate(77 70)" fill="#2C2C2E"/>
<g clip-path="url(#clip2_594_1188)">
<path d="M102.999 105V96.2642H106.094C109.197 96.2642 110.748 97.6836 110.748 100.522C110.748 101.883 110.324 102.969 109.475 103.782C108.63 104.594 107.503 105 106.094 105H102.999ZM104.967 97.8664V103.404H105.941C106.794 103.404 107.462 103.148 107.946 102.636C108.433 102.125 108.677 101.428 108.677 100.547C108.677 99.7143 108.435 99.0604 107.952 98.5852C107.473 98.106 106.798 97.8664 105.929 97.8664H104.967ZM119.685 105H117.54L116.919 103.057H113.812L113.197 105H111.065L114.245 96.2642H116.578L119.685 105ZM116.468 101.546L115.53 98.6096C115.461 98.3903 115.412 98.1283 115.384 97.8238H115.335C115.315 98.0796 115.264 98.3334 115.183 98.5852L114.233 101.546H116.468ZM120.373 104.665V102.716C120.726 103.012 121.11 103.235 121.525 103.386C121.939 103.532 122.357 103.605 122.779 103.605C123.027 103.605 123.242 103.583 123.425 103.538C123.612 103.493 123.766 103.432 123.888 103.355C124.014 103.274 124.107 103.181 124.168 103.075C124.229 102.965 124.26 102.848 124.26 102.722C124.26 102.551 124.211 102.399 124.114 102.265C124.016 102.131 123.882 102.007 123.711 101.893C123.545 101.779 123.346 101.67 123.114 101.564C122.883 101.459 122.633 101.351 122.365 101.241C121.683 100.957 121.173 100.61 120.836 100.2C120.503 99.7894 120.337 99.2939 120.337 98.7132C120.337 98.2583 120.428 97.8684 120.611 97.5435C120.793 97.2146 121.041 96.9445 121.354 96.7333C121.671 96.5221 122.036 96.3678 122.45 96.2703C122.865 96.1688 123.303 96.118 123.766 96.118C124.221 96.118 124.623 96.1465 124.973 96.2033C125.326 96.2561 125.651 96.3394 125.947 96.4531V98.2746C125.801 98.173 125.641 98.0837 125.466 98.0065C125.295 97.9293 125.119 97.8664 124.936 97.8177C124.753 97.7649 124.57 97.7263 124.388 97.7019C124.209 97.6775 124.038 97.6654 123.876 97.6654C123.653 97.6654 123.45 97.6877 123.267 97.7324C123.084 97.773 122.93 97.8319 122.804 97.909C122.678 97.9862 122.58 98.0796 122.511 98.1893C122.442 98.2949 122.408 98.4147 122.408 98.5487C122.408 98.6949 122.446 98.8269 122.524 98.9447C122.601 99.0584 122.71 99.168 122.853 99.2736C122.995 99.3752 123.167 99.4767 123.37 99.5782C123.573 99.6757 123.803 99.7772 124.059 99.8828C124.408 100.029 124.721 100.185 124.997 100.352C125.277 100.514 125.517 100.699 125.716 100.906C125.915 101.113 126.067 101.351 126.173 101.619C126.278 101.883 126.331 102.192 126.331 102.545C126.331 103.032 126.238 103.443 126.051 103.776C125.868 104.104 125.618 104.373 125.301 104.58C124.985 104.783 124.615 104.929 124.193 105.018C123.774 105.108 123.332 105.152 122.865 105.152C122.385 105.152 121.929 105.112 121.494 105.03C121.064 104.949 120.69 104.827 120.373 104.665ZM135.329 105H133.355V101.442H129.736V105H127.769V96.2642H129.736V99.7488H133.355V96.2642H135.329V105ZM137.333 105V96.2642H140.513C141.488 96.2642 142.237 96.4429 142.761 96.8003C143.285 97.1577 143.547 97.6613 143.547 98.3111C143.547 98.7822 143.386 99.1944 143.065 99.5478C142.749 99.9011 142.343 100.147 141.847 100.285V100.309C142.468 100.386 142.964 100.616 143.333 100.998C143.707 101.379 143.894 101.844 143.894 102.393C143.894 103.193 143.608 103.828 143.035 104.299C142.462 104.766 141.681 105 140.69 105H137.333ZM139.301 97.7141V99.7853H140.166C140.572 99.7853 140.891 99.6879 141.122 99.4929C141.358 99.2939 141.475 99.0218 141.475 98.6766C141.475 98.0349 140.996 97.7141 140.038 97.7141H139.301ZM139.301 101.247V103.55H140.367C140.822 103.55 141.177 103.445 141.433 103.233C141.693 103.022 141.823 102.734 141.823 102.368C141.823 102.019 141.695 101.745 141.439 101.546C141.187 101.347 140.834 101.247 140.379 101.247H139.301ZM149.029 105.152C147.779 105.152 146.759 104.746 145.971 103.934C145.183 103.118 144.789 102.056 144.789 100.748C144.789 99.367 145.189 98.2502 145.99 97.3973C146.79 96.5445 147.85 96.118 149.17 96.118C150.416 96.118 151.424 96.5262 152.191 97.3425C152.963 98.1588 153.349 99.235 153.349 100.571C153.349 101.944 152.949 103.051 152.148 103.891C151.352 104.732 150.313 105.152 149.029 105.152ZM149.115 97.8116C148.424 97.8116 147.876 98.0715 147.47 98.5913C147.064 99.1071 146.861 99.7914 146.861 100.644C146.861 101.509 147.064 102.194 147.47 102.697C147.876 103.201 148.408 103.453 149.066 103.453C149.744 103.453 150.282 103.209 150.68 102.722C151.078 102.23 151.277 101.55 151.277 100.681C151.277 99.7752 151.084 99.0706 150.699 98.567C150.313 98.0634 149.785 97.8116 149.115 97.8116ZM162.291 105H160.147L159.526 103.057H156.419L155.804 105H153.671L156.851 96.2642H159.185L162.291 105ZM159.075 101.546L158.137 98.6096C158.068 98.3903 158.019 98.1283 157.991 97.8238H157.942C157.922 98.0796 157.871 98.3334 157.79 98.5852L156.839 101.546H159.075ZM170.71 105H168.45L167.092 102.752C166.99 102.582 166.893 102.429 166.799 102.295C166.706 102.161 166.611 102.047 166.513 101.954C166.42 101.857 166.32 101.783 166.215 101.735C166.113 101.682 166.001 101.656 165.88 101.656H165.35V105H163.382V96.2642H166.501C168.621 96.2642 169.681 97.0562 169.681 98.6401C169.681 98.9447 169.634 99.2269 169.541 99.4868C169.447 99.7427 169.315 99.9742 169.145 100.181C168.974 100.388 168.767 100.567 168.523 100.717C168.284 100.868 168.016 100.985 167.719 101.071V101.095C167.849 101.136 167.975 101.203 168.097 101.296C168.219 101.385 168.337 101.491 168.45 101.613C168.564 101.735 168.672 101.867 168.773 102.009C168.879 102.147 168.974 102.283 169.06 102.417L170.71 105ZM165.35 97.7385V100.169H166.202C166.625 100.169 166.964 100.047 167.22 99.8036C167.48 99.5559 167.61 99.2493 167.61 98.8837C167.61 98.1202 167.153 97.7385 166.239 97.7385H165.35ZM171.533 105V96.2642H174.628C177.73 96.2642 179.282 97.6836 179.282 100.522C179.282 101.883 178.857 102.969 178.009 103.782C177.164 104.594 176.037 105 174.628 105H171.533ZM173.501 97.8664V103.404H174.475C175.328 103.404 175.996 103.148 176.479 102.636C176.967 102.125 177.21 101.428 177.21 100.547C177.21 99.7143 176.969 99.0604 176.486 98.5852C176.006 98.106 175.332 97.8664 174.463 97.8664H173.501Z" fill="#31ECFF"/>
<path d="M186.03 102.917L189.669 99.2777L186.03 95.6389" stroke="#EBEBF5" stroke-opacity="0.6" stroke-width="1.21296" stroke-linecap="round" stroke-linejoin="round"/>
<path d="M200.906 97.8664H197.824V100.011H200.657V101.607H197.824V105H195.856V96.2642H200.906V97.8664ZM207.553 105H202.35V96.2642H204.318V103.404H207.553V105ZM215.6 101.217C215.6 103.841 214.378 105.152 211.933 105.152C209.561 105.152 208.375 103.871 208.375 101.308V96.2642H210.349V101.333C210.349 102.746 210.901 103.453 212.006 103.453C213.09 103.453 213.632 102.77 213.632 101.406V96.2642H215.6V101.217ZM224.64 105H222.307L220.803 102.155C220.746 102.049 220.687 101.855 220.626 101.57H220.601C220.573 101.704 220.506 101.907 220.4 102.179L218.89 105H216.544L219.328 100.632L216.782 96.2642H219.176L220.425 98.8837C220.522 99.0909 220.61 99.3366 220.687 99.6209H220.711C220.76 99.4503 220.851 99.1965 220.985 98.8594L222.374 96.2642H224.567L221.948 100.596L224.64 105ZM229.179 105.152C227.928 105.152 226.909 104.746 226.121 103.934C225.333 103.118 224.939 102.056 224.939 100.748C224.939 99.367 225.339 98.2502 226.139 97.3973C226.939 96.5445 227.999 96.118 229.319 96.118C230.566 96.118 231.573 96.5262 232.341 97.3425C233.112 98.1588 233.498 99.235 233.498 100.571C233.498 101.944 233.098 103.051 232.298 103.891C231.502 104.732 230.462 105.152 229.179 105.152ZM229.264 97.8116C228.574 97.8116 228.025 98.0715 227.619 98.5913C227.213 99.1071 227.01 99.7914 227.01 100.644C227.01 101.509 227.213 102.194 227.619 102.697C228.025 103.201 228.557 103.453 229.215 103.453C229.894 103.453 230.432 103.209 230.83 102.722C231.228 102.23 231.427 101.55 231.427 100.681C231.427 99.7752 231.234 99.0706 230.848 98.567C230.462 98.0634 229.934 97.8116 229.264 97.8116ZM238.402 105V96.2642H241.497C244.599 96.2642 246.151 97.6836 246.151 100.522C246.151 101.883 245.726 102.969 244.878 103.782C244.033 104.594 242.906 105 241.497 105H238.402ZM240.37 97.8664V103.404H241.344C242.197 103.404 242.865 103.148 243.349 102.636C243.836 102.125 244.08 101.428 244.08 100.547C244.08 99.7143 243.838 99.0604 243.355 98.5852C242.875 98.106 242.201 97.8664 241.332 97.8664H240.37ZM252.84 105H247.601V96.2642H252.639V97.8664H249.568V99.8097H252.426V101.406H249.568V103.404H252.84V105ZM263.951 104.689C263.314 104.998 262.481 105.152 261.454 105.152C260.113 105.152 259.06 104.758 258.292 103.97C257.524 103.183 257.141 102.133 257.141 100.821C257.141 99.4239 257.571 98.2908 258.432 97.4217C259.297 96.5526 260.418 96.118 261.795 96.118C262.648 96.118 263.367 96.2256 263.951 96.4409V98.3355C263.367 97.9862 262.7 97.8116 261.953 97.8116C261.133 97.8116 260.471 98.0695 259.967 98.5852C259.464 99.101 259.212 99.7996 259.212 100.681C259.212 101.526 259.449 102.2 259.925 102.703C260.4 103.203 261.039 103.453 261.844 103.453C262.611 103.453 263.314 103.266 263.951 102.892V104.689ZM273.156 105H271.012L270.39 103.057H267.284L266.668 105H264.536L267.716 96.2642H270.049L273.156 105ZM269.94 101.546L269.002 98.6096C268.932 98.3903 268.884 98.1283 268.855 97.8238H268.807C268.786 98.0796 268.736 98.3334 268.654 98.5852L267.704 101.546H269.94ZM276.214 105H274.247V96.2642H276.214V105ZM285.34 105H283.007L281.502 102.155C281.445 102.049 281.386 101.855 281.325 101.57H281.301C281.273 101.704 281.206 101.907 281.1 102.179L279.589 105H277.244L280.028 100.632L277.481 96.2642H279.876L281.124 98.8837C281.222 99.0909 281.309 99.3366 281.386 99.6209H281.411C281.459 99.4503 281.551 99.1965 281.685 98.8594L283.074 96.2642H285.267L282.647 100.596L285.34 105ZM294.064 105H291.919L291.298 103.057H288.191L287.576 105H285.444L288.624 96.2642H290.957L294.064 105ZM290.847 101.546L289.909 98.6096C289.84 98.3903 289.791 98.1283 289.763 97.8238H289.714C289.694 98.0796 289.643 98.3334 289.562 98.5852L288.611 101.546H290.847Z" fill="#EBEBF5" fill-opacity="0.6"/>
</g>
<path d="M322.408 39.48C322.408 38.6804 322.586 37.9662 322.943 37.3374C323.308 36.7009 323.801 36.2079 324.422 35.8586C325.051 35.5015 325.753 35.3229 326.53 35.3229C327.438 35.3229 328.234 35.5558 328.917 36.0216C329.6 36.4874 330.077 37.1317 330.349 37.9546H328.474C328.288 37.5664 328.024 37.2753 327.682 37.0812C327.349 36.8872 326.961 36.7901 326.518 36.7901C326.045 36.7901 325.621 36.9027 325.249 37.1278C324.884 37.3452 324.597 37.6557 324.387 38.0594C324.185 38.4631 324.084 38.9366 324.084 39.48C324.084 40.0156 324.185 40.4892 324.387 40.9006C324.597 41.3043 324.884 41.6187 325.249 41.8438C325.621 42.0612 326.045 42.1699 326.518 42.1699C326.961 42.1699 327.349 42.0728 327.682 41.8788C328.024 41.6769 328.288 41.3819 328.474 40.9938H330.349C330.077 41.8244 329.6 42.4726 328.917 42.9384C328.241 43.3964 327.446 43.6254 326.53 43.6254C325.753 43.6254 325.051 43.4508 324.422 43.1014C323.801 42.7443 323.308 42.2514 322.943 41.6226C322.586 40.9938 322.408 40.2796 322.408 39.48ZM334.606 43.6604C333.985 43.6604 333.426 43.5245 332.929 43.2528C332.432 42.9733 332.04 42.5813 331.753 42.0767C331.474 41.5721 331.334 40.9899 331.334 40.33C331.334 39.6702 331.478 39.088 331.765 38.5834C332.06 38.0788 332.46 37.6906 332.964 37.4189C333.469 37.1395 334.032 36.9997 334.653 36.9997C335.274 36.9997 335.836 37.1395 336.341 37.4189C336.846 37.6906 337.242 38.0788 337.529 38.5834C337.824 39.088 337.971 39.6702 337.971 40.33C337.971 40.9899 337.82 41.5721 337.517 42.0767C337.222 42.5813 336.818 42.9733 336.306 43.2528C335.802 43.5245 335.235 43.6604 334.606 43.6604ZM334.606 42.2397C334.901 42.2397 335.177 42.1699 335.433 42.0301C335.697 41.8826 335.906 41.6653 336.062 41.378C336.217 41.0908 336.294 40.7415 336.294 40.33C336.294 39.7168 336.131 39.2471 335.805 38.9211C335.487 38.5873 335.095 38.4204 334.629 38.4204C334.164 38.4204 333.772 38.5873 333.453 38.9211C333.143 39.2471 332.987 39.7168 332.987 40.33C332.987 40.9433 333.139 41.4169 333.442 41.7507C333.752 42.0767 334.14 42.2397 334.606 42.2397ZM347.178 37.0114C347.97 37.0114 348.607 37.2559 349.088 37.745C349.577 38.2263 349.822 38.9017 349.822 39.7711V43.5556H348.192V39.9924C348.192 39.4878 348.063 39.1035 347.807 38.8396C347.551 38.5679 347.202 38.432 346.759 38.432C346.317 38.432 345.964 38.5679 345.7 38.8396C345.443 39.1035 345.315 39.4878 345.315 39.9924V43.5556H343.685V39.9924C343.685 39.4878 343.557 39.1035 343.301 38.8396C343.045 38.5679 342.695 38.432 342.253 38.432C341.803 38.432 341.446 38.5679 341.182 38.8396C340.925 39.1035 340.797 39.4878 340.797 39.9924V43.5556H339.167V37.1045H340.797V37.8847C341.007 37.613 341.275 37.3995 341.601 37.2443C341.935 37.089 342.299 37.0114 342.695 37.0114C343.2 37.0114 343.65 37.1201 344.046 37.3374C344.442 37.547 344.749 37.8498 344.966 38.2457C345.176 37.8731 345.478 37.5742 345.874 37.3491C346.278 37.1239 346.713 37.0114 347.178 37.0114ZM357.366 40.1903C357.366 40.4232 357.35 40.6328 357.319 40.8191H352.603C352.642 41.2849 352.805 41.6497 353.092 41.9137C353.379 42.1776 353.733 42.3096 354.152 42.3096C354.757 42.3096 355.188 42.0495 355.444 41.5294H357.203C357.016 42.1505 356.659 42.6628 356.131 43.0665C355.603 43.4624 354.955 43.6604 354.187 43.6604C353.566 43.6604 353.007 43.5245 352.51 43.2528C352.021 42.9733 351.637 42.5813 351.357 42.0767C351.085 41.5721 350.95 40.9899 350.95 40.33C350.95 39.6624 351.085 39.0763 351.357 38.5717C351.629 38.0671 352.009 37.679 352.498 37.4073C352.987 37.1356 353.55 36.9997 354.187 36.9997C354.8 36.9997 355.347 37.1317 355.829 37.3956C356.318 37.6596 356.694 38.0361 356.958 38.5252C357.23 39.0065 357.366 39.5615 357.366 40.1903ZM355.677 39.7245C355.669 39.3053 355.518 38.9715 355.223 38.7231C354.928 38.4669 354.567 38.3388 354.14 38.3388C353.736 38.3388 353.395 38.4631 353.115 38.7115C352.844 38.9521 352.677 39.2898 352.615 39.7245H355.677ZM360.186 38.106C360.395 37.7644 360.667 37.4966 361.001 37.3025C361.342 37.1084 361.731 37.0114 362.165 37.0114V38.7231H361.734C361.222 38.7231 360.834 38.8434 360.57 39.0841C360.314 39.3247 360.186 39.7439 360.186 40.3417V43.5556H358.556V37.1045H360.186V38.106ZM362.844 40.33C362.844 39.6624 362.98 39.0802 363.252 38.5834C363.523 38.0788 363.9 37.6906 364.381 37.4189C364.863 37.1395 365.414 36.9997 366.035 36.9997C366.834 36.9997 367.494 37.2016 368.014 37.6052C368.542 38.0012 368.895 38.5601 369.074 39.282H367.316C367.222 39.0026 367.063 38.7852 366.838 38.63C366.621 38.4669 366.349 38.3854 366.023 38.3854C365.557 38.3854 365.189 38.5562 364.917 38.8978C364.645 39.2316 364.509 39.709 364.509 40.33C364.509 40.9433 364.645 41.4207 364.917 41.7623C365.189 42.0961 365.557 42.263 366.023 42.263C366.683 42.263 367.114 41.968 367.316 41.378H369.074C368.895 42.0767 368.542 42.6318 368.014 43.0432C367.486 43.4546 366.827 43.6604 366.035 43.6604C365.414 43.6604 364.863 43.5245 364.381 43.2528C363.9 42.9733 363.523 42.5852 363.252 42.0884C362.98 41.5838 362.844 40.9977 362.844 40.33ZM371.095 36.336C370.808 36.336 370.567 36.2467 370.373 36.0682C370.187 35.8819 370.094 35.6529 370.094 35.3812C370.094 35.1095 370.187 34.8843 370.373 34.7058C370.567 34.5195 370.808 34.4263 371.095 34.4263C371.382 34.4263 371.619 34.5195 371.805 34.7058C371.999 34.8843 372.096 35.1095 372.096 35.3812C372.096 35.6529 371.999 35.8819 371.805 36.0682C371.619 36.2467 371.382 36.336 371.095 36.336ZM371.898 37.1045V43.5556H370.268V37.1045H371.898ZM373.09 40.3068C373.09 39.6547 373.218 39.0763 373.474 38.5717C373.738 38.0671 374.091 37.679 374.534 37.4073C374.984 37.1356 375.485 36.9997 376.036 36.9997C376.517 36.9997 376.936 37.0968 377.294 37.2908C377.658 37.4849 377.95 37.7295 378.167 38.0244V37.1045H379.809V43.5556H378.167V42.6124C377.957 42.9151 377.666 43.1674 377.294 43.3692C376.929 43.5633 376.506 43.6604 376.024 43.6604C375.481 43.6604 374.984 43.5206 374.534 43.2412C374.091 42.9617 373.738 42.5697 373.474 42.0651C373.218 41.5527 373.09 40.9666 373.09 40.3068ZM378.167 40.33C378.167 39.9341 378.089 39.5964 377.934 39.317C377.779 39.0297 377.569 38.8124 377.305 38.6649C377.041 38.5096 376.758 38.432 376.455 38.432C376.152 38.432 375.873 38.5057 375.617 38.6532C375.361 38.8007 375.151 39.0181 374.988 39.3053C374.833 39.5848 374.755 39.9186 374.755 40.3068C374.755 40.6949 374.833 41.0365 374.988 41.3315C375.151 41.6187 375.361 41.8399 375.617 41.9952C375.881 42.1505 376.16 42.2281 376.455 42.2281C376.758 42.2281 377.041 42.1543 377.305 42.0068C377.569 41.8516 377.779 41.6342 377.934 41.3548C378.089 41.0675 378.167 40.726 378.167 40.33ZM383.031 34.9387V43.5556H381.401V34.9387H383.031Z" fill="#EBEBF5" fill-opacity="0.6"/>
<path d="M443.787 42.0068H440.55L440.014 43.5556H438.303L441.225 35.4161H443.123L446.046 43.5556H444.323L443.787 42.0068ZM443.345 40.7027L442.168 37.3025L440.992 40.7027H443.345ZM450.713 37.0114C451.482 37.0114 452.103 37.2559 452.577 37.745C453.05 38.2263 453.287 38.9017 453.287 39.7711V43.5556H451.657V39.9924C451.657 39.48 451.529 39.088 451.272 38.8163C451.016 38.5368 450.667 38.3971 450.224 38.3971C449.774 38.3971 449.417 38.5368 449.153 38.8163C448.897 39.088 448.769 39.48 448.769 39.9924V43.5556H447.139V37.1045H448.769V37.908C448.986 37.6285 449.262 37.4112 449.596 37.2559C449.937 37.0929 450.31 37.0114 450.713 37.0114ZM454.418 40.3068C454.418 39.6547 454.546 39.0763 454.802 38.5717C455.066 38.0671 455.419 37.679 455.862 37.4073C456.312 37.1356 456.813 36.9997 457.364 36.9997C457.845 36.9997 458.264 37.0968 458.622 37.2908C458.986 37.4849 459.278 37.7295 459.495 38.0244V37.1045H461.137V43.5556H459.495V42.6124C459.285 42.9151 458.994 43.1674 458.622 43.3692C458.257 43.5633 457.834 43.6604 457.352 43.6604C456.809 43.6604 456.312 43.5206 455.862 43.2412C455.419 42.9617 455.066 42.5697 454.802 42.0651C454.546 41.5527 454.418 40.9666 454.418 40.3068ZM459.495 40.33C459.495 39.9341 459.417 39.5964 459.262 39.317C459.107 39.0297 458.897 38.8124 458.633 38.6649C458.369 38.5096 458.086 38.432 457.783 38.432C457.48 38.432 457.201 38.5057 456.945 38.6532C456.689 38.8007 456.479 39.0181 456.316 39.3053C456.161 39.5848 456.083 39.9186 456.083 40.3068C456.083 40.6949 456.161 41.0365 456.316 41.3315C456.479 41.6187 456.689 41.8399 456.945 41.9952C457.209 42.1505 457.488 42.2281 457.783 42.2281C458.086 42.2281 458.369 42.1543 458.633 42.0068C458.897 41.8516 459.107 41.6342 459.262 41.3548C459.417 41.0675 459.495 40.726 459.495 40.33ZM459.274 35.4277L456.595 36.6504V35.486L459.274 34.1003V35.4277ZM464.359 34.9387V43.5556H462.729V34.9387H464.359ZM466.797 36.336C466.509 36.336 466.269 36.2467 466.075 36.0682C465.888 35.8819 465.795 35.6529 465.795 35.3812C465.795 35.1095 465.888 34.8843 466.075 34.7058C466.269 34.5195 466.509 34.4263 466.797 34.4263C467.084 34.4263 467.321 34.5195 467.507 34.7058C467.701 34.8843 467.798 35.1095 467.798 35.3812C467.798 35.6529 467.701 35.8819 467.507 36.0682C467.321 36.2467 467.084 36.336 466.797 36.336ZM467.6 37.1045V43.5556H465.97V37.1045H467.6ZM471.679 43.6604C471.151 43.6604 470.678 43.5672 470.259 43.3809C469.84 43.1868 469.506 42.9268 469.257 42.6007C469.017 42.2747 468.885 41.9137 468.861 41.5178H470.503C470.534 41.7662 470.655 41.9719 470.864 42.1349C471.082 42.298 471.349 42.3795 471.668 42.3795C471.978 42.3795 472.219 42.3174 472.39 42.1932C472.568 42.0689 472.657 41.9098 472.657 41.7157C472.657 41.5061 472.549 41.3509 472.331 41.25C472.122 41.1413 471.784 41.0248 471.318 40.9006C470.837 40.7842 470.441 40.6639 470.131 40.5396C469.828 40.4154 469.564 40.2252 469.339 39.9691C469.121 39.7129 469.013 39.3674 469.013 38.9327C469.013 38.5756 469.114 38.2496 469.316 37.9546C469.525 37.6596 469.82 37.4267 470.2 37.2559C470.589 37.0851 471.043 36.9997 471.563 36.9997C472.331 36.9997 472.945 37.1938 473.403 37.582C473.861 37.9623 474.113 38.4786 474.16 39.1307H472.599C472.576 38.8745 472.467 38.6727 472.273 38.5252C472.087 38.3699 471.835 38.2923 471.516 38.2923C471.221 38.2923 470.992 38.3466 470.829 38.4553C470.674 38.564 470.596 38.7153 470.596 38.9094C470.596 39.1268 470.705 39.2937 470.922 39.4101C471.14 39.5188 471.478 39.6314 471.936 39.7478C472.401 39.8643 472.786 39.9846 473.088 40.1088C473.391 40.233 473.651 40.4271 473.868 40.691C474.094 40.9472 474.21 41.2888 474.218 41.7157C474.218 42.0884 474.113 42.4222 473.903 42.7172C473.702 43.0121 473.407 43.245 473.018 43.4158C472.638 43.5788 472.192 43.6604 471.679 43.6604ZM481.553 40.1903C481.553 40.4232 481.537 40.6328 481.506 40.8191H476.79C476.829 41.2849 476.992 41.6497 477.279 41.9137C477.567 42.1776 477.92 42.3096 478.339 42.3096C478.945 42.3096 479.375 42.0495 479.632 41.5294H481.39C481.204 42.1505 480.846 42.6628 480.319 43.0665C479.791 43.4624 479.143 43.6604 478.374 43.6604C477.753 43.6604 477.194 43.5245 476.697 43.2528C476.208 42.9733 475.824 42.5813 475.544 42.0767C475.273 41.5721 475.137 40.9899 475.137 40.33C475.137 39.6624 475.273 39.0763 475.544 38.5717C475.816 38.0671 476.196 37.679 476.686 37.4073C477.175 37.1356 477.737 36.9997 478.374 36.9997C478.987 36.9997 479.535 37.1317 480.016 37.3956C480.505 37.6596 480.881 38.0361 481.145 38.5252C481.417 39.0065 481.553 39.5615 481.553 40.1903ZM479.864 39.7245C479.857 39.3053 479.705 38.9715 479.41 38.7231C479.115 38.4669 478.754 38.3388 478.327 38.3388C477.924 38.3388 477.582 38.4631 477.303 38.7115C477.031 38.9521 476.864 39.2898 476.802 39.7245H479.864ZM485.098 40.3068C485.098 39.6547 485.226 39.0763 485.483 38.5717C485.746 38.0671 486.104 37.679 486.554 37.4073C487.004 37.1356 487.505 36.9997 488.056 36.9997C488.475 36.9997 488.875 37.0929 489.255 37.2792C489.636 37.4577 489.938 37.6984 490.164 38.0012V34.9387H491.817V43.5556H490.164V42.6007C489.962 42.919 489.678 43.1752 489.314 43.3692C488.949 43.5633 488.526 43.6604 488.044 43.6604C487.501 43.6604 487.004 43.5206 486.554 43.2412C486.104 42.9617 485.746 42.5697 485.483 42.0651C485.226 41.5527 485.098 40.9666 485.098 40.3068ZM490.175 40.33C490.175 39.9341 490.098 39.5964 489.942 39.317C489.787 39.0297 489.578 38.8124 489.314 38.6649C489.05 38.5096 488.766 38.432 488.464 38.432C488.161 38.432 487.881 38.5057 487.625 38.6532C487.369 38.8007 487.159 39.0181 486.996 39.3053C486.841 39.5848 486.763 39.9186 486.763 40.3068C486.763 40.6949 486.841 41.0365 486.996 41.3315C487.159 41.6187 487.369 41.8399 487.625 41.9952C487.889 42.1505 488.169 42.2281 488.464 42.2281C488.766 42.2281 489.05 42.1543 489.314 42.0068C489.578 41.8516 489.787 41.6342 489.942 41.3548C490.098 41.0675 490.175 40.726 490.175 40.33ZM499.406 40.1903C499.406 40.4232 499.391 40.6328 499.36 40.8191H494.644C494.682 41.2849 494.845 41.6497 495.133 41.9137C495.42 42.1776 495.773 42.3096 496.192 42.3096C496.798 42.3096 497.229 42.0495 497.485 41.5294H499.243C499.057 42.1505 498.7 42.6628 498.172 43.0665C497.644 43.4624 496.996 43.6604 496.227 43.6604C495.606 43.6604 495.047 43.5245 494.55 43.2528C494.061 42.9733 493.677 42.5813 493.398 42.0767C493.126 41.5721 492.99 40.9899 492.99 40.33C492.99 39.6624 493.126 39.0763 493.398 38.5717C493.669 38.0671 494.05 37.679 494.539 37.4073C495.028 37.1356 495.591 36.9997 496.227 36.9997C496.841 36.9997 497.388 37.1317 497.869 37.3956C498.358 37.6596 498.735 38.0361 498.999 38.5252C499.27 39.0065 499.406 39.5615 499.406 40.1903ZM497.718 39.7245C497.71 39.3053 497.559 38.9715 497.264 38.7231C496.969 38.4669 496.608 38.3388 496.181 38.3388C495.777 38.3388 495.435 38.4631 495.156 38.7115C494.884 38.9521 494.717 39.2898 494.655 39.7245H497.718ZM509.298 37.9429C509.298 38.3777 509.193 38.7852 508.983 39.1656C508.782 39.546 508.459 39.8526 508.017 40.0855C507.582 40.3184 507.031 40.4348 506.363 40.4348H505.001V43.5556H503.371V35.4277H506.363C506.992 35.4277 507.528 35.5364 507.97 35.7538C508.413 35.9711 508.743 36.27 508.96 36.6504C509.185 37.0308 509.298 37.4616 509.298 37.9429ZM506.294 39.119C506.744 39.119 507.078 39.0181 507.295 38.8163C507.512 38.6067 507.621 38.3156 507.621 37.9429C507.621 37.1511 507.179 36.7552 506.294 36.7552H505.001V39.119H506.294ZM512.085 38.106C512.295 37.7644 512.567 37.4966 512.901 37.3025C513.242 37.1084 513.63 37.0114 514.065 37.0114V38.7231H513.634C513.122 38.7231 512.734 38.8434 512.47 39.0841C512.214 39.3247 512.085 39.7439 512.085 40.3417V43.5556H510.455V37.1045H512.085V38.106ZM518.028 43.6604C517.407 43.6604 516.848 43.5245 516.351 43.2528C515.854 42.9733 515.462 42.5813 515.175 42.0767C514.895 41.5721 514.756 40.9899 514.756 40.33C514.756 39.6702 514.899 39.088 515.186 38.5834C515.481 38.0788 515.881 37.6906 516.386 37.4189C516.89 37.1395 517.453 36.9997 518.074 36.9997C518.695 36.9997 519.258 37.1395 519.763 37.4189C520.267 37.6906 520.663 38.0788 520.95 38.5834C521.245 39.088 521.393 39.6702 521.393 40.33C521.393 40.9899 521.241 41.5721 520.939 42.0767C520.644 42.5813 520.24 42.9733 519.728 43.2528C519.223 43.5245 518.656 43.6604 518.028 43.6604ZM518.028 42.2397C518.323 42.2397 518.598 42.1699 518.854 42.0301C519.118 41.8826 519.328 41.6653 519.483 41.378C519.638 41.0908 519.716 40.7415 519.716 40.33C519.716 39.7168 519.553 39.2471 519.227 38.9211C518.909 38.5873 518.517 38.4204 518.051 38.4204C517.585 38.4204 517.193 38.5873 516.875 38.9211C516.564 39.2471 516.409 39.7168 516.409 40.33C516.409 40.9433 516.56 41.4169 516.863 41.7507C517.174 42.0767 517.562 42.2397 518.028 42.2397ZM522.169 40.3068C522.169 39.6547 522.298 39.0763 522.554 38.5717C522.818 38.0671 523.175 37.679 523.625 37.4073C524.075 37.1356 524.576 36.9997 525.127 36.9997C525.546 36.9997 525.946 37.0929 526.327 37.2792C526.707 37.4577 527.01 37.6984 527.235 38.0012V34.9387H528.888V43.5556H527.235V42.6007C527.033 42.919 526.75 43.1752 526.385 43.3692C526.02 43.5633 525.597 43.6604 525.116 43.6604C524.572 43.6604 524.075 43.5206 523.625 43.2412C523.175 42.9617 522.818 42.5697 522.554 42.0651C522.298 41.5527 522.169 40.9666 522.169 40.3068ZM527.246 40.33C527.246 39.9341 527.169 39.5964 527.014 39.317C526.858 39.0297 526.649 38.8124 526.385 38.6649C526.121 38.5096 525.837 38.432 525.535 38.432C525.232 38.432 524.952 38.5057 524.696 38.6532C524.44 38.8007 524.231 39.0181 524.068 39.3053C523.912 39.5848 523.835 39.9186 523.835 40.3068C523.835 40.6949 523.912 41.0365 524.068 41.3315C524.231 41.6187 524.44 41.8399 524.696 41.9952C524.96 42.1505 525.24 42.2281 525.535 42.2281C525.837 42.2281 526.121 42.1543 526.385 42.0068C526.649 41.8516 526.858 41.6342 527.014 41.3548C527.169 41.0675 527.246 40.726 527.246 40.33ZM536.571 37.1045V43.5556H534.929V42.7404C534.719 43.0199 534.444 43.2412 534.102 43.4042C533.768 43.5594 533.403 43.6371 533.007 43.6371C532.503 43.6371 532.056 43.5323 531.668 43.3227C531.28 43.1053 530.973 42.7909 530.748 42.3795C530.531 41.9603 530.422 41.4634 530.422 40.889V37.1045H532.053V40.6561C532.053 41.1684 532.181 41.5644 532.437 41.8438C532.693 42.1155 533.042 42.2514 533.485 42.2514C533.935 42.2514 534.288 42.1155 534.544 41.8438C534.801 41.5644 534.929 41.1684 534.929 40.6561V37.1045H536.571ZM540.077 38.4436V41.5644C540.077 41.7817 540.128 41.9409 540.228 42.0418C540.337 42.1349 540.516 42.1815 540.764 42.1815H541.521V43.5556H540.496C539.122 43.5556 538.435 42.8879 538.435 41.5527V38.4436H537.667V37.1045H538.435V35.5092H540.077V37.1045H541.521V38.4436H540.077ZM545.558 43.6604C544.937 43.6604 544.378 43.5245 543.881 43.2528C543.384 42.9733 542.992 42.5813 542.705 42.0767C542.426 41.5721 542.286 40.9899 542.286 40.33C542.286 39.6702 542.43 39.088 542.717 38.5834C543.012 38.0788 543.412 37.6906 543.916 37.4189C544.421 37.1395 544.984 36.9997 545.605 36.9997C546.226 36.9997 546.788 37.1395 547.293 37.4189C547.798 37.6906 548.194 38.0788 548.481 38.5834C548.776 39.088 548.923 39.6702 548.923 40.33C548.923 40.9899 548.772 41.5721 548.469 42.0767C548.174 42.5813 547.771 42.9733 547.258 43.2528C546.754 43.5245 546.187 43.6604 545.558 43.6604ZM545.558 42.2397C545.853 42.2397 546.129 42.1699 546.385 42.0301C546.649 41.8826 546.858 41.6653 547.014 41.378C547.169 41.0908 547.247 40.7415 547.247 40.33C547.247 39.7168 547.083 39.2471 546.757 38.9211C546.439 38.5873 546.047 38.4204 545.581 38.4204C545.116 38.4204 544.724 38.5873 544.405 38.9211C544.095 39.2471 543.939 39.7168 543.939 40.33C543.939 40.9433 544.091 41.4169 544.394 41.7507C544.704 42.0767 545.092 42.2397 545.558 42.2397ZM552.588 43.6604C552.06 43.6604 551.586 43.5672 551.167 43.3809C550.748 43.1868 550.414 42.9268 550.166 42.6007C549.925 42.2747 549.793 41.9137 549.77 41.5178H551.412C551.443 41.7662 551.563 41.9719 551.773 42.1349C551.99 42.298 552.258 42.3795 552.576 42.3795C552.887 42.3795 553.127 42.3174 553.298 42.1932C553.477 42.0689 553.566 41.9098 553.566 41.7157C553.566 41.5061 553.457 41.3509 553.24 41.25C553.03 41.1413 552.693 41.0248 552.227 40.9006C551.745 40.7842 551.35 40.6639 551.039 40.5396C550.736 40.4154 550.472 40.2252 550.247 39.9691C550.03 39.7129 549.921 39.3674 549.921 38.9327C549.921 38.5756 550.022 38.2496 550.224 37.9546C550.434 37.6596 550.729 37.4267 551.109 37.2559C551.497 37.0851 551.951 36.9997 552.471 36.9997C553.24 36.9997 553.853 37.1938 554.311 37.582C554.769 37.9623 555.021 38.4786 555.068 39.1307H553.508C553.484 38.8745 553.376 38.6727 553.182 38.5252C552.995 38.3699 552.743 38.2923 552.425 38.2923C552.13 38.2923 551.901 38.3466 551.738 38.4553C551.582 38.564 551.505 38.7153 551.505 38.9094C551.505 39.1268 551.614 39.2937 551.831 39.4101C552.048 39.5188 552.386 39.6314 552.844 39.7478C553.31 39.8643 553.694 39.9846 553.997 40.1088C554.299 40.233 554.56 40.4271 554.777 40.691C555.002 40.9472 555.118 41.2888 555.126 41.7157C555.126 42.0884 555.021 42.4222 554.812 42.7172C554.61 43.0121 554.315 43.245 553.927 43.4158C553.546 43.5788 553.1 43.6604 552.588 43.6604Z" fill="#EBEBF5" fill-opacity="0.6"/>
<path d="M615.822 35.8722V37.188H612.434V39.2724H615.03V40.5649H612.434V44H610.803V35.8722H615.822ZM618.608 35.3831V44H616.978V35.3831H618.608ZM626.309 37.549V44H624.667V43.1849C624.458 43.4644 624.182 43.6856 623.841 43.8486C623.507 44.0039 623.142 44.0815 622.746 44.0815C622.241 44.0815 621.795 43.9767 621.407 43.7671C621.019 43.5497 620.712 43.2353 620.487 42.8239C620.27 42.4047 620.161 41.9079 620.161 41.3334V37.549H621.791V41.1005C621.791 41.6129 621.919 42.0088 622.175 42.2883C622.432 42.56 622.781 42.6958 623.223 42.6958C623.674 42.6958 624.027 42.56 624.283 42.2883C624.539 42.0088 624.667 41.6129 624.667 41.1005V37.549H626.309ZM631.481 44L630.153 41.9972L628.977 44H627.231L629.338 40.7628L627.207 37.549H629.047L630.363 39.5402L631.551 37.549H633.297L631.178 40.7628L633.321 44H631.481ZM637.071 44.1048C636.45 44.1048 635.891 43.9689 635.394 43.6972C634.897 43.4178 634.505 43.0257 634.218 42.5212C633.938 42.0166 633.799 41.4343 633.799 40.7745C633.799 40.1146 633.942 39.5324 634.229 39.0278C634.524 38.5232 634.924 38.1351 635.429 37.8634C635.933 37.5839 636.496 37.4442 637.117 37.4442C637.738 37.4442 638.301 37.5839 638.806 37.8634C639.31 38.1351 639.706 38.5232 639.993 39.0278C640.288 39.5324 640.436 40.1146 640.436 40.7745C640.436 41.4343 640.284 42.0166 639.982 42.5212C639.687 43.0257 639.283 43.4178 638.771 43.6972C638.266 43.9689 637.699 44.1048 637.071 44.1048ZM637.071 42.6842C637.366 42.6842 637.641 42.6143 637.897 42.4746C638.161 42.3271 638.371 42.1097 638.526 41.8225C638.681 41.5353 638.759 41.1859 638.759 40.7745C638.759 40.1612 638.596 39.6916 638.27 39.3655C637.952 39.0317 637.56 38.8648 637.094 38.8648C636.628 38.8648 636.236 39.0317 635.918 39.3655C635.607 39.6916 635.452 40.1612 635.452 40.7745C635.452 41.3878 635.603 41.8613 635.906 42.1951C636.217 42.5212 636.605 42.6842 637.071 42.6842ZM643.987 40.7512C643.987 40.0991 644.115 39.5208 644.371 39.0162C644.635 38.5116 644.992 38.1234 645.443 37.8517C645.893 37.58 646.394 37.4442 646.945 37.4442C647.364 37.4442 647.764 37.5373 648.144 37.7236C648.525 37.9022 648.827 38.1428 649.052 38.4456V35.3831H650.706V44H649.052V43.0452C648.851 43.3634 648.567 43.6196 648.202 43.8137C647.838 44.0078 647.414 44.1048 646.933 44.1048C646.39 44.1048 645.893 43.9651 645.443 43.6856C644.992 43.4061 644.635 43.0141 644.371 42.5095C644.115 41.9972 643.987 41.4111 643.987 40.7512ZM649.064 40.7745C649.064 40.3786 648.986 40.0409 648.831 39.7614C648.676 39.4742 648.466 39.2568 648.202 39.1093C647.938 38.9541 647.655 38.8764 647.352 38.8764C647.05 38.8764 646.77 38.9502 646.514 39.0977C646.258 39.2452 646.048 39.4625 645.885 39.7498C645.73 40.0292 645.652 40.3631 645.652 40.7512C645.652 41.1393 645.73 41.4809 645.885 41.7759C646.048 42.0631 646.258 42.2844 646.514 42.4396C646.778 42.5949 647.057 42.6725 647.352 42.6725C647.655 42.6725 647.938 42.5988 648.202 42.4513C648.466 42.296 648.676 42.0787 648.831 41.7992C648.986 41.512 649.064 41.1704 649.064 40.7745ZM658.295 40.6348C658.295 40.8676 658.28 41.0772 658.248 41.2636H653.532C653.571 41.7293 653.734 42.0942 654.022 42.3581C654.309 42.6221 654.662 42.754 655.081 42.754C655.687 42.754 656.118 42.494 656.374 41.9739H658.132C657.946 42.5949 657.589 43.1073 657.061 43.5109C656.533 43.9068 655.885 44.1048 655.116 44.1048C654.495 44.1048 653.936 43.9689 653.439 43.6972C652.95 43.4178 652.566 43.0257 652.287 42.5212C652.015 42.0166 651.879 41.4343 651.879 40.7745C651.879 40.1069 652.015 39.5208 652.287 39.0162C652.558 38.5116 652.939 38.1234 653.428 37.8517C653.917 37.58 654.48 37.4442 655.116 37.4442C655.729 37.4442 656.277 37.5761 656.758 37.8401C657.247 38.104 657.624 38.4805 657.888 38.9696C658.159 39.4509 658.295 40.006 658.295 40.6348ZM656.607 40.169C656.599 39.7498 656.447 39.416 656.152 39.1676C655.857 38.9114 655.497 38.7833 655.07 38.7833C654.666 38.7833 654.324 38.9075 654.045 39.1559C653.773 39.3966 653.606 39.7343 653.544 40.169H656.607ZM661.864 39.9244C661.864 39.1249 662.042 38.4107 662.399 37.7819C662.764 37.1453 663.257 36.6524 663.878 36.303C664.507 35.9459 665.21 35.7674 665.986 35.7674C666.894 35.7674 667.69 36.0003 668.373 36.466C669.056 36.9318 669.534 37.5761 669.805 38.399H667.93C667.744 38.0109 667.48 37.7198 667.139 37.5257C666.805 37.3316 666.417 37.2346 665.974 37.2346C665.501 37.2346 665.078 37.3471 664.705 37.5723C664.34 37.7896 664.053 38.1001 663.843 38.5038C663.641 38.9075 663.541 39.381 663.541 39.9244C663.541 40.4601 663.641 40.9336 663.843 41.3451C664.053 41.7487 664.34 42.0631 664.705 42.2883C665.078 42.5056 665.501 42.6143 665.974 42.6143C666.417 42.6143 666.805 42.5173 667.139 42.3232C667.48 42.1214 667.744 41.8264 667.93 41.4382H669.805C669.534 42.2689 669.056 42.9171 668.373 43.3828C667.698 43.8409 666.902 44.0699 665.986 44.0699C665.21 44.0699 664.507 43.8952 663.878 43.5459C663.257 43.1888 662.764 42.6958 662.399 42.067C662.042 41.4382 661.864 40.724 661.864 39.9244ZM670.778 40.7512C670.778 40.0991 670.907 39.5208 671.163 39.0162C671.427 38.5116 671.78 38.1234 672.222 37.8517C672.673 37.58 673.173 37.4442 673.724 37.4442C674.206 37.4442 674.625 37.5412 674.982 37.7353C675.347 37.9294 675.638 38.1739 675.855 38.4689V37.549H677.497V44H675.855V43.0568C675.646 43.3596 675.355 43.6119 674.982 43.8137C674.617 44.0078 674.194 44.1048 673.713 44.1048C673.169 44.1048 672.673 43.9651 672.222 43.6856C671.78 43.4061 671.427 43.0141 671.163 42.5095C670.907 41.9972 670.778 41.4111 670.778 40.7512ZM675.855 40.7745C675.855 40.3786 675.778 40.0409 675.623 39.7614C675.467 39.4742 675.258 39.2568 674.994 39.1093C674.73 38.9541 674.446 38.8764 674.144 38.8764C673.841 38.8764 673.561 38.9502 673.305 39.0977C673.049 39.2452 672.84 39.4625 672.676 39.7498C672.521 40.0292 672.444 40.3631 672.444 40.7512C672.444 41.1393 672.521 41.4809 672.676 41.7759C672.84 42.0631 673.049 42.2844 673.305 42.4396C673.569 42.5949 673.849 42.6725 674.144 42.6725C674.446 42.6725 674.73 42.5988 674.994 42.4513C675.258 42.296 675.467 42.0787 675.623 41.7992C675.778 41.512 675.855 41.1704 675.855 40.7745ZM679.916 36.7804C679.629 36.7804 679.388 36.6912 679.194 36.5126C679.008 36.3263 678.915 36.0973 678.915 35.8256C678.915 35.5539 679.008 35.3288 679.194 35.1502C679.388 34.9639 679.629 34.8708 679.916 34.8708C680.203 34.8708 680.44 34.9639 680.627 35.1502C680.821 35.3288 680.918 35.5539 680.918 35.8256C680.918 36.0973 680.821 36.3263 680.627 36.5126C680.44 36.6912 680.203 36.7804 679.916 36.7804ZM680.72 37.549V44H679.089V37.549H680.72ZM685.894 44L684.566 41.9972L683.39 44H681.643L683.751 40.7628L681.62 37.549H683.46L684.776 39.5402L685.963 37.549H687.71L685.591 40.7628L687.733 44H685.894ZM688.2 40.7512C688.2 40.0991 688.328 39.5208 688.584 39.0162C688.848 38.5116 689.201 38.1234 689.644 37.8517C690.094 37.58 690.595 37.4442 691.146 37.4442C691.627 37.4442 692.046 37.5412 692.403 37.7353C692.768 37.9294 693.059 38.1739 693.277 38.4689V37.549H694.918V44H693.277V43.0568C693.067 43.3596 692.776 43.6119 692.403 43.8137C692.038 44.0078 691.615 44.1048 691.134 44.1048C690.591 44.1048 690.094 43.9651 689.644 43.6856C689.201 43.4061 688.848 43.0141 688.584 42.5095C688.328 41.9972 688.2 41.4111 688.2 40.7512ZM693.277 40.7745C693.277 40.3786 693.199 40.0409 693.044 39.7614C692.888 39.4742 692.679 39.2568 692.415 39.1093C692.151 38.9541 691.868 38.8764 691.565 38.8764C691.262 38.8764 690.983 38.9502 690.726 39.0977C690.47 39.2452 690.261 39.4625 690.098 39.7498C689.942 40.0292 689.865 40.3631 689.865 40.7512C689.865 41.1393 689.942 41.4809 690.098 41.7759C690.261 42.0631 690.47 42.2844 690.726 42.4396C690.99 42.5949 691.27 42.6725 691.565 42.6725C691.868 42.6725 692.151 42.5988 692.415 42.4513C692.679 42.296 692.888 42.0787 693.044 41.7992C693.199 41.512 693.277 41.1704 693.277 40.7745Z" fill="#EBEBF5"/>
<rect x="640" y="68.2222" width="25.4722" height="1.45556" rx="0.727778" fill="#31ECFF"/>
<g clip-path="url(#clip3_594_1188)">
<path d="M56.4747 268H36.8001C34.7627 268 33.1111 269.652 33.1111 271.689V291.364C33.1111 293.401 34.7627 295.053 36.8001 295.053H56.4747C58.512 295.053 60.1637 293.401 60.1637 291.364V271.689C60.1637 269.652 58.512 268 56.4747 268Z" fill="#0077B5"/>
<path d="M42.856 275.378C42.856 275.834 42.7208 276.28 42.4674 276.659C42.2141 277.038 41.854 277.334 41.4327 277.508C41.0114 277.683 40.5478 277.728 40.1006 277.639C39.6533 277.55 39.2425 277.331 38.9201 277.008C38.5976 276.686 38.378 276.275 38.2891 275.828C38.2001 275.381 38.2458 274.917 38.4203 274.496C38.5948 274.074 38.8903 273.714 39.2695 273.461C39.6486 273.208 40.0944 273.072 40.5504 273.072C41.1619 273.072 41.7483 273.315 42.1807 273.748C42.6131 274.18 42.856 274.767 42.856 275.378Z" fill="white"/>
<path d="M42.3333 279.221V289.407C42.3337 289.482 42.3193 289.557 42.2908 289.626C42.2623 289.696 42.2204 289.759 42.1674 289.812C42.1144 289.866 42.0514 289.908 41.982 289.937C41.9126 289.966 41.8382 289.98 41.7631 289.98H39.3329C39.2578 289.981 39.1834 289.966 39.1139 289.937C39.0444 289.909 38.9813 289.867 38.9282 289.813C38.875 289.76 38.8329 289.697 38.8043 289.628C38.7756 289.558 38.761 289.484 38.7612 289.409V279.221C38.7612 279.069 38.8214 278.924 38.9286 278.817C39.0359 278.709 39.1813 278.649 39.3329 278.649H41.7631C41.9144 278.65 42.0595 278.71 42.1664 278.817C42.2733 278.924 42.3333 279.07 42.3333 279.221Z" fill="white"/>
<path d="M55.0359 284.524V289.455C55.0361 289.524 55.0227 289.592 54.9963 289.656C54.97 289.72 54.9313 289.778 54.8824 289.827C54.8336 289.876 54.7755 289.915 54.7117 289.941C54.6478 289.967 54.5793 289.981 54.5102 289.98H51.8972C51.8281 289.981 51.7597 289.967 51.6958 289.941C51.6319 289.915 51.5739 289.876 51.5251 289.827C51.4762 289.778 51.4375 289.72 51.4111 289.656C51.3848 289.592 51.3713 289.524 51.3715 289.455V284.676C51.3715 283.963 51.5806 281.553 49.5071 281.553C47.9008 281.553 47.5734 283.202 47.5089 283.943V289.455C47.5089 289.593 47.4545 289.725 47.3576 289.824C47.2607 289.922 47.1289 289.978 46.9909 289.98H44.467C44.398 289.98 44.3297 289.967 44.266 289.94C44.2024 289.914 44.1445 289.875 44.0958 289.826C44.0471 289.778 44.0085 289.72 43.9823 289.656C43.956 289.592 43.9426 289.524 43.9428 289.455V279.176C43.9426 279.107 43.956 279.039 43.9823 278.975C44.0085 278.912 44.0471 278.854 44.0958 278.805C44.1445 278.756 44.2024 278.717 44.266 278.691C44.3297 278.664 44.398 278.651 44.467 278.651H46.9909C47.1303 278.651 47.264 278.706 47.3626 278.805C47.4612 278.903 47.5165 279.037 47.5165 279.176V280.065C48.1129 279.17 48.9968 278.48 50.8827 278.48C55.0605 278.48 55.0359 282.381 55.0359 284.524Z" fill="white"/>
</g>
<g clip-path="url(#clip4_594_1188)">
<rect x="38.576" y="375.807" width="14.8333" height="10.9298" fill="#D9D9D9"/>
<path d="M54.5452 371.955H38.7296C35.6266 371.955 33.1111 374.47 33.1111 377.573V385.479C33.1111 388.582 35.6266 391.098 38.7296 391.098H54.5452C57.6482 391.098 60.1637 388.582 60.1637 385.479V377.573C60.1637 374.47 57.6482 371.955 54.5452 371.955ZM50.7455 381.911L43.348 385.439C43.1509 385.533 42.9232 385.389 42.9232 385.171V377.894C42.9232 377.673 43.1569 377.529 43.3544 377.629L50.7519 381.378C50.9718 381.489 50.968 381.805 50.7455 381.911Z" fill="#F61C0D"/>
</g>
<g clip-path="url(#clip5_594_1188)">
<path d="M34.8019 319.846C32.676 322.06 33.1111 324.412 33.1111 331.557C33.1111 337.49 32.0786 343.438 37.4824 344.839C39.1698 345.274 54.1208 345.274 55.806 344.836C58.0558 344.254 59.8864 342.424 60.1366 339.234C60.1716 338.789 60.1716 324.332 60.1355 323.878C59.8695 320.48 57.7831 318.521 55.0338 318.124C54.4037 318.033 54.2775 318.006 51.0447 318C39.5778 318.006 37.0642 317.494 34.8019 319.846Z" fill="url(#paint0_linear_594_1188)"/>
<path d="M46.6351 321.548C42.5423 321.548 38.6557 321.183 37.1712 325.003C36.558 326.58 36.6471 328.629 36.6471 331.563C36.6471 334.138 36.5648 336.558 37.1712 338.123C38.6523 341.945 42.5705 341.579 46.6328 341.579C50.5521 341.579 54.5931 341.988 56.0956 338.123C56.7099 336.529 56.6197 334.511 56.6197 331.563C56.6197 327.651 56.835 325.125 54.9425 323.228C53.0263 321.307 50.4349 321.548 46.6306 321.548H46.6351ZM45.7401 323.353C54.2774 323.339 55.3641 322.387 54.7644 335.607C54.5513 340.283 51.0007 339.77 46.6362 339.77C38.6783 339.77 38.4494 339.541 38.4494 331.559C38.4494 323.484 39.0807 323.357 45.7401 323.35V323.353ZM51.9667 325.015C51.305 325.015 50.7685 325.553 50.7685 326.216C50.7685 326.88 51.305 327.418 51.9667 327.418C52.6284 327.418 53.1649 326.88 53.1649 326.216C53.1649 325.553 52.6284 325.015 51.9667 325.015ZM46.6351 326.42C43.8025 326.42 41.5064 328.723 41.5064 331.563C41.5064 334.404 43.8025 336.706 46.6351 336.706C49.4677 336.706 51.7627 334.404 51.7627 331.563C51.7627 328.723 49.4677 326.42 46.6351 326.42ZM46.6351 328.225C51.0368 328.225 51.0424 334.902 46.6351 334.902C42.2346 334.902 42.2278 328.225 46.6351 328.225Z" fill="white"/>
</g>
<rect x="62.1111" y="243" width="1.45556" height="29.1111" rx="0.727778" transform="rotate(90 62.1111 243)" fill="url(#paint1_linear_594_1188)"/>
<rect x="62.1111" y="418" width="1.45556" height="29.1111" rx="0.727778" transform="rotate(90 62.1111 418)" fill="url(#paint2_linear_594_1188)"/>
<rect width="249" height="198" transform="translate(1016 70)" fill="#2C2C2E"/>
<path d="M1037.82 87.622H1034.32V91.1744H1032.92V87.622H1029.43V86.3556H1032.92V82.7867H1034.32V86.3556H1037.82V87.622ZM1046.37 82.7538V86.5859H1050.55V87.8193H1046.37V91.7665H1051.05V93H1044.88V81.5203H1051.05V82.7538H1046.37ZM1057.7 83.8228C1058.8 83.8228 1059.69 84.1573 1060.37 84.8261C1061.05 85.4839 1061.39 86.4378 1061.39 87.6878V93H1059.9V87.9016C1059.9 87.0025 1059.68 86.3172 1059.23 85.8458C1058.78 85.3633 1058.17 85.1221 1057.39 85.1221C1056.6 85.1221 1055.97 85.3688 1055.5 85.8622C1055.04 86.3556 1054.81 87.0738 1054.81 88.0167V93H1053.31V83.9873H1054.81V85.2701C1055.1 84.8096 1055.5 84.4533 1056.01 84.2011C1056.52 83.9489 1057.09 83.8228 1057.7 83.8228ZM1065.66 85.2208V90.533C1065.66 90.9716 1065.75 91.2841 1065.93 91.4705C1066.12 91.6459 1066.44 91.7336 1066.91 91.7336H1068.01V93H1066.66C1065.83 93 1065.2 92.8081 1064.78 92.4244C1064.37 92.0406 1064.16 91.4102 1064.16 90.533V85.2208H1062.99V83.9873H1064.16V81.7177H1065.66V83.9873H1068.01V85.2208H1065.66ZM1071.32 85.451C1071.58 84.9357 1071.95 84.5355 1072.44 84.2504C1072.93 83.9654 1073.53 83.8228 1074.23 83.8228V85.3688H1073.83C1072.16 85.3688 1071.32 86.2789 1071.32 88.0989V93H1069.82V83.9873H1071.32V85.451ZM1075.4 88.4608C1075.4 87.5398 1075.58 86.7339 1075.96 86.0431C1076.33 85.3414 1076.84 84.7987 1077.49 84.4149C1078.14 84.0312 1078.87 83.8393 1079.67 83.8393C1080.46 83.8393 1081.15 84.0092 1081.73 84.3491C1082.31 84.689 1082.74 85.1166 1083.03 85.632V83.9873H1084.54V93H1083.03V91.3225C1082.73 91.8487 1082.29 92.2873 1081.7 92.6382C1081.11 92.9781 1080.43 93.148 1079.66 93.148C1078.86 93.148 1078.13 92.9507 1077.49 92.5559C1076.84 92.1612 1076.33 91.6075 1075.96 90.8948C1075.58 90.1822 1075.4 89.3708 1075.4 88.4608ZM1083.03 88.4772C1083.03 87.7974 1082.89 87.2053 1082.62 86.701C1082.34 86.1966 1081.97 85.8129 1081.5 85.5497C1081.04 85.2756 1080.53 85.1386 1079.97 85.1386C1079.41 85.1386 1078.9 85.2701 1078.44 85.5333C1077.98 85.7964 1077.61 86.1802 1077.34 86.6845C1077.06 87.1889 1076.93 87.781 1076.93 88.4608C1076.93 89.1515 1077.06 89.7546 1077.34 90.2699C1077.61 90.7742 1077.98 91.1635 1078.44 91.4376C1078.9 91.7007 1079.41 91.8323 1079.97 91.8323C1080.53 91.8323 1081.04 91.7007 1081.5 91.4376C1081.97 91.1635 1082.34 90.7742 1082.62 90.2699C1082.89 89.7546 1083.03 89.157 1083.03 88.4772ZM1086.51 88.4608C1086.51 87.5398 1086.7 86.7339 1087.07 86.0431C1087.44 85.3414 1087.95 84.7987 1088.6 84.4149C1089.26 84.0312 1089.99 83.8393 1090.8 83.8393C1091.51 83.8393 1092.16 84.0038 1092.76 84.3327C1093.36 84.6506 1093.82 85.0728 1094.14 85.5991V80.8296H1095.66V93H1094.14V91.306C1093.85 91.8433 1093.41 92.2873 1092.83 92.6382C1092.25 92.9781 1091.57 93.148 1090.79 93.148C1089.99 93.148 1089.26 92.9507 1088.6 92.5559C1087.95 92.1612 1087.44 91.6075 1087.07 90.8948C1086.7 90.1822 1086.51 89.3708 1086.51 88.4608ZM1094.14 88.4772C1094.14 87.7974 1094.01 87.2053 1093.73 86.701C1093.46 86.1966 1093.08 85.8129 1092.61 85.5497C1092.15 85.2756 1091.64 85.1386 1091.08 85.1386C1090.52 85.1386 1090.01 85.2701 1089.55 85.5333C1089.09 85.7964 1088.73 86.1802 1088.45 86.6845C1088.18 87.1889 1088.04 87.781 1088.04 88.4608C1088.04 89.1515 1088.18 89.7546 1088.45 90.2699C1088.73 90.7742 1089.09 91.1635 1089.55 91.4376C1090.01 91.7007 1090.52 91.8323 1091.08 91.8323C1091.64 91.8323 1092.15 91.7007 1092.61 91.4376C1093.08 91.1635 1093.46 90.7742 1093.73 90.2699C1094.01 89.7546 1094.14 89.157 1094.14 88.4772ZM1097.63 88.4608C1097.63 87.5398 1097.81 86.7339 1098.18 86.0431C1098.56 85.3414 1099.07 84.7987 1099.71 84.4149C1100.37 84.0312 1101.1 83.8393 1101.9 83.8393C1102.69 83.8393 1103.38 84.0092 1103.96 84.3491C1104.54 84.689 1104.97 85.1166 1105.26 85.632V83.9873H1106.77V93H1105.26V91.3225C1104.96 91.8487 1104.52 92.2873 1103.92 92.6382C1103.34 92.9781 1102.66 93.148 1101.88 93.148C1101.08 93.148 1100.36 92.9507 1099.71 92.5559C1099.07 92.1612 1098.56 91.6075 1098.18 90.8948C1097.81 90.1822 1097.63 89.3708 1097.63 88.4608ZM1105.26 88.4772C1105.26 87.7974 1105.12 87.2053 1104.85 86.701C1104.57 86.1966 1104.2 85.8129 1103.73 85.5497C1103.27 85.2756 1102.76 85.1386 1102.2 85.1386C1101.64 85.1386 1101.13 85.2701 1100.67 85.5333C1100.21 85.7964 1099.84 86.1802 1099.57 86.6845C1099.29 87.1889 1099.15 87.781 1099.15 88.4608C1099.15 89.1515 1099.29 89.7546 1099.57 90.2699C1099.84 90.7742 1100.21 91.1635 1100.67 91.4376C1101.13 91.7007 1101.64 91.8323 1102.2 91.8323C1102.76 91.8323 1103.27 91.7007 1103.73 91.4376C1104.2 91.1635 1104.57 90.7742 1104.85 90.2699C1105.12 89.7546 1105.26 89.157 1105.26 88.4772ZM1112.49 93.148C1111.8 93.148 1111.18 93.0329 1110.63 92.8026C1110.08 92.5614 1109.65 92.2325 1109.33 91.8159C1109.01 91.3882 1108.84 90.9003 1108.81 90.3521H1110.35C1110.4 90.8016 1110.6 91.169 1110.98 91.454C1111.36 91.7391 1111.86 91.8816 1112.47 91.8816C1113.04 91.8816 1113.49 91.7555 1113.82 91.5034C1114.15 91.2512 1114.31 90.9332 1114.31 90.5495C1114.31 90.1548 1114.14 89.8642 1113.79 89.6778C1113.44 89.4804 1112.89 89.2886 1112.16 89.1022C1111.49 88.9267 1110.94 88.7513 1110.52 88.5759C1110.1 88.3895 1109.74 88.1209 1109.43 87.77C1109.13 87.4082 1108.99 86.9367 1108.99 86.3556C1108.99 85.8951 1109.12 85.473 1109.4 85.0892C1109.67 84.7055 1110.06 84.4039 1110.57 84.1847C1111.07 83.9544 1111.65 83.8393 1112.29 83.8393C1113.29 83.8393 1114.1 84.0915 1114.71 84.5958C1115.32 85.1002 1115.65 85.7909 1115.7 86.6681H1114.2C1114.17 86.1966 1113.97 85.8183 1113.62 85.5333C1113.28 85.2482 1112.82 85.1057 1112.24 85.1057C1111.71 85.1057 1111.28 85.2208 1110.96 85.451C1110.64 85.6813 1110.48 85.9828 1110.48 86.3556C1110.48 86.6516 1110.58 86.8983 1110.76 87.0957C1110.96 87.2821 1111.2 87.4356 1111.49 87.5562C1111.78 87.6658 1112.19 87.7919 1112.7 87.9345C1113.35 88.1099 1113.88 88.2853 1114.28 88.4608C1114.69 88.6252 1115.03 88.8774 1115.32 89.2173C1115.61 89.5572 1115.77 90.0012 1115.78 90.5495C1115.78 91.0429 1115.64 91.4869 1115.37 91.8816C1115.09 92.2764 1114.7 92.5888 1114.2 92.8191C1113.71 93.0384 1113.14 93.148 1112.49 93.148Z" fill="#EBEBF5" fill-opacity="0.3"/>
<path d="M1035.52 150.339V151.606H1028.95V150.339H1035.52ZM1046.34 157.115C1045.59 157.115 1044.91 156.984 1044.3 156.72C1043.71 156.446 1043.25 156.074 1042.91 155.602C1042.57 155.12 1042.39 154.566 1042.38 153.941H1043.98C1044.03 154.478 1044.25 154.933 1044.63 155.306C1045.03 155.668 1045.6 155.849 1046.34 155.849C1047.06 155.849 1047.62 155.673 1048.02 155.322C1048.44 154.961 1048.65 154.5 1048.65 153.941C1048.65 153.502 1048.53 153.146 1048.28 152.872C1048.04 152.598 1047.74 152.389 1047.38 152.247C1047.02 152.104 1046.53 151.951 1045.92 151.786C1045.16 151.589 1044.55 151.392 1044.09 151.194C1043.64 150.997 1043.25 150.69 1042.92 150.273C1042.61 149.846 1042.45 149.276 1042.45 148.563C1042.45 147.938 1042.61 147.384 1042.92 146.902C1043.24 146.419 1043.69 146.047 1044.26 145.783C1044.84 145.52 1045.5 145.389 1046.25 145.389C1047.32 145.389 1048.2 145.657 1048.88 146.195C1049.57 146.732 1049.96 147.445 1050.04 148.333H1048.4C1048.35 147.894 1048.11 147.51 1047.71 147.181C1047.3 146.842 1046.77 146.672 1046.1 146.672C1045.47 146.672 1044.96 146.836 1044.57 147.165C1044.17 147.483 1043.98 147.932 1043.98 148.514C1043.98 148.93 1044.09 149.27 1044.32 149.533C1044.56 149.796 1044.85 149.999 1045.19 150.142C1045.54 150.273 1046.03 150.427 1046.66 150.602C1047.41 150.811 1048.02 151.019 1048.48 151.227C1048.94 151.425 1049.34 151.737 1049.67 152.165C1050 152.581 1050.16 153.152 1050.16 153.875C1050.16 154.434 1050.01 154.961 1049.72 155.454C1049.42 155.947 1048.98 156.348 1048.4 156.655C1047.82 156.962 1047.13 157.115 1046.34 157.115ZM1051.8 152.461C1051.8 151.54 1051.99 150.734 1052.36 150.043C1052.73 149.341 1053.24 148.799 1053.89 148.415C1054.55 148.031 1055.28 147.839 1056.08 147.839C1056.87 147.839 1057.55 148.009 1058.13 148.349C1058.72 148.689 1059.15 149.117 1059.43 149.632V147.987H1060.95V157H1059.43V155.322C1059.14 155.849 1058.69 156.287 1058.1 156.638C1057.52 156.978 1056.84 157.148 1056.06 157.148C1055.26 157.148 1054.54 156.951 1053.89 156.556C1053.24 156.161 1052.73 155.608 1052.36 154.895C1051.99 154.182 1051.8 153.371 1051.8 152.461ZM1059.43 152.477C1059.43 151.797 1059.3 151.205 1059.02 150.701C1058.75 150.197 1058.38 149.813 1057.9 149.55C1057.44 149.276 1056.93 149.139 1056.38 149.139C1055.82 149.139 1055.31 149.27 1054.85 149.533C1054.39 149.796 1054.02 150.18 1053.74 150.685C1053.47 151.189 1053.33 151.781 1053.33 152.461C1053.33 153.152 1053.47 153.755 1053.74 154.27C1054.02 154.774 1054.39 155.163 1054.85 155.438C1055.31 155.701 1055.82 155.832 1056.38 155.832C1056.93 155.832 1057.44 155.701 1057.9 155.438C1058.38 155.163 1058.75 154.774 1059.02 154.27C1059.3 153.755 1059.43 153.157 1059.43 152.477ZM1064.97 147.987V157H1063.48V147.987H1064.97ZM1065.83 145.438L1062.33 147.313V146.195L1065.83 144.139V145.438ZM1066.96 152.461C1066.96 151.54 1067.15 150.734 1067.52 150.043C1067.9 149.341 1068.41 148.799 1069.05 148.415C1069.71 148.031 1070.45 147.839 1071.26 147.839C1071.96 147.839 1072.61 148.004 1073.21 148.333C1073.82 148.651 1074.28 149.073 1074.6 149.599V144.83H1076.11V157H1074.6V155.306C1074.3 155.843 1073.86 156.287 1073.28 156.638C1072.7 156.978 1072.02 157.148 1071.24 157.148C1070.44 157.148 1069.71 156.951 1069.05 156.556C1068.41 156.161 1067.9 155.608 1067.52 154.895C1067.15 154.182 1066.96 153.371 1066.96 152.461ZM1074.6 152.477C1074.6 151.797 1074.46 151.205 1074.18 150.701C1073.91 150.197 1073.54 149.813 1073.07 149.55C1072.61 149.276 1072.1 149.139 1071.54 149.139C1070.98 149.139 1070.47 149.27 1070.01 149.533C1069.55 149.796 1069.18 150.18 1068.91 150.685C1068.63 151.189 1068.49 151.781 1068.49 152.461C1068.49 153.152 1068.63 153.755 1068.91 154.27C1069.18 154.774 1069.55 155.163 1070.01 155.438C1070.47 155.701 1070.98 155.832 1071.54 155.832C1072.1 155.832 1072.61 155.701 1073.07 155.438C1073.54 155.163 1073.91 154.774 1074.18 154.27C1074.46 153.755 1074.6 153.157 1074.6 152.477ZM1078.08 152.461C1078.08 151.54 1078.27 150.734 1078.64 150.043C1079.01 149.341 1079.52 148.799 1080.17 148.415C1080.83 148.031 1081.55 147.839 1082.35 147.839C1083.14 147.839 1083.83 148.009 1084.41 148.349C1084.99 148.689 1085.43 149.117 1085.71 149.632V147.987H1087.22V157H1085.71V155.322C1085.41 155.849 1084.97 156.287 1084.38 156.638C1083.8 156.978 1083.12 157.148 1082.34 157.148C1081.54 157.148 1080.81 156.951 1080.17 156.556C1079.52 156.161 1079.01 155.608 1078.64 154.895C1078.27 154.182 1078.08 153.371 1078.08 152.461ZM1085.71 152.477C1085.71 151.797 1085.57 151.205 1085.3 150.701C1085.02 150.197 1084.65 149.813 1084.18 149.55C1083.72 149.276 1083.21 149.139 1082.65 149.139C1082.09 149.139 1081.58 149.27 1081.12 149.533C1080.66 149.796 1080.29 150.18 1080.02 150.685C1079.75 151.189 1079.61 151.781 1079.61 152.461C1079.61 153.152 1079.75 153.755 1080.02 154.27C1080.29 154.774 1080.66 155.163 1081.12 155.438C1081.58 155.701 1082.09 155.832 1082.65 155.832C1083.21 155.832 1083.72 155.701 1084.18 155.438C1084.65 155.163 1085.02 154.774 1085.3 154.27C1085.57 153.755 1085.71 153.157 1085.71 152.477ZM1092.94 157.148C1092.25 157.148 1091.63 157.033 1091.08 156.803C1090.54 156.561 1090.1 156.232 1089.79 155.816C1089.47 155.388 1089.29 154.9 1089.26 154.352H1090.8C1090.85 154.802 1091.06 155.169 1091.43 155.454C1091.81 155.739 1092.31 155.882 1092.93 155.882C1093.5 155.882 1093.95 155.756 1094.28 155.503C1094.6 155.251 1094.77 154.933 1094.77 154.549C1094.77 154.155 1094.59 153.864 1094.24 153.678C1093.89 153.48 1093.35 153.289 1092.61 153.102C1091.95 152.927 1091.4 152.751 1090.97 152.576C1090.55 152.389 1090.19 152.121 1089.88 151.77C1089.59 151.408 1089.44 150.937 1089.44 150.356C1089.44 149.895 1089.58 149.473 1089.85 149.089C1090.13 148.705 1090.51 148.404 1091.02 148.185C1091.52 147.954 1092.1 147.839 1092.75 147.839C1093.74 147.839 1094.55 148.091 1095.16 148.596C1095.78 149.1 1096.11 149.791 1096.15 150.668H1094.65C1094.62 150.197 1094.43 149.818 1094.08 149.533C1093.74 149.248 1093.28 149.106 1092.7 149.106C1092.16 149.106 1091.73 149.221 1091.41 149.451C1091.1 149.681 1090.94 149.983 1090.94 150.356C1090.94 150.652 1091.03 150.898 1091.22 151.096C1091.41 151.282 1091.65 151.436 1091.94 151.556C1092.24 151.666 1092.64 151.792 1093.16 151.934C1093.8 152.11 1094.33 152.285 1094.74 152.461C1095.14 152.625 1095.49 152.877 1095.77 153.217C1096.07 153.557 1096.22 154.001 1096.23 154.549C1096.23 155.043 1096.1 155.487 1095.82 155.882C1095.55 156.276 1095.16 156.589 1094.65 156.819C1094.16 157.038 1093.59 157.148 1092.94 157.148Z" fill="#EBEBF5" fill-opacity="0.3"/>
<path d="M1038.21 212.579V213.846H1029.66V212.579H1038.21ZM1038.21 216.115V217.382H1029.66V216.115H1038.21ZM1051.57 221L1048.84 216.313H1047.03V221H1045.54V209.537H1049.24C1050.1 209.537 1050.83 209.685 1051.42 209.981C1052.03 210.277 1052.48 210.677 1052.77 211.181C1053.07 211.686 1053.22 212.261 1053.22 212.908C1053.22 213.698 1052.99 214.394 1052.53 214.997C1052.08 215.6 1051.4 216 1050.49 216.198L1053.36 221H1051.57ZM1047.03 215.112H1049.24C1050.05 215.112 1050.66 214.915 1051.06 214.52C1051.47 214.114 1051.67 213.577 1051.67 212.908C1051.67 212.229 1051.47 211.702 1051.06 211.329C1050.67 210.957 1050.06 210.77 1049.24 210.77H1047.03V215.112ZM1063.77 216.148C1063.77 216.433 1063.75 216.735 1063.72 217.053H1056.51C1056.57 217.941 1056.87 218.637 1057.42 219.142C1057.98 219.635 1058.65 219.882 1059.44 219.882C1060.09 219.882 1060.62 219.734 1061.05 219.438C1061.49 219.131 1061.8 218.725 1061.97 218.221H1063.58C1063.34 219.087 1062.86 219.794 1062.14 220.342C1061.41 220.879 1060.51 221.148 1059.44 221.148C1058.58 221.148 1057.82 220.956 1057.14 220.572C1056.47 220.189 1055.94 219.646 1055.56 218.944C1055.17 218.232 1054.98 217.409 1054.98 216.477C1054.98 215.545 1055.17 214.728 1055.54 214.027C1055.92 213.325 1056.44 212.788 1057.1 212.415C1057.78 212.031 1058.56 211.839 1059.44 211.839C1060.3 211.839 1061.05 212.026 1061.71 212.398C1062.37 212.771 1062.87 213.287 1063.22 213.944C1063.58 214.591 1063.77 215.326 1063.77 216.148ZM1062.22 215.836C1062.22 215.266 1062.09 214.778 1061.84 214.372C1061.59 213.955 1061.24 213.643 1060.81 213.435C1060.38 213.215 1059.9 213.106 1059.37 213.106C1058.62 213.106 1057.97 213.347 1057.43 213.829C1056.91 214.312 1056.61 214.981 1056.53 215.836H1062.22ZM1068.93 221.148C1068.24 221.148 1067.62 221.033 1067.07 220.803C1066.53 220.561 1066.09 220.232 1065.77 219.816C1065.46 219.388 1065.28 218.9 1065.25 218.352H1066.79C1066.84 218.802 1067.05 219.169 1067.42 219.454C1067.8 219.739 1068.3 219.882 1068.92 219.882C1069.49 219.882 1069.93 219.756 1070.26 219.503C1070.59 219.251 1070.76 218.933 1070.76 218.549C1070.76 218.155 1070.58 217.864 1070.23 217.678C1069.88 217.48 1069.34 217.289 1068.6 217.102C1067.93 216.927 1067.39 216.751 1066.96 216.576C1066.54 216.389 1066.18 216.121 1065.87 215.77C1065.58 215.408 1065.43 214.937 1065.43 214.356C1065.43 213.895 1065.57 213.473 1065.84 213.089C1066.11 212.705 1066.5 212.404 1067.01 212.185C1067.51 211.954 1068.09 211.839 1068.73 211.839C1069.73 211.839 1070.54 212.091 1071.15 212.596C1071.77 213.1 1072.09 213.791 1072.14 214.668H1070.64C1070.61 214.197 1070.42 213.818 1070.07 213.533C1069.73 213.248 1069.27 213.106 1068.68 213.106C1068.15 213.106 1067.72 213.221 1067.4 213.451C1067.08 213.681 1066.93 213.983 1066.93 214.356C1066.93 214.652 1067.02 214.898 1067.2 215.096C1067.4 215.282 1067.64 215.436 1067.93 215.556C1068.22 215.666 1068.63 215.792 1069.15 215.934C1069.79 216.11 1070.32 216.285 1070.72 216.461C1071.13 216.625 1071.48 216.877 1071.76 217.217C1072.06 217.557 1072.21 218.001 1072.22 218.549C1072.22 219.043 1072.08 219.487 1071.81 219.882C1071.54 220.276 1071.15 220.589 1070.64 220.819C1070.15 221.038 1069.58 221.148 1068.93 221.148ZM1082.33 211.987V221H1080.83V219.668C1080.55 220.128 1080.14 220.49 1079.63 220.753C1079.13 221.005 1078.57 221.132 1077.95 221.132C1077.25 221.132 1076.62 220.989 1076.06 220.704C1075.5 220.408 1075.06 219.969 1074.73 219.388C1074.41 218.807 1074.25 218.1 1074.25 217.267V211.987H1075.73V217.069C1075.73 217.957 1075.96 218.643 1076.41 219.125C1076.86 219.597 1077.47 219.832 1078.25 219.832C1079.05 219.832 1079.68 219.586 1080.14 219.092C1080.6 218.599 1080.83 217.881 1080.83 216.938V211.987H1082.33ZM1086.35 208.83V221H1084.85V208.83H1086.35ZM1090.73 213.221V218.533C1090.73 218.972 1090.82 219.284 1091.01 219.47C1091.19 219.646 1091.52 219.734 1091.98 219.734H1093.08V221H1091.73C1090.9 221 1090.27 220.808 1089.85 220.424C1089.44 220.041 1089.23 219.41 1089.23 218.533V213.221H1088.06V211.987H1089.23V209.718H1090.73V211.987H1093.08V213.221H1090.73ZM1094.33 216.461C1094.33 215.54 1094.52 214.734 1094.89 214.043C1095.26 213.341 1095.77 212.799 1096.42 212.415C1097.08 212.031 1097.81 211.839 1098.61 211.839C1099.4 211.839 1100.08 212.009 1100.66 212.349C1101.25 212.689 1101.68 213.117 1101.96 213.632V211.987H1103.48V221H1101.96V219.322C1101.67 219.849 1101.22 220.287 1100.63 220.638C1100.05 220.978 1099.37 221.148 1098.59 221.148C1097.79 221.148 1097.07 220.951 1096.42 220.556C1095.77 220.161 1095.26 219.608 1094.89 218.895C1094.52 218.182 1094.33 217.371 1094.33 216.461ZM1101.96 216.477C1101.96 215.797 1101.83 215.205 1101.55 214.701C1101.28 214.197 1100.91 213.813 1100.43 213.55C1099.97 213.276 1099.46 213.139 1098.9 213.139C1098.35 213.139 1097.84 213.27 1097.38 213.533C1096.91 213.796 1096.55 214.18 1096.27 214.685C1096 215.189 1095.86 215.781 1095.86 216.461C1095.86 217.152 1096 217.755 1096.27 218.27C1096.55 218.774 1096.91 219.163 1097.38 219.438C1097.84 219.701 1098.35 219.832 1098.9 219.832C1099.46 219.832 1099.97 219.701 1100.43 219.438C1100.91 219.163 1101.28 218.774 1101.55 218.27C1101.83 217.755 1101.96 217.157 1101.96 216.477ZM1105.45 216.461C1105.45 215.54 1105.63 214.734 1106.01 214.043C1106.38 213.341 1106.89 212.799 1107.54 212.415C1108.19 212.031 1108.93 211.839 1109.74 211.839C1110.44 211.839 1111.09 212.004 1111.7 212.333C1112.3 212.651 1112.76 213.073 1113.08 213.599V208.83H1114.59V221H1113.08V219.306C1112.78 219.843 1112.34 220.287 1111.76 220.638C1111.18 220.978 1110.5 221.148 1109.72 221.148C1108.92 221.148 1108.19 220.951 1107.54 220.556C1106.89 220.161 1106.38 219.608 1106.01 218.895C1105.63 218.182 1105.45 217.371 1105.45 216.461ZM1113.08 216.477C1113.08 215.797 1112.94 215.205 1112.67 214.701C1112.39 214.197 1112.02 213.813 1111.55 213.55C1111.09 213.276 1110.58 213.139 1110.02 213.139C1109.46 213.139 1108.95 213.27 1108.49 213.533C1108.03 213.796 1107.66 214.18 1107.39 214.685C1107.11 215.189 1106.98 215.781 1106.98 216.461C1106.98 217.152 1107.11 217.755 1107.39 218.27C1107.66 218.774 1108.03 219.163 1108.49 219.438C1108.95 219.701 1109.46 219.832 1110.02 219.832C1110.58 219.832 1111.09 219.701 1111.55 219.438C1112.02 219.163 1112.39 218.774 1112.67 218.27C1112.94 217.755 1113.08 217.157 1113.08 216.477ZM1121.05 221.148C1120.21 221.148 1119.44 220.956 1118.75 220.572C1118.07 220.189 1117.53 219.646 1117.14 218.944C1116.75 218.232 1116.56 217.409 1116.56 216.477C1116.56 215.556 1116.76 214.745 1117.15 214.043C1117.56 213.33 1118.11 212.788 1118.8 212.415C1119.49 212.031 1120.26 211.839 1121.12 211.839C1121.97 211.839 1122.75 212.031 1123.44 212.415C1124.13 212.788 1124.67 213.325 1125.06 214.027C1125.47 214.728 1125.67 215.545 1125.67 216.477C1125.67 217.409 1125.46 218.232 1125.05 218.944C1124.64 219.646 1124.09 220.189 1123.39 220.572C1122.68 220.956 1121.91 221.148 1121.05 221.148ZM1121.05 219.832C1121.59 219.832 1122.09 219.706 1122.56 219.454C1123.04 219.202 1123.41 218.824 1123.7 218.319C1124 217.815 1124.14 217.201 1124.14 216.477C1124.14 215.754 1124 215.14 1123.72 214.635C1123.43 214.131 1123.06 213.758 1122.6 213.517C1122.14 213.265 1121.64 213.139 1121.1 213.139C1120.55 213.139 1120.05 213.265 1119.59 213.517C1119.14 213.758 1118.78 214.131 1118.5 214.635C1118.23 215.14 1118.09 215.754 1118.09 216.477C1118.09 217.212 1118.22 217.831 1118.49 218.336C1118.76 218.84 1119.12 219.218 1119.57 219.47C1120.02 219.712 1120.51 219.832 1121.05 219.832Z" fill="#EBEBF5" fill-opacity="0.3"/>
<rect x="77" y="270" width="1217" height="452" fill="#2C2C2E"/>
</g>
</g>
</g>
<defs>
<filter id="filter0_dd_594_1188" x="-55.7778" y="-33.6667" width="1393.56" height="819.556" filterUnits="userSpaceOnUse" color-interpolation-filters="sRGB">
<feFlood flood-opacity="0" result="BackgroundImageFix"/>
<feColorMatrix in="SourceAlpha" type="matrix" values="0 0 0 0 0 0 0 0 0 0 0 0 0 0 0 0 0 0 127 0" result="hardAlpha"/>
<feOffset dy="29.1111"/>
<feGaussianBlur stdDeviation="36.3889"/>
<feColorMatrix type="matrix" values="0 0 0 0 0.192157 0 0 0 0 0.92549 0 0 0 0 1 0 0 0 0.01 0"/>
<feBlend mode="multiply" in2="BackgroundImageFix" result="effect1_dropShadow_594_1188"/>
<feColorMatrix in="SourceAlpha" type="matrix" values="0 0 0 0 0 0 0 0 0 0 0 0 0 0 0 0 0 0 127 0" result="hardAlpha"/>
<feOffset dy="17.4667"/>
<feGaussianBlur stdDeviation="8.73333"/>
<feColorMatrix type="matrix" values="0 0 0 0 0.192157 0 0 0 0 0.92549 0 0 0 0 1 0 0 0 0.21 0"/>
<feBlend mode="multiply" in2="effect1_dropShadow_594_1188" result="effect2_dropShadow_594_1188"/>
<feBlend mode="normal" in="SourceGraphic" in2="effect2_dropShadow_594_1188" result="shape"/>
</filter>
<linearGradient id="paint0_linear_594_1188" x1="34.8538" y1="343.392" x2="60.0535" y2="321.64" gradientUnits="userSpaceOnUse">
<stop stop-color="#FFDD55"/>
<stop offset="0.5" stop-color="#FF543E"/>
<stop offset="1" stop-color="#C837AB"/>
</linearGradient>
<linearGradient id="paint1_linear_594_1188" x1="62.8389" y1="243" x2="62.8389" y2="272.111" gradientUnits="userSpaceOnUse">
<stop stop-color="#2C2C2E" stop-opacity="0"/>
<stop offset="0.514425" stop-color="#545458" stop-opacity="0.65"/>
<stop offset="1" stop-color="#2C2C2E" stop-opacity="0"/>
</linearGradient>
<linearGradient id="paint2_linear_594_1188" x1="62.8389" y1="418" x2="62.8389" y2="447.111" gradientUnits="userSpaceOnUse">
<stop stop-color="#2C2C2E" stop-opacity="0"/>
<stop offset="0.514425" stop-color="#545458" stop-opacity="0.65"/>
<stop offset="1" stop-color="#2C2C2E" stop-opacity="0"/>
</linearGradient>
<clipPath id="clip0_594_1188">
<rect width="1280" height="720" fill="white"/>
</clipPath>
<clipPath id="clip1_594_1188">
<rect x="17" y="10" width="1248" height="674" rx="29.1111" fill="white"/>
</clipPath>
<clipPath id="clip2_594_1188">
<rect width="250" height="20" fill="white" transform="translate(102 89)"/>
</clipPath>
<clipPath id="clip3_594_1188">
<rect width="27.0525" height="27.0525" fill="white" transform="translate(33.1111 268)"/>
</clipPath>
<clipPath id="clip4_594_1188">
<rect width="27.0525" height="27.0525" fill="white" transform="translate(33.1111 368)"/>
</clipPath>
<clipPath id="clip5_594_1188">
<rect width="27.0525" height="27.1245" fill="white" transform="translate(33.1111 318)"/>
</clipPath>
</defs>
</svg>
